<?xml version="1.0" encoding="UTF-8" standalone="no"?>
<!DOCTYPE svg PUBLIC "-//W3C//DTD SVG 1.1//EN" "http://www.w3.org/Graphics/SVG/1.1/DTD/svg11.dtd">
<svg width="100%" height="100%" viewBox="0 0 2500 1667" version="1.1" xmlns="http://www.w3.org/2000/svg" xmlns:xlink="http://www.w3.org/1999/xlink" xml:space="preserve" xmlns:serif="http://www.serif.com/" style="fill-rule:evenodd;clip-rule:evenodd;stroke-linejoin:round;stroke-miterlimit:2;">
    <g transform="matrix(4.16667,0,0,4.16667,0,0)">
        <g transform="matrix(1,0,0,1,-68.0748,-19.007)">
            <path d="M529.5,216.589L397.525,140.394L311.518,198.992L436.229,270.994C438.748,272.449 441.852,272.449 444.37,270.994L529.5,221.845C531.523,220.677 531.523,217.757 529.5,216.589Z" style="fill:rgb(240,241,241);fill-rule:nonzero;"/>
        </g>
        <g transform="matrix(1,0,0,1,-68.0748,-19.007)">
            <path d="M365.872,345.332L442.703,300.973C444.364,300.014 444.156,298.339 442.237,297.231C440.319,296.123 437.417,296.003 435.756,296.962L358.925,341.321C357.264,342.281 357.472,343.955 359.391,345.063C361.309,346.171 364.211,346.291 365.872,345.332Z" style="fill:rgb(240,241,241);fill-rule:nonzero;"/>
        </g>
        <g transform="matrix(1,0,0,1,-68.0748,-19.007)">
            <path d="M448.303,287.439C448.246,287.34 448.132,287.289 448.021,287.313L444.372,288.066L445.782,290.519L448.27,287.746C448.346,287.661 448.359,287.537 448.303,287.439Z" style="fill:rgb(212,235,250);fill-rule:nonzero;"/>
        </g>
        <g transform="matrix(1,0,0,1,-68.0748,-19.007)">
            <path d="M446.849,289.224C446.85,288.698 446.482,288.059 446.028,287.796C445.818,287.674 445.629,287.657 445.482,287.723C441.276,287.648 437.128,288.714 433.479,290.81L433.216,290.961L437.661,298.699L439.005,297.827C441.85,295.981 444.256,293.535 446.056,290.66L446.637,289.733C446.767,289.64 446.849,289.467 446.849,289.224Z" style="fill:rgb(85,147,206);fill-rule:nonzero;"/>
        </g>
        <g transform="matrix(1,0,0,1,-68.0748,-19.007)">
            <path d="M438.59,296.658C438.594,294.647 437.187,292.197 435.446,291.188C433.705,290.178 432.291,290.99 432.287,293.002C432.283,295.014 433.69,297.464 435.431,298.473C437.171,299.483 438.585,298.67 438.59,296.658Z" style="fill:rgb(212,235,250);fill-rule:nonzero;"/>
        </g>
        <g transform="matrix(1,0,0,1,-68.0748,-19.007)">
            <path d="M402.354,319.92L437.661,298.699L433.216,290.961L397.101,310.778L402.354,319.92Z" style="fill:rgb(212,235,250);fill-rule:nonzero;"/>
        </g>
        <g transform="matrix(1,0,0,1,-68.0748,-19.007)">
            <path d="M403.451,317.509C403.456,315.132 401.793,312.238 399.736,311.044C397.68,309.851 396.009,310.811 396.004,313.189C395.999,315.566 397.662,318.46 399.718,319.654C401.774,320.847 403.445,319.886 403.451,317.509Z" style="fill:rgb(212,235,250);fill-rule:nonzero;"/>
        </g>
        <g transform="matrix(1,0,0,1,-68.0748,-19.007)">
            <path d="M401.911,318.394C401.916,316.016 400.253,313.122 398.196,311.929C396.14,310.736 394.469,311.696 394.464,314.073C394.459,316.45 396.122,319.345 398.179,320.538C400.234,321.732 401.906,320.771 401.911,318.394Z" style="fill:rgb(212,235,250);fill-rule:nonzero;"/>
        </g>
        <g transform="matrix(1,0,0,1,-68.0748,-19.007)">
            <path d="M365.103,341.323L400.813,320.805L395.561,311.662L359.85,332.181L365.103,341.323Z" style="fill:rgb(212,235,250);fill-rule:nonzero;"/>
        </g>
        <g transform="matrix(1,0,0,1,-68.0748,-19.007)">
            <path d="M366.2,338.912C366.205,336.534 364.542,333.641 362.485,332.448C360.429,331.254 358.758,332.214 358.753,334.592C358.748,336.969 360.411,339.864 362.467,341.057C364.523,342.249 366.194,341.289 366.2,338.912Z" style="fill:rgb(212,235,250);fill-rule:nonzero;"/>
        </g>
        <g transform="matrix(1,0,0,1,-68.0748,-19.007)">
            <path d="M364.867,338.139C364.799,336.735 363.674,334.976 362.354,334.21C361.033,333.444 360.018,333.961 360.085,335.365C360.153,336.769 361.278,338.529 362.599,339.294C363.92,340.06 364.935,339.543 364.867,338.139Z" style="fill:rgb(56,109,171);fill-rule:nonzero;"/>
        </g>
        <g transform="matrix(1,0,0,1,-68.0748,-19.007)">
            <path d="M403.722,317.353C403.728,314.976 402.064,312.081 400.008,310.888C397.951,309.696 396.28,310.656 396.275,313.032C396.271,315.41 397.934,318.305 399.989,319.497C402.046,320.691 403.717,319.731 403.722,317.353Z" style="fill:rgb(85,147,206);fill-rule:nonzero;"/>
        </g>
        <g transform="matrix(1,0,0,1,-68.0748,-19.007)">
            <path d="M403.722,317.353C403.728,314.976 402.064,312.081 400.008,310.888C399.18,310.407 398.416,310.281 397.797,310.451C398.475,309.757 399.576,309.685 400.823,310.407C402.879,311.601 404.542,314.495 404.537,316.872C404.534,318.292 403.935,319.201 403.016,319.453C403.457,319.002 403.72,318.289 403.722,317.353Z" style="fill:white;fill-rule:nonzero;"/>
        </g>
        <g transform="matrix(1,0,0,1,-68.0748,-19.007)">
            <path d="M400.602,320.927L402.625,319.764L397.372,310.621L395.349,311.784L400.602,320.927Z" style="fill:rgb(85,147,206);fill-rule:nonzero;"/>
        </g>
        <g transform="matrix(1,0,0,1,-68.0748,-19.007)">
            <path d="M401.698,318.516C401.704,316.138 400.041,313.243 397.984,312.051C395.928,310.858 394.257,311.818 394.252,314.196C394.247,316.573 395.91,319.467 397.966,320.66C400.022,321.853 401.693,320.893 401.698,318.516Z" style="fill:rgb(212,235,250);fill-rule:nonzero;"/>
        </g>
        <g transform="matrix(1,0,0,1,-68.0748,-19.007)">
            <path d="M363.186,339.178L360.919,335.233L353.35,339.582C352.261,340.208 351.885,341.599 352.511,342.688C353.137,343.777 354.526,344.153 355.616,343.527L363.186,339.178Z" style="fill:rgb(255,195,11);fill-rule:nonzero;"/>
        </g>
        <g transform="matrix(1,0,0,1,-68.0748,-19.007)">
            <path d="M363.658,338.138C363.661,337.112 362.943,335.863 362.056,335.348C361.169,334.833 360.447,335.247 360.445,336.274C360.443,337.299 361.161,338.548 362.048,339.063C362.936,339.577 363.656,339.163 363.658,338.138Z" style="fill:rgb(255,195,11);fill-rule:nonzero;"/>
        </g>
        <g transform="matrix(1,0,0,1,-68.0748,-19.007)">
            <path d="M372.16,324.376L371.038,323.725C370.394,323.352 369.535,323.435 368.621,323.959L364.731,326.195C363.997,326.616 363.398,327.649 363.396,328.495L363.393,330.431C363.392,330.756 363.229,331.127 362.994,331.4L363.13,332.297L362.171,331.736L362.174,331.735C362.035,331.662 361.947,331.499 361.948,331.261L361.952,329.325C361.956,327.56 363.204,325.407 364.735,324.529L368.625,322.293C369.924,321.547 371.145,321.428 372.063,321.96L373.184,322.612C373.828,322.985 374.687,322.902 375.601,322.377L391.279,313.368C391.481,313.252 391.664,313.243 391.795,313.323L391.795,313.322L392.751,313.882L391.925,314.191C391.807,314.536 391.562,314.87 391.275,315.034L375.597,324.043C374.297,324.79 373.076,324.908 372.16,324.376Z" style="fill:rgb(85,147,206);fill-rule:nonzero;"/>
        </g>
        <g transform="matrix(1,0,0,1,-68.0748,-19.007)">
            <path d="M372.009,324.294C371.364,323.92 370.506,324.003 369.593,324.529L365.703,326.763C364.969,327.185 364.37,328.217 364.368,329.064L364.364,331C364.363,331.46 364.039,332.019 363.64,332.248C363.241,332.477 362.918,332.29 362.919,331.83L362.923,329.894C362.927,328.128 364.176,325.977 365.706,325.097L369.596,322.862C370.896,322.115 372.116,321.997 373.033,322.529L374.155,323.18C374.8,323.554 375.657,323.471 376.571,322.946L392.25,313.937C392.649,313.707 392.972,313.895 392.971,314.355C392.97,314.815 392.646,315.374 392.247,315.603L376.568,324.612C375.269,325.359 374.048,325.477 373.131,324.946L372.009,324.294Z" style="fill:rgb(85,147,206);fill-rule:nonzero;"/>
        </g>
        <g transform="matrix(1,0,0,1,-68.0748,-19.007)">
            <path d="M356.976,348.498L364.145,344.359C365.009,343.86 364.9,342.988 363.902,342.411C362.904,341.835 361.395,341.773 360.529,342.272L353.36,346.41C352.496,346.909 352.604,347.781 353.603,348.358C354.601,348.935 356.111,348.997 356.976,348.498Z" style="fill:rgb(240,241,241);fill-rule:nonzero;"/>
        </g>
        <g transform="matrix(1,0,0,1,-68.0748,-19.007)">
            <path d="M432.345,140.236C432.35,134.479 428.295,132.133 423.307,135.007L338.507,183.865C337.135,184.655 336.021,186.579 336.021,188.162C336.019,189.744 337.13,190.388 338.502,189.598L423.301,140.74C425.551,139.444 427.38,140.501 427.377,143.098L427.369,152.581C429.015,152.479 430.666,152.477 432.333,152.506L432.345,140.236Z" style="fill:rgb(237,55,149);fill-rule:nonzero;"/>
        </g>
        <g transform="matrix(1,0,0,1,-68.0748,-19.007)">
            <path d="M338.47,206.651L423.27,175.749C428.259,172.875 432.321,165.853 432.327,160.095L432.333,152.506C430.666,152.477 429.015,152.479 427.369,152.581L427.359,162.957C427.357,165.554 425.525,168.72 423.275,170.017L338.476,200.917C337.104,201.708 335.99,203.632 335.989,205.215C335.987,206.797 337.099,207.441 338.47,206.651Z" style="fill:rgb(208,16,140);fill-rule:nonzero;"/>
        </g>
        <g transform="matrix(1,0,0,1,-68.0748,-19.007)">
            <path d="M336.631,206.764L439.786,266.454L527.123,214.369L534.052,204.028L533.333,207.692L531.471,198.099L369.352,204.282L340.788,202.443L336.631,206.764Z" style="fill:rgb(255,195,11);fill-rule:nonzero;"/>
        </g>
        <g transform="matrix(1,0,0,1,-68.0748,-19.007)">
            <path d="M340.052,188.751L340.024,201.448L439.723,259.129L442.417,247.028L340.052,188.751Z" style="fill:rgb(255,214,88);fill-rule:nonzero;"/>
        </g>
        <g transform="matrix(1,0,0,1,-68.0748,-19.007)">
            <path d="M532.767,194.017L429.775,134.432L336.918,188.431L336.727,189.757L439.869,249.43L532.767,194.017Z" style="fill:rgb(255,195,11);fill-rule:nonzero;"/>
        </g>
        <g transform="matrix(1,0,0,1,-68.0748,-19.007)">
            <path d="M499.934,224.615L524.148,210.251C526.188,208.818 527.788,205.92 527.79,203.498L527.809,201.596C527.81,200.057 527.165,199.065 526.175,198.777L478.506,225.295L439.688,246.29L439.723,259.129L499.934,224.615Z" style="fill:white;fill-rule:nonzero;"/>
        </g>
        <g transform="matrix(1,0,0,1,-68.0748,-19.007)">
            <path d="M443.169,247.462L340.831,188.255L338.661,187L336.68,185.854C336.274,186.597 336.021,187.416 336.021,188.162C336.02,188.94 336.29,189.488 336.726,189.753L336.727,189.757L336.743,189.767L336.75,189.771L439.869,249.43L443.169,247.462Z" style="fill:rgb(255,195,11);fill-rule:nonzero;"/>
        </g>
        <g transform="matrix(1,0,0,1,-68.0748,-19.007)">
            <path d="M438.5,265.71L439.786,266.454L440.023,266.044L439.223,265.413L438.5,265.71Z" style="fill:white;fill-rule:nonzero;"/>
        </g>
        <g transform="matrix(1,0,0,1,-68.0748,-19.007)">
            <path d="M438.533,248.655L439.852,249.417L439.521,248.698L438.533,248.655Z" style="fill:white;fill-rule:nonzero;"/>
        </g>
        <g transform="matrix(1,0,0,1,-68.0748,-19.007)">
            <path d="M441.648,243.537L526.448,194.679C531.438,191.805 535.491,194.151 535.486,199.908L535.469,201.811C535.464,207.568 531.4,214.59 526.412,217.465L441.612,266.323C440.24,267.113 439.13,266.47 439.131,264.887C439.133,263.305 440.246,261.38 441.617,260.59L526.417,211.732C528.667,210.436 530.499,207.269 530.501,204.672L530.52,202.77C530.521,200.173 528.693,199.115 526.443,200.412L441.644,249.27C440.272,250.06 439.161,249.417 439.162,247.834C439.164,246.252 440.277,244.327 441.648,243.537Z" style="fill:rgb(255,195,11);fill-rule:nonzero;"/>
        </g>
        <g transform="matrix(1,0,0,1,-68.0748,-19.007)">
            <path d="M403.882,196.168L447.947,170.78L486.164,192.89L442.099,218.279L403.882,196.168Z" style="fill:white;fill-rule:nonzero;"/>
        </g>
        <g transform="matrix(1,0,0,1,-68.0748,-19.007)">
            <path d="M439.131,264.887C439.133,263.305 440.246,261.38 441.617,260.59L526.417,211.733C528.667,210.436 530.499,207.269 530.501,204.672L530.52,202.77C530.521,201.07 529.734,200.035 528.563,199.883C528.939,200.379 529.161,201.087 529.16,201.984L529.143,203.886C529.141,206.483 527.309,209.65 525.059,210.947L440.259,259.804C438.887,260.594 437.773,262.519 437.772,264.101C437.771,265.301 438.41,265.956 439.316,265.862C439.198,265.596 439.131,265.271 439.131,264.887Z" style="fill:white;fill-rule:nonzero;"/>
        </g>
        <g transform="matrix(1,0,0,1,-68.0748,-19.007)">
            <path d="M439.162,247.834C439.164,246.252 440.277,244.327 441.648,243.537L526.448,194.679C528.597,193.442 530.569,193.177 532.122,193.731C530.464,192.317 527.93,192.257 525.09,193.893L440.29,242.751C438.919,243.541 437.806,245.466 437.804,247.048C437.803,248.247 438.441,248.904 439.348,248.809C439.229,248.543 439.162,248.218 439.162,247.834Z" style="fill:white;fill-rule:nonzero;"/>
        </g>
        <g transform="matrix(1,0,0,1,-68.0748,-19.007)">
            <path d="M428.951,102.438C428.956,96.68 424.901,94.335 419.913,97.21L335.113,146.067C333.742,146.857 332.629,148.781 332.627,150.365C332.626,151.947 333.737,152.59 335.108,151.799L419.908,102.942C422.158,101.645 423.986,102.703 423.984,105.3L423.976,114.783C425.621,114.681 427.272,114.679 428.94,114.708L428.951,102.438Z" style="fill:rgb(212,235,250);fill-rule:nonzero;"/>
        </g>
        <g transform="matrix(1,0,0,1,-68.0748,-19.007)">
            <path d="M335.077,168.852L419.876,137.951C424.865,135.077 428.929,128.055 428.934,122.297L428.94,114.708C427.272,114.679 425.621,114.681 423.976,114.783L423.966,125.159C423.964,127.756 422.132,130.922 419.882,132.219L335.082,163.119C333.711,163.909 332.598,165.834 332.596,167.417C332.595,168.999 333.705,169.643 335.077,168.852Z" style="fill:rgb(85,147,206);fill-rule:nonzero;"/>
        </g>
        <g transform="matrix(1,0,0,1,-68.0748,-19.007)">
            <path d="M333.237,168.966L436.394,228.656L523.729,176.572L530.658,166.23L529.939,169.894L528.077,160.301L365.958,166.485L337.396,164.645L333.237,168.966Z" style="fill:rgb(85,147,206);fill-rule:nonzero;"/>
        </g>
        <g transform="matrix(1,0,0,1,-68.0748,-19.007)">
            <path d="M336.659,150.953L336.631,163.651L436.33,221.331L439.023,209.23L336.659,150.953Z" style="fill:rgb(134,184,225);fill-rule:nonzero;"/>
        </g>
        <g transform="matrix(1,0,0,1,-68.0748,-19.007)">
            <path d="M529.373,156.219L426.382,96.634L333.525,150.633L333.333,151.959L436.477,211.632L529.373,156.219Z" style="fill:rgb(212,235,250);fill-rule:nonzero;"/>
        </g>
        <g transform="matrix(1,0,0,1,-68.0748,-19.007)">
            <path d="M496.54,186.818L520.755,172.453C522.794,171.02 524.395,168.122 524.397,165.7L524.415,163.798C524.416,162.259 523.771,161.267 522.781,160.979L475.112,187.497L436.294,208.492L436.33,221.331L496.54,186.818Z" style="fill:white;fill-rule:nonzero;"/>
        </g>
        <g transform="matrix(1,0,0,1,-68.0748,-19.007)">
            <path d="M439.775,209.664L337.438,150.457L335.269,149.202L333.287,148.056C332.882,148.799 332.628,149.618 332.627,150.365C332.627,151.142 332.896,151.69 333.333,151.954L333.333,151.959L333.357,151.973L436.476,211.632L439.775,209.664Z" style="fill:rgb(85,147,206);fill-rule:nonzero;"/>
        </g>
        <g transform="matrix(1,0,0,1,-68.0748,-19.007)">
            <path d="M435.106,227.911L436.394,228.656L436.63,228.246L435.829,227.615L435.106,227.911Z" style="fill:white;fill-rule:nonzero;"/>
        </g>
        <g transform="matrix(1,0,0,1,-68.0748,-19.007)">
            <path d="M435.141,210.857L436.458,211.619L436.128,210.9L435.141,210.857Z" style="fill:white;fill-rule:nonzero;"/>
        </g>
        <g transform="matrix(1,0,0,1,-68.0748,-19.007)">
            <path d="M438.256,205.74L523.055,156.881C528.044,154.007 532.099,156.353 532.093,162.11L532.075,164.013C532.07,169.77 528.007,176.792 523.018,179.667L438.219,228.525C436.848,229.315 435.736,228.672 435.737,227.089C435.739,225.507 436.853,223.582 438.224,222.792L523.023,173.934C525.273,172.638 527.105,169.471 527.108,166.874L527.126,164.972C527.128,162.375 525.3,161.318 523.05,162.614L438.25,211.472C436.879,212.262 435.768,211.619 435.77,210.036C435.771,208.453 436.884,206.53 438.256,205.74Z" style="fill:rgb(212,235,250);fill-rule:nonzero;"/>
        </g>
        <g transform="matrix(1,0,0,1,-68.0748,-19.007)">
            <path d="M400.488,158.37L444.554,132.982L482.771,155.092L438.705,180.481L400.488,158.37Z" style="fill:white;fill-rule:nonzero;"/>
        </g>
        <g transform="matrix(1,0,0,1,-68.0748,-19.007)">
            <path d="M435.738,227.089C435.739,225.507 436.853,223.582 438.224,222.792L523.023,173.934C525.273,172.638 527.105,169.471 527.108,166.874L527.126,164.972C527.128,163.272 526.342,162.238 525.169,162.085C525.547,162.581 525.768,163.289 525.768,164.186L525.75,166.088C525.747,168.685 523.914,171.852 521.664,173.148L436.865,222.006C435.494,222.796 434.381,224.721 434.379,226.303C434.378,227.503 435.018,228.158 435.923,228.064C435.805,227.798 435.737,227.473 435.738,227.089Z" style="fill:white;fill-rule:nonzero;"/>
        </g>
        <g transform="matrix(1,0,0,1,-68.0748,-19.007)">
            <path d="M435.77,210.036C435.771,208.453 436.884,206.53 438.256,205.74L523.055,156.881C525.203,155.644 527.177,155.379 528.729,155.933C527.071,154.519 524.536,154.459 521.695,156.095L436.896,204.953C435.525,205.743 434.412,207.667 434.41,209.25C434.409,210.449 435.049,211.106 435.954,211.011C435.836,210.745 435.769,210.42 435.77,210.036Z" style="fill:white;fill-rule:nonzero;"/>
        </g>
        <g transform="matrix(1,0,0,1,-68.0748,-19.007)">
            <path d="M322.668,336.706L202.95,267.587C199.563,265.632 199.988,262.217 203.899,259.96L285.418,212.909C289.329,210.652 295.244,210.406 298.631,212.362L418.349,281.481C421.735,283.437 421.311,286.852 417.4,289.11L335.881,336.158C331.971,338.416 326.055,338.661 322.668,336.706Z" style="fill:rgb(240,241,241);fill-rule:nonzero;"/>
        </g>
        <g transform="matrix(1,0,0,1,-68.0748,-19.007)">
            <path d="M446.389,159.037L326.671,89.919C325.28,89.116 323.867,88.993 322.613,89.422L322.621,89.409L322.404,89.491L322.351,89.511L318.024,91.167L321.907,93.068L321.852,93.279L302.352,182.042C301.376,186.485 303.33,191.671 306.717,193.626L423.556,261.083L423.139,266.034L427.867,264.201C429.456,263.458 430.728,261.779 431.254,259.386L450.754,170.621C451.729,166.179 449.775,160.993 446.389,159.037Z" style="fill:rgb(31,62,121);fill-rule:nonzero;"/>
        </g>
        <g transform="matrix(1,0,0,1,-68.0748,-19.007)">
            <path d="M446.389,159.037L326.671,89.919C325.28,89.116 323.867,88.993 322.613,89.422L322.621,89.409L322.404,89.491L322.351,89.511L318.024,91.167L321.907,93.068L321.852,93.279L309,151.78L367.576,197.416L450.17,163.809C449.376,161.751 448.058,160.001 446.389,159.037Z" style="fill:rgb(56,109,171);fill-rule:nonzero;"/>
        </g>
        <g transform="matrix(1,0,0,1,-68.0748,-19.007)">
            <path d="M441.874,172.682L450.988,168.802C451.155,165.273 449.694,161.626 447.296,159.677L432.87,165.744L441.874,172.682Z" style="fill:rgb(38,80,138);fill-rule:nonzero;"/>
        </g>
        <g transform="matrix(1,0,0,1,-68.0748,-19.007)">
            <path d="M418.979,265.564L299.262,196.445C295.875,194.49 293.92,189.303 294.896,184.861L314.396,96.097C315.372,91.656 318.909,89.639 322.296,91.594L442.014,160.713C445.4,162.669 447.354,167.855 446.379,172.297L426.879,261.061C425.903,265.503 422.366,267.519 418.979,265.564Z" style="fill:rgb(212,235,250);fill-rule:nonzero;"/>
        </g>
        <g transform="matrix(1,0,0,1,-68.0748,-19.007)">
            <path d="M443.163,160.292L323.445,91.175C321.805,90.227 320.134,90.228 318.731,90.969C319.857,90.723 321.084,90.895 322.296,91.595L442.014,160.713C445.4,162.668 447.354,167.856 446.379,172.297L426.879,261.061C426.376,263.351 425.187,264.979 423.693,265.768C425.715,265.326 427.401,263.493 428.028,260.641L447.528,171.877C448.504,167.435 446.55,162.248 443.163,160.292Z" style="fill:white;fill-rule:nonzero;"/>
        </g>
        <g transform="matrix(1,0,0,1,-68.0748,-19.007)">
            <path d="M416.385,258.961L303.792,193.988C300.693,192.198 298.905,187.452 299.797,183.388L317.642,102.161C318.535,98.097 321.771,96.253 324.87,98.042L437.463,163.015C440.562,164.804 442.35,169.55 441.457,173.615L423.613,254.84C422.72,258.906 419.483,260.75 416.385,258.961Z" style="fill:white;fill-rule:nonzero;"/>
        </g>
        <g transform="matrix(1,0,0,1,-68.0748,-19.007)">
            <path d="M416.385,258.961L303.792,193.988C300.693,192.198 298.905,187.452 299.797,183.388L317.642,102.161C318.535,98.097 321.771,96.253 324.87,98.042L437.463,163.015C440.562,164.804 442.35,169.55 441.457,173.615L423.613,254.84C422.72,258.906 419.483,260.75 416.385,258.961Z" style="fill:rgb(31,62,121);fill-rule:nonzero;"/>
        </g>
        <g transform="matrix(1,0,0,1,-68.0748,-19.007)">
            <path d="M417.366,258.563L304.773,193.588C301.674,191.799 299.886,187.053 300.779,182.989L318.623,101.762C319.075,99.706 320.129,98.224 321.46,97.487C319.675,97.946 318.2,99.62 317.642,102.161L299.797,183.387C298.905,187.452 300.693,192.198 303.792,193.988L416.385,258.961C417.915,259.845 419.477,259.835 420.775,259.116C419.707,259.392 418.526,259.232 417.366,258.563Z" style="fill:rgb(85,147,206);fill-rule:nonzero;"/>
        </g>
        <g transform="matrix(1,0,0,1,-68.0748,-19.007)">
            <path d="M420.633,268.573L404.268,266.413L298.631,205.423C295.244,203.468 289.329,203.713 285.418,205.971L210.564,249.172L200.669,247.865L200.669,253.48L200.678,253.482C200.614,254.779 201.353,256.028 202.95,256.949L322.668,326.069C326.055,328.024 331.971,327.779 335.881,325.521L417.4,278.472C419.6,277.201 420.696,275.566 420.633,274.029L420.633,268.573Z" style="fill:rgb(31,62,121);fill-rule:nonzero;"/>
        </g>
        <g transform="matrix(1,0,0,1,-68.0748,-19.007)">
            <path d="M341.261,230.035L333.755,225.702L251.242,225.702L210.564,249.172L200.669,247.865L200.669,253.48L200.678,253.482C200.614,254.779 201.353,256.028 202.95,256.949L322.668,326.069C324.458,327.102 326.954,327.515 329.487,327.347L341.261,230.035Z" style="fill:rgb(56,109,171);fill-rule:nonzero;"/>
        </g>
        <g transform="matrix(1,0,0,1,-68.0748,-19.007)">
            <path d="M205.06,248.446L200.669,247.865L200.669,253.48L200.678,253.482C200.614,254.779 201.353,256.028 202.95,256.949L205.06,258.167L205.06,248.446Z" style="fill:rgb(85,147,206);fill-rule:nonzero;"/>
        </g>
        <g transform="matrix(1,0,0,1,-68.0748,-19.007)">
            <path d="M323.874,326.629C327.084,327.846 331.674,327.581 335.101,325.932L335.101,313.408L323.874,313.408L323.874,326.629Z" style="fill:rgb(38,80,138);fill-rule:nonzero;"/>
        </g>
        <g transform="matrix(1,0,0,1,-68.0748,-19.007)">
            <path d="M322.668,320.461L202.95,251.342C199.563,249.386 199.988,245.971 203.899,243.713L285.418,196.664C289.329,194.406 295.244,194.161 298.631,196.116L418.349,265.236C421.735,267.191 421.311,270.606 417.4,272.864L335.881,319.913C331.971,322.171 326.055,322.416 322.668,320.461Z" style="fill:rgb(212,235,250);fill-rule:nonzero;"/>
        </g>
        <g transform="matrix(1,0,0,1,-68.0748,-19.007)">
            <path d="M417.4,270.813L335.881,317.863C331.971,320.12 326.055,320.365 322.668,318.41L202.95,249.291C201.84,248.65 201.147,247.851 200.845,246.988C200.315,248.59 200.991,250.21 202.95,251.342L322.668,320.461C326.055,322.416 331.971,322.171 335.881,319.913L417.4,272.864C420.028,271.346 421.074,269.307 420.454,267.538C420.068,268.705 419.048,269.862 417.4,270.813Z" style="fill:white;fill-rule:nonzero;"/>
        </g>
        <g transform="matrix(1,0,0,1,-68.0748,-19.007)">
            <path d="M253.868,228.459L248.451,225.331C248.017,225.08 248.071,224.642 248.573,224.352L254.967,220.66C255.469,220.37 256.229,220.339 256.664,220.59L262.079,223.718C262.515,223.969 262.46,224.407 261.958,224.698L255.565,228.389C255.063,228.679 254.303,228.71 253.868,228.459Z" style="fill:rgb(85,147,206);fill-rule:nonzero;"/>
        </g>
        <g transform="matrix(1,0,0,1,-68.0748,-19.007)">
            <path d="M262.233,233.288L256.816,230.161C256.381,229.91 256.436,229.472 256.937,229.182L263.332,225.49C263.834,225.2 264.594,225.169 265.029,225.42L270.445,228.547C270.88,228.798 270.826,229.237 270.324,229.527L263.93,233.218C263.428,233.508 262.668,233.539 262.233,233.288Z" style="fill:rgb(85,147,206);fill-rule:nonzero;"/>
        </g>
        <g transform="matrix(1,0,0,1,-68.0748,-19.007)">
            <path d="M270.598,238.118L265.182,234.99C264.747,234.74 264.801,234.301 265.303,234.011L271.697,230.32C272.199,230.03 272.959,229.998 273.394,230.249L278.811,233.377C279.246,233.628 279.191,234.067 278.688,234.357L272.295,238.048C271.793,238.338 271.033,238.369 270.598,238.118Z" style="fill:rgb(85,147,206);fill-rule:nonzero;"/>
        </g>
        <g transform="matrix(1,0,0,1,-68.0748,-19.007)">
            <path d="M282.167,234.13L276.751,231.002C276.316,230.751 276.371,230.313 276.873,230.023L282.24,226.924C282.742,226.634 283.501,226.603 283.937,226.854L289.354,229.981C289.788,230.233 289.734,230.671 289.231,230.961L283.864,234.06C283.362,234.35 282.603,234.381 282.167,234.13Z" style="fill:rgb(85,147,206);fill-rule:nonzero;"/>
        </g>
        <g transform="matrix(1,0,0,1,-68.0748,-19.007)">
            <path d="M290.533,238.959L285.116,235.832C284.681,235.581 284.736,235.143 285.238,234.853L290.605,231.754C291.107,231.464 291.867,231.432 292.302,231.684L297.718,234.811C298.153,235.062 298.099,235.5 297.597,235.79L292.229,238.889C291.728,239.179 290.968,239.21 290.533,238.959Z" style="fill:rgb(85,147,206);fill-rule:nonzero;"/>
        </g>
        <g transform="matrix(1,0,0,1,-68.0748,-19.007)">
            <path d="M298.898,243.789L293.481,240.661C293.046,240.41 293.101,239.972 293.603,239.682L298.97,236.583C299.472,236.293 300.232,236.262 300.667,236.513L306.084,239.64C306.519,239.892 306.464,240.33 305.962,240.62L300.595,243.719C300.092,244.009 299.333,244.04 298.898,243.789Z" style="fill:rgb(85,147,206);fill-rule:nonzero;"/>
        </g>
        <g transform="matrix(1,0,0,1,-68.0748,-19.007)">
            <path d="M307.263,248.618L301.846,245.491C301.411,245.24 301.466,244.802 301.968,244.512L307.335,241.413C307.837,241.123 308.597,241.091 309.032,241.343L314.448,244.47C314.884,244.721 314.829,245.159 314.327,245.449L308.96,248.548C308.458,248.838 307.698,248.869 307.263,248.618Z" style="fill:rgb(85,147,206);fill-rule:nonzero;"/>
        </g>
        <g transform="matrix(1,0,0,1,-68.0748,-19.007)">
            <path d="M315.628,253.448L310.211,250.321C309.776,250.07 309.831,249.631 310.333,249.341L315.7,246.242C316.202,245.952 316.962,245.921 317.397,246.172L322.813,249.299C323.249,249.551 323.194,249.99 322.692,250.28L317.325,253.378C316.822,253.668 316.063,253.699 315.628,253.448Z" style="fill:rgb(85,147,206);fill-rule:nonzero;"/>
        </g>
        <g transform="matrix(1,0,0,1,-68.0748,-19.007)">
            <path d="M323.993,258.279L318.576,255.151C318.142,254.9 318.196,254.461 318.698,254.171L324.065,251.073C324.567,250.782 325.327,250.75 325.762,251.002L331.179,254.129C331.614,254.38 331.56,254.819 331.057,255.109L325.69,258.207C325.188,258.498 324.428,258.529 323.993,258.279Z" style="fill:rgb(85,147,206);fill-rule:nonzero;"/>
        </g>
        <g transform="matrix(1,0,0,1,-68.0748,-19.007)">
            <path d="M332.358,263.108L326.941,259.981C326.507,259.729 326.562,259.291 327.063,259L332.431,255.902C332.933,255.612 333.692,255.58 334.127,255.831L339.544,258.958C339.979,259.21 339.925,259.649 339.422,259.939L334.055,263.037C333.553,263.327 332.793,263.359 332.358,263.108Z" style="fill:rgb(85,147,206);fill-rule:nonzero;"/>
        </g>
        <g transform="matrix(1,0,0,1,-68.0748,-19.007)">
            <path d="M340.724,267.937L335.307,264.81C334.872,264.559 334.926,264.12 335.429,263.83L340.796,260.732C341.298,260.442 342.058,260.409 342.492,260.662L347.909,263.788C348.344,264.039 348.289,264.478 347.787,264.768L342.42,267.866C341.918,268.156 341.158,268.188 340.724,267.937Z" style="fill:rgb(85,147,206);fill-rule:nonzero;"/>
        </g>
        <g transform="matrix(1,0,0,1,-68.0748,-19.007)">
            <path d="M349.089,272.767L343.672,269.639C343.236,269.388 343.291,268.949 343.794,268.659L349.161,265.561C349.663,265.271 350.423,265.24 350.857,265.49L356.274,268.617C356.709,268.869 356.654,269.308 356.152,269.598L350.785,272.697C350.283,272.987 349.523,273.018 349.089,272.767Z" style="fill:rgb(85,147,206);fill-rule:nonzero;"/>
        </g>
        <g transform="matrix(1,0,0,1,-68.0748,-19.007)">
            <path d="M357.453,277.596L352.037,274.469C351.602,274.218 351.656,273.78 352.158,273.49L357.525,270.391C358.028,270.101 358.788,270.069 359.223,270.321L364.64,273.448C365.074,273.698 365.02,274.137 364.518,274.427L359.15,277.526C358.648,277.816 357.889,277.847 357.453,277.596Z" style="fill:rgb(85,147,206);fill-rule:nonzero;"/>
        </g>
        <g transform="matrix(1,0,0,1,-68.0748,-19.007)">
            <path d="M294.493,231.843L289.076,228.716C288.642,228.465 288.696,228.027 289.198,227.737L294.565,224.638C295.067,224.348 295.827,224.316 296.262,224.568L301.679,227.695C302.113,227.946 302.06,228.384 301.557,228.674L296.19,231.773C295.688,232.063 294.928,232.094 294.493,231.843Z" style="fill:rgb(85,147,206);fill-rule:nonzero;"/>
        </g>
        <g transform="matrix(1,0,0,1,-68.0748,-19.007)">
            <path d="M286.003,226.942L280.586,223.815C280.151,223.563 280.206,223.124 280.708,222.834L286.075,219.736C286.578,219.446 287.337,219.414 287.772,219.665L293.189,222.793C293.624,223.044 293.569,223.483 293.067,223.773L287.7,226.871C287.198,227.161 286.438,227.193 286.003,226.942Z" style="fill:rgb(85,147,206);fill-rule:nonzero;"/>
        </g>
        <g transform="matrix(1,0,0,1,-68.0748,-19.007)">
            <path d="M277.5,222.031L265.833,215.296C265.398,215.045 265.453,214.607 265.955,214.317L271.322,211.218C271.824,210.928 272.584,210.897 273.019,211.148L284.685,217.883C285.12,218.134 285.065,218.573 284.563,218.863L279.196,221.961C278.694,222.251 277.934,222.283 277.5,222.031Z" style="fill:rgb(85,147,206);fill-rule:nonzero;"/>
        </g>
        <g transform="matrix(1,0,0,1,-68.0748,-19.007)">
            <path d="M283.443,216.061L273.976,210.595C273.541,210.344 273.596,209.906 274.098,209.615L279.465,206.517C279.967,206.227 280.727,206.196 281.162,206.447L290.629,211.912C291.064,212.163 291.01,212.602 290.507,212.892L285.14,215.99C284.638,216.281 283.878,216.312 283.443,216.061Z" style="fill:rgb(85,147,206);fill-rule:nonzero;"/>
        </g>
        <g transform="matrix(1,0,0,1,-68.0748,-19.007)">
            <path d="M302.858,236.673L297.441,233.545C297.006,233.294 297.061,232.856 297.563,232.566L302.931,229.467C303.433,229.177 304.192,229.146 304.627,229.397L310.044,232.525C310.479,232.776 310.424,233.214 309.922,233.504L304.555,236.603C304.053,236.893 303.293,236.924 302.858,236.673Z" style="fill:rgb(85,147,206);fill-rule:nonzero;"/>
        </g>
        <g transform="matrix(1,0,0,1,-68.0748,-19.007)">
            <path d="M311.224,241.502L305.807,238.375C305.372,238.124 305.426,237.686 305.929,237.396L311.296,234.297C311.798,234.007 312.558,233.976 312.992,234.227L318.409,237.354C318.844,237.605 318.789,238.043 318.287,238.333L312.92,241.432C312.418,241.722 311.658,241.753 311.224,241.502Z" style="fill:rgb(85,147,206);fill-rule:nonzero;"/>
        </g>
        <g transform="matrix(1,0,0,1,-68.0748,-19.007)">
            <path d="M319.589,246.332L314.172,243.204C313.736,242.953 313.791,242.515 314.294,242.225L319.66,239.126C320.163,238.836 320.923,238.805 321.357,239.056L326.774,242.184C327.209,242.435 327.154,242.873 326.652,243.163L321.285,246.262C320.783,246.552 320.023,246.583 319.589,246.332Z" style="fill:rgb(85,147,206);fill-rule:nonzero;"/>
        </g>
        <g transform="matrix(1,0,0,1,-68.0748,-19.007)">
            <path d="M327.953,251.161L322.537,248.034C322.102,247.783 322.156,247.345 322.658,247.055L328.025,243.956C328.528,243.666 329.287,243.635 329.723,243.886L335.14,247.013C335.574,247.264 335.52,247.702 335.018,247.992L329.65,251.091C329.148,251.381 328.389,251.412 327.953,251.161Z" style="fill:rgb(85,147,206);fill-rule:nonzero;"/>
        </g>
        <g transform="matrix(1,0,0,1,-68.0748,-19.007)">
            <path d="M336.318,255.991L330.902,252.864C330.467,252.613 330.521,252.174 331.023,251.884L336.391,248.785C336.893,248.495 337.652,248.464 338.088,248.715L343.504,251.843C343.939,252.094 343.885,252.532 343.383,252.823L338.016,255.921C337.514,256.211 336.754,256.242 336.318,255.991Z" style="fill:rgb(85,147,206);fill-rule:nonzero;"/>
        </g>
        <g transform="matrix(1,0,0,1,-68.0748,-19.007)">
            <path d="M344.684,260.822L339.267,257.694C338.832,257.443 338.887,257.004 339.389,256.714L344.756,253.615C345.258,253.325 346.018,253.294 346.453,253.545L351.869,256.672C352.305,256.923 352.25,257.362 351.748,257.653L346.381,260.75C345.878,261.041 345.118,261.072 344.684,260.822Z" style="fill:rgb(85,147,206);fill-rule:nonzero;"/>
        </g>
        <g transform="matrix(1,0,0,1,-68.0748,-19.007)">
            <path d="M353.049,265.651L347.632,262.523C347.197,262.272 347.252,261.833 347.754,261.543L353.121,258.445C353.623,258.155 354.383,258.123 354.817,258.374L360.234,261.503C360.67,261.753 360.615,262.192 360.112,262.482L354.746,265.58C354.243,265.87 353.483,265.902 353.049,265.651Z" style="fill:rgb(85,147,206);fill-rule:nonzero;"/>
        </g>
        <g transform="matrix(1,0,0,1,-68.0748,-19.007)">
            <path d="M361.414,270.48L355.997,267.353C355.563,267.102 355.617,266.663 356.119,266.373L361.486,263.275C361.988,262.985 362.748,262.953 363.183,263.204L368.6,266.331C369.034,266.582 368.98,267.021 368.478,267.311L363.11,270.409C362.608,270.699 361.849,270.731 361.414,270.48Z" style="fill:rgb(85,147,206);fill-rule:nonzero;"/>
        </g>
        <g transform="matrix(1,0,0,1,-68.0748,-19.007)">
            <path d="M369.779,275.31L364.362,272.182C363.928,271.931 363.981,271.492 364.484,271.202L369.852,268.104C370.354,267.814 371.113,267.782 371.548,268.033L376.965,271.161C377.399,271.412 377.345,271.851 376.843,272.141L371.476,275.24C370.974,275.53 370.214,275.561 369.779,275.31Z" style="fill:rgb(85,147,206);fill-rule:nonzero;"/>
        </g>
        <g transform="matrix(1,0,0,1,-68.0748,-19.007)">
            <path d="M384.65,283.896L372.831,277.072C372.396,276.821 372.451,276.382 372.953,276.092L378.32,272.993C378.822,272.703 379.582,272.672 380.018,272.923L391.836,279.747C392.271,279.998 392.217,280.437 391.714,280.727L386.347,283.825C385.845,284.115 385.085,284.147 384.65,283.896Z" style="fill:rgb(85,147,206);fill-rule:nonzero;"/>
        </g>
        <g transform="matrix(1,0,0,1,-68.0748,-19.007)">
            <path d="M400.937,274.493L390.961,268.734C390.525,268.483 390.58,268.044 391.082,267.754L396.449,264.656C396.952,264.365 397.711,264.334 398.146,264.585L408.122,270.344C408.557,270.595 408.502,271.034 408,271.323L402.633,274.423C402.131,274.712 401.371,274.744 400.937,274.493Z" style="fill:rgb(85,147,206);fill-rule:nonzero;"/>
        </g>
        <g transform="matrix(1,0,0,1,-68.0748,-19.007)">
            <path d="M317.507,235.728L312.091,232.601C311.655,232.35 311.71,231.91 312.212,231.621L317.579,228.523C318.082,228.233 318.842,228.2 319.276,228.451L324.693,231.579C325.128,231.83 325.073,232.269 324.571,232.559L319.204,235.657C318.702,235.948 317.942,235.979 317.507,235.728Z" style="fill:rgb(85,147,206);fill-rule:nonzero;"/>
        </g>
        <g transform="matrix(1,0,0,1,-68.0748,-19.007)">
            <path d="M308.935,230.779L303.518,227.651C303.082,227.4 303.137,226.961 303.64,226.671L309.006,223.573C309.509,223.282 310.269,223.251 310.703,223.502L316.12,226.629C316.555,226.881 316.5,227.32 315.998,227.61L310.631,230.708C310.129,230.998 309.369,231.03 308.935,230.779Z" style="fill:rgb(85,147,206);fill-rule:nonzero;"/>
        </g>
        <g transform="matrix(1,0,0,1,-68.0748,-19.007)">
            <path d="M300.361,225.828L294.944,222.701C294.509,222.45 294.564,222.011 295.066,221.722L300.433,218.622C300.935,218.333 301.695,218.301 302.13,218.552L307.547,221.68C307.981,221.931 307.927,222.369 307.425,222.659L302.058,225.758C301.556,226.048 300.796,226.079 300.361,225.828Z" style="fill:rgb(85,147,206);fill-rule:nonzero;"/>
        </g>
        <g transform="matrix(1,0,0,1,-68.0748,-19.007)">
            <path d="M291.788,220.879L286.371,217.751C285.936,217.5 285.991,217.062 286.493,216.772L291.86,213.673C292.362,213.383 293.122,213.352 293.557,213.603L298.974,216.73C299.408,216.981 299.354,217.42 298.852,217.709L293.484,220.809C292.982,221.098 292.223,221.13 291.788,220.879Z" style="fill:rgb(85,147,206);fill-rule:nonzero;"/>
        </g>
        <g transform="matrix(1,0,0,1,-68.0748,-19.007)">
            <path d="M325.872,240.558L320.456,237.43C320.021,237.179 320.075,236.74 320.577,236.45L325.944,233.352C326.447,233.062 327.206,233.031 327.642,233.281L333.059,236.408C333.493,236.66 333.438,237.099 332.937,237.389L327.569,240.488C327.067,240.778 326.308,240.809 325.872,240.558Z" style="fill:rgb(85,147,206);fill-rule:nonzero;"/>
        </g>
        <g transform="matrix(1,0,0,1,-68.0748,-19.007)">
            <path d="M334.237,245.387L328.82,242.26C328.386,242.009 328.44,241.57 328.942,241.281L334.31,238.182C334.812,237.892 335.571,237.86 336.007,238.111L341.423,241.239C341.858,241.49 341.804,241.928 341.302,242.218L335.935,245.317C335.432,245.607 334.673,245.638 334.237,245.387Z" style="fill:rgb(85,147,206);fill-rule:nonzero;"/>
        </g>
        <g transform="matrix(1,0,0,1,-68.0748,-19.007)">
            <path d="M342.603,250.217L337.186,247.089C336.751,246.838 336.806,246.4 337.308,246.11L342.675,243.011C343.177,242.721 343.937,242.69 344.372,242.941L349.788,246.068C350.224,246.32 350.169,246.758 349.667,247.048L344.3,250.147C343.797,250.437 343.037,250.468 342.603,250.217Z" style="fill:rgb(85,147,206);fill-rule:nonzero;"/>
        </g>
        <g transform="matrix(1,0,0,1,-68.0748,-19.007)">
            <path d="M350.968,255.046L345.551,251.919C345.116,251.668 345.171,251.23 345.673,250.94L351.04,247.841C351.542,247.551 352.302,247.519 352.736,247.771L358.153,250.898C358.588,251.149 358.534,251.587 358.031,251.877L352.664,254.976C352.162,255.266 351.402,255.297 350.968,255.046Z" style="fill:rgb(85,147,206);fill-rule:nonzero;"/>
        </g>
        <g transform="matrix(1,0,0,1,-68.0748,-19.007)">
            <path d="M359.333,259.876L353.916,256.748C353.481,256.498 353.536,256.059 354.038,255.769L359.405,252.67C359.907,252.38 360.667,252.349 361.102,252.6L366.519,255.727C366.953,255.979 366.899,256.417 366.396,256.707L361.029,259.806C360.527,260.097 359.768,260.128 359.333,259.876Z" style="fill:rgb(85,147,206);fill-rule:nonzero;"/>
        </g>
        <g transform="matrix(1,0,0,1,-68.0748,-19.007)">
            <path d="M367.698,264.705L362.281,261.578C361.847,261.327 361.9,260.889 362.403,260.599L367.771,257.5C368.272,257.21 369.032,257.179 369.467,257.43L374.884,260.557C375.318,260.809 375.264,261.246 374.762,261.537L369.395,264.635C368.893,264.925 368.133,264.956 367.698,264.705Z" style="fill:rgb(85,147,206);fill-rule:nonzero;"/>
        </g>
        <g transform="matrix(1,0,0,1,-68.0748,-19.007)">
            <path d="M376.063,269.535L370.646,266.407C370.211,266.156 370.266,265.718 370.769,265.428L376.135,262.329C376.638,262.039 377.397,262.008 377.832,262.259L383.249,265.386C383.684,265.638 383.629,266.076 383.127,266.366L377.76,269.465C377.258,269.755 376.498,269.786 376.063,269.535Z" style="fill:rgb(85,147,206);fill-rule:nonzero;"/>
        </g>
        <g transform="matrix(1,0,0,1,-68.0748,-19.007)">
            <path d="M384.428,274.365L379.012,271.238C378.576,270.987 378.631,270.548 379.133,270.258L384.5,267.159C385.003,266.869 385.762,266.837 386.197,267.089L391.614,270.216C392.049,270.467 391.994,270.906 391.492,271.196L386.125,274.294C385.623,274.584 384.863,274.615 384.428,274.365Z" style="fill:rgb(85,147,206);fill-rule:nonzero;"/>
        </g>
        <g transform="matrix(1,0,0,1,-68.0748,-19.007)">
            <path d="M392.793,279.195L387.377,276.067C386.941,275.816 386.996,275.377 387.498,275.087L392.865,271.989C393.367,271.698 394.127,271.667 394.563,271.918L399.979,275.045C400.414,275.297 400.359,275.736 399.857,276.026L394.49,279.124C393.988,279.414 393.229,279.446 392.793,279.195Z" style="fill:rgb(85,147,206);fill-rule:nonzero;"/>
        </g>
        <g transform="matrix(1,0,0,1,-68.0748,-19.007)">
            <path d="M313.103,223.782L307.686,220.655C307.251,220.404 307.306,219.965 307.808,219.675L313.175,216.576C313.677,216.286 314.437,216.255 314.871,216.506L320.288,219.634C320.724,219.885 320.669,220.323 320.166,220.614L314.8,223.712C314.297,224.002 313.537,224.033 313.103,223.782Z" style="fill:rgb(85,147,206);fill-rule:nonzero;"/>
        </g>
        <g transform="matrix(1,0,0,1,-68.0748,-19.007)">
            <path d="M304.779,218.977L299.362,215.849C298.927,215.598 298.982,215.159 299.484,214.869L304.852,211.771C305.354,211.481 306.113,211.449 306.548,211.7L311.965,214.828C312.399,215.079 312.345,215.518 311.843,215.808L306.476,218.906C305.974,219.197 305.214,219.228 304.779,218.977Z" style="fill:rgb(85,147,206);fill-rule:nonzero;"/>
        </g>
        <g transform="matrix(1,0,0,1,-68.0748,-19.007)">
            <path d="M296.456,214.171L291.039,211.044C290.604,210.792 290.658,210.354 291.161,210.064L296.528,206.965C297.03,206.675 297.79,206.644 298.225,206.895L303.642,210.023C304.076,210.274 304.021,210.712 303.52,211.002L298.152,214.101C297.65,214.391 296.891,214.422 296.456,214.171Z" style="fill:rgb(85,147,206);fill-rule:nonzero;"/>
        </g>
        <g transform="matrix(1,0,0,1,-68.0748,-19.007)">
            <path d="M288.132,209.365L282.715,206.239C282.28,205.988 282.335,205.548 282.837,205.258L288.204,202.159C288.707,201.87 289.466,201.838 289.901,202.089L295.318,205.217C295.753,205.468 295.698,205.906 295.196,206.197L289.829,209.295C289.327,209.585 288.567,209.616 288.132,209.365Z" style="fill:rgb(85,147,206);fill-rule:nonzero;"/>
        </g>
        <g transform="matrix(1,0,0,1,-68.0748,-19.007)">
            <path d="M296.691,204.424L291.274,201.296C290.839,201.045 290.894,200.607 291.396,200.317L293.17,199.292C293.673,199.002 294.432,198.971 294.867,199.222L300.284,202.35C300.719,202.601 300.665,203.039 300.162,203.329L298.388,204.354C297.886,204.644 297.126,204.675 296.691,204.424Z" style="fill:rgb(85,147,206);fill-rule:nonzero;"/>
        </g>
        <g transform="matrix(1,0,0,1,-68.0748,-19.007)">
            <path d="M307.554,210.696L302.137,207.568C301.701,207.317 301.756,206.878 302.259,206.588L304.032,205.564C304.535,205.274 305.295,205.242 305.729,205.493L311.146,208.621C311.581,208.872 311.526,209.311 311.024,209.601L309.25,210.625C308.748,210.915 307.988,210.947 307.554,210.696Z" style="fill:rgb(85,147,206);fill-rule:nonzero;"/>
        </g>
        <g transform="matrix(1,0,0,1,-68.0748,-19.007)">
            <path d="M315.842,215.481L310.426,212.354C309.99,212.103 310.045,211.663 310.547,211.373L312.321,210.35C312.823,210.06 313.583,210.028 314.019,210.28L319.435,213.406C319.87,213.657 319.815,214.096 319.313,214.386L317.539,215.41C317.037,215.7 316.277,215.732 315.842,215.481Z" style="fill:rgb(85,147,206);fill-rule:nonzero;"/>
        </g>
        <g transform="matrix(1,0,0,1,-68.0748,-19.007)">
            <path d="M324.131,220.266L318.714,217.139C318.279,216.888 318.334,216.449 318.836,216.159L320.61,215.135C321.112,214.845 321.872,214.814 322.307,215.065L327.724,218.192C328.159,218.443 328.104,218.882 327.602,219.171L325.828,220.196C325.325,220.486 324.565,220.518 324.131,220.266Z" style="fill:rgb(85,147,206);fill-rule:nonzero;"/>
        </g>
        <g transform="matrix(1,0,0,1,-68.0748,-19.007)">
            <path d="M332.42,225.052L327.003,221.924C326.568,221.673 326.623,221.235 327.125,220.945L328.899,219.92C329.401,219.63 330.161,219.599 330.596,219.85L336.013,222.978C336.447,223.229 336.393,223.667 335.891,223.957L334.116,224.982C333.614,225.272 332.854,225.303 332.42,225.052Z" style="fill:rgb(85,147,206);fill-rule:nonzero;"/>
        </g>
        <g transform="matrix(1,0,0,1,-68.0748,-19.007)">
            <path d="M378.695,251.769L373.278,248.642C372.843,248.39 372.897,247.951 373.4,247.661L375.174,246.637C375.677,246.348 376.437,246.316 376.871,246.567L382.288,249.695C382.723,249.946 382.668,250.384 382.166,250.674L380.392,251.698C379.89,251.989 379.13,252.02 378.695,251.769Z" style="fill:rgb(85,147,206);fill-rule:nonzero;"/>
        </g>
        <g transform="matrix(1,0,0,1,-68.0748,-19.007)">
            <path d="M386.983,256.554L381.567,253.427C381.132,253.176 381.187,252.738 381.688,252.448L383.463,251.423C383.965,251.133 384.725,251.102 385.16,251.353L390.576,254.48C391.012,254.731 390.957,255.17 390.455,255.459L388.681,256.485C388.179,256.774 387.419,256.806 386.983,256.554Z" style="fill:rgb(85,147,206);fill-rule:nonzero;"/>
        </g>
        <g transform="matrix(1,0,0,1,-68.0748,-19.007)">
            <path d="M395.272,261.34L389.855,258.212C389.421,257.961 389.476,257.524 389.978,257.233L391.752,256.208C392.254,255.918 393.014,255.887 393.448,256.138L398.865,259.266C399.3,259.517 399.246,259.955 398.743,260.245L396.97,261.27C396.467,261.56 395.707,261.591 395.272,261.34Z" style="fill:rgb(85,147,206);fill-rule:nonzero;"/>
        </g>
        <g transform="matrix(1,0,0,1,-68.0748,-19.007)">
            <path d="M403.562,266.125L398.145,262.998C397.71,262.747 397.764,262.309 398.267,262.02L400.041,260.994C400.543,260.705 401.303,260.673 401.737,260.925L407.154,264.051C407.589,264.302 407.534,264.74 407.032,265.031L405.258,266.055C404.756,266.345 403.996,266.376 403.562,266.125Z" style="fill:rgb(85,147,206);fill-rule:nonzero;"/>
        </g>
        <g transform="matrix(1,0,0,1,-68.0748,-19.007)">
            <path d="M321.468,228.612L316.051,225.485C315.616,225.234 315.671,224.795 316.173,224.505L321.54,221.406C322.042,221.116 322.802,221.084 323.236,221.336L328.653,224.463C329.088,224.714 329.034,225.153 328.531,225.443L323.164,228.541C322.662,228.831 321.902,228.863 321.468,228.612Z" style="fill:rgb(85,147,206);fill-rule:nonzero;"/>
        </g>
        <g transform="matrix(1,0,0,1,-68.0748,-19.007)">
            <path d="M329.833,233.442L324.416,230.314C323.981,230.063 324.035,229.624 324.538,229.334L329.905,226.236C330.407,225.946 331.167,225.914 331.602,226.165L337.019,229.293C337.453,229.544 337.398,229.983 336.896,230.273L331.529,233.371C331.027,233.661 330.268,233.693 329.833,233.442Z" style="fill:rgb(85,147,206);fill-rule:nonzero;"/>
        </g>
        <g transform="matrix(1,0,0,1,-68.0748,-19.007)">
            <path d="M338.198,238.271L332.781,235.144C332.346,234.893 332.4,234.454 332.903,234.164L338.271,231.066C338.772,230.776 339.532,230.743 339.967,230.995L345.384,234.122C345.818,234.373 345.764,234.812 345.262,235.102L339.895,238.2C339.393,238.49 338.633,238.522 338.198,238.271Z" style="fill:rgb(85,147,206);fill-rule:nonzero;"/>
        </g>
        <g transform="matrix(1,0,0,1,-68.0748,-19.007)">
            <path d="M346.563,243.101L341.146,239.973C340.711,239.722 340.766,239.283 341.268,238.993L346.635,235.895C347.138,235.605 347.897,235.573 348.332,235.824L353.749,238.952C354.184,239.203 354.129,239.642 353.627,239.932L348.26,243.031C347.758,243.321 346.998,243.352 346.563,243.101Z" style="fill:rgb(85,147,206);fill-rule:nonzero;"/>
        </g>
        <g transform="matrix(1,0,0,1,-68.0748,-19.007)">
            <path d="M354.928,247.93L349.512,244.803C349.076,244.552 349.131,244.114 349.633,243.823L355,240.725C355.503,240.435 356.262,240.403 356.697,240.655L362.114,243.781C362.549,244.032 362.494,244.471 361.992,244.761L356.625,247.86C356.123,248.15 355.363,248.181 354.928,247.93Z" style="fill:rgb(85,147,206);fill-rule:nonzero;"/>
        </g>
        <g transform="matrix(1,0,0,1,-68.0748,-19.007)">
            <path d="M363.293,252.76L357.876,249.632C357.441,249.381 357.496,248.943 357.998,248.653L363.365,245.554C363.867,245.264 364.627,245.233 365.063,245.484L370.479,248.612C370.914,248.863 370.859,249.301 370.357,249.591L364.99,252.69C364.487,252.98 363.729,253.011 363.293,252.76Z" style="fill:rgb(85,147,206);fill-rule:nonzero;"/>
        </g>
        <g transform="matrix(1,0,0,1,-68.0748,-19.007)">
            <path d="M371.658,257.589L366.241,254.462C365.807,254.211 365.861,253.773 366.363,253.483L371.73,250.384C372.232,250.094 372.992,250.063 373.428,250.314L378.844,253.441C379.279,253.692 379.225,254.13 378.723,254.42L373.355,257.52C372.853,257.809 372.093,257.84 371.658,257.589Z" style="fill:rgb(85,147,206);fill-rule:nonzero;"/>
        </g>
        <g transform="matrix(1,0,0,1,-68.0748,-19.007)">
            <path d="M380.023,262.419L374.606,259.291C374.172,259.041 374.227,258.602 374.729,258.313L380.096,255.213C380.598,254.923 381.357,254.892 381.792,255.143L387.209,258.271C387.644,258.522 387.59,258.96 387.087,259.25L381.72,262.349C381.218,262.639 380.458,262.67 380.023,262.419Z" style="fill:rgb(85,147,206);fill-rule:nonzero;"/>
        </g>
        <g transform="matrix(1,0,0,1,-68.0748,-19.007)">
            <path d="M388.389,267.248L382.972,264.121C382.537,263.87 382.592,263.432 383.094,263.142L388.461,260.043C388.963,259.753 389.723,259.722 390.157,259.973L395.574,263.1C396.009,263.351 395.955,263.789 395.452,264.079L390.085,267.178C389.583,267.468 388.823,267.499 388.389,267.248Z" style="fill:rgb(85,147,206);fill-rule:nonzero;"/>
        </g>
        <g transform="matrix(1,0,0,1,-68.0748,-19.007)">
            <path d="M273.643,229.208L257.69,219.997C257.255,219.746 257.31,219.308 257.812,219.018L263.179,215.919C263.681,215.629 264.441,215.598 264.876,215.849L280.829,225.06C281.264,225.311 281.209,225.749 280.707,226.039L275.34,229.138C274.837,229.428 274.078,229.459 273.643,229.208Z" style="fill:rgb(85,147,206);fill-rule:nonzero;"/>
        </g>
        <g transform="matrix(1,0,0,1,-68.0748,-19.007)">
            <path d="M376.41,288.541L360.457,279.33C360.022,279.079 360.077,278.641 360.579,278.351L365.946,275.252C366.448,274.962 367.208,274.931 367.644,275.182L383.596,284.392C384.031,284.643 383.977,285.082 383.475,285.371L378.107,288.471C377.604,288.76 376.846,288.792 376.41,288.541Z" style="fill:rgb(85,147,206);fill-rule:nonzero;"/>
        </g>
        <g transform="matrix(1,0,0,1,-68.0748,-19.007)">
            <path d="M342.957,279.895L337.54,276.767C337.105,276.516 337.16,276.077 337.662,275.787L344.056,272.096C344.558,271.806 345.317,271.775 345.753,272.026L351.169,275.154C351.604,275.405 351.55,275.843 351.048,276.133L344.654,279.824C344.151,280.115 343.392,280.146 342.957,279.895Z" style="fill:rgb(85,147,206);fill-rule:nonzero;"/>
        </g>
        <g transform="matrix(1,0,0,1,-68.0748,-19.007)">
            <path d="M282.209,244.823L273.546,239.821C273.112,239.57 273.166,239.131 273.668,238.841L280.062,235.15C280.564,234.86 281.324,234.828 281.759,235.079L290.422,240.08C290.857,240.332 290.802,240.771 290.3,241.061L283.906,244.752C283.404,245.041 282.645,245.073 282.209,244.823Z" style="fill:rgb(85,147,206);fill-rule:nonzero;"/>
        </g>
        <g transform="matrix(1,0,0,1,-68.0748,-19.007)">
            <path d="M334.897,275.241L326.234,270.24C325.8,269.989 325.854,269.55 326.356,269.26L332.75,265.569C333.252,265.279 334.012,265.247 334.446,265.498L343.109,270.5C343.544,270.751 343.49,271.19 342.987,271.48L336.594,275.171C336.092,275.461 335.332,275.492 334.897,275.241Z" style="fill:rgb(85,147,206);fill-rule:nonzero;"/>
        </g>
        <g transform="matrix(1,0,0,1,-68.0748,-19.007)">
            <path d="M294.279,251.79L285.616,246.788C285.181,246.537 285.235,246.099 285.737,245.809L292.131,242.117C292.633,241.827 293.393,241.796 293.828,242.047L302.491,247.049C302.926,247.3 302.871,247.739 302.369,248.029L295.976,251.72C295.473,252.01 294.713,252.041 294.279,251.79Z" style="fill:rgb(85,147,206);fill-rule:nonzero;"/>
        </g>
        <g transform="matrix(1,0,0,1,-68.0748,-19.007)">
            <path d="M293.887,242.081L331.551,263.826C332.018,264.096 332.018,264.533 331.551,264.803L325.03,268.568C324.563,268.837 323.806,268.837 323.338,268.568L285.674,246.823L293.887,242.081Z" style="fill:rgb(85,147,206);fill-rule:nonzero;"/>
        </g>
        <g transform="matrix(1,0,0,1,-68.0748,-19.007)">
            <path d="M366.336,288.652L372.37,292.135C372.727,292.341 372.682,292.7 372.271,292.938L369.654,294.448C369.243,294.686 368.62,294.711 368.264,294.505L362.23,291.022C361.874,290.816 361.918,290.456 362.33,290.219L364.945,288.709C365.357,288.471 365.979,288.446 366.336,288.652Z" style="fill:rgb(85,147,206);fill-rule:nonzero;"/>
        </g>
        <g transform="matrix(1,0,0,1,-68.0748,-19.007)">
            <path d="M357.901,283.781L363.936,287.265C364.292,287.471 364.247,287.83 363.836,288.069L361.22,289.578C360.809,289.816 360.186,289.842 359.829,289.636L353.796,286.153C353.439,285.947 353.483,285.587 353.896,285.349L356.511,283.839C356.923,283.602 357.545,283.575 357.901,283.781Z" style="fill:rgb(85,147,206);fill-rule:nonzero;"/>
        </g>
        <g transform="matrix(1,0,0,1,-68.0748,-19.007)">
            <path d="M349.537,278.952L355.57,282.436C355.927,282.642 355.882,283.001 355.471,283.239L352.855,284.748C352.443,284.987 351.82,285.012 351.464,284.806L345.431,281.323C345.074,281.116 345.119,280.757 345.53,280.52L348.146,279.01C348.558,278.772 349.18,278.746 349.537,278.952Z" style="fill:rgb(85,147,206);fill-rule:nonzero;"/>
        </g>
        <g transform="matrix(1,0,0,1,-68.0748,-19.007)">
            <path d="M362.521,281.115L368.555,284.598C368.911,284.804 368.866,285.163 368.455,285.402L365.84,286.911C365.428,287.149 364.806,287.175 364.448,286.969L358.415,283.486C358.059,283.28 358.104,282.92 358.515,282.682L361.13,281.172C361.542,280.935 362.165,280.908 362.521,281.115Z" style="fill:rgb(85,147,206);fill-rule:nonzero;"/>
        </g>
        <g transform="matrix(1,0,0,1,-68.0748,-19.007)">
            <path d="M395.564,186.876L350.506,160.862L351.085,157.933L396.144,183.948L395.564,186.876Z" style="fill:rgb(212,235,250);fill-rule:nonzero;"/>
        </g>
        <g transform="matrix(1,0,0,1,-68.0748,-19.007)">
            <path d="M379.427,191.82L347.974,173.659L348.553,170.731L380.006,188.89L379.427,191.82Z" style="fill:rgb(212,235,250);fill-rule:nonzero;"/>
        </g>
        <g transform="matrix(1,0,0,1,-68.0748,-19.007)">
            <path d="M376.45,182.971L349.239,167.261L349.819,164.331L377.03,180.041L376.45,182.971Z" style="fill:white;fill-rule:nonzero;"/>
        </g>
        <g transform="matrix(1,0,0,1,-68.0748,-19.007)">
            <path d="M394.298,193.276L380.692,185.42L381.272,182.491L394.878,190.346L394.298,193.276Z" style="fill:rgb(255,195,11);fill-rule:nonzero;"/>
        </g>
        <g transform="matrix(1,0,0,1,-68.0748,-19.007)">
            <path d="M345.707,135.305L332.102,127.45L332.682,124.521L346.287,132.376L345.707,135.305Z" style="fill:rgb(212,235,250);fill-rule:nonzero;"/>
        </g>
        <g transform="matrix(1,0,0,1,-68.0748,-19.007)">
            <path d="M344.23,142.113L330.626,134.257L331.205,131.328L344.811,139.183L344.23,142.113Z" style="fill:white;fill-rule:nonzero;"/>
        </g>
        <g transform="matrix(1,0,0,1,-68.0748,-19.007)">
            <path d="M411.008,236.535L397.402,228.681L397.982,225.751L411.588,233.607L411.008,236.535Z" style="fill:rgb(212,235,250);fill-rule:nonzero;"/>
        </g>
        <g transform="matrix(1,0,0,1,-68.0748,-19.007)">
            <path d="M341.278,155.728L327.673,147.872L328.253,144.944L341.857,152.798L341.278,155.728Z" style="fill:rgb(212,235,250);fill-rule:nonzero;"/>
        </g>
        <g transform="matrix(1,0,0,1,-68.0748,-19.007)">
            <path d="M370.675,157.836C370.241,158.782 369.146,159.119 368.229,158.59C367.312,158.06 366.919,156.865 367.353,155.918C367.786,154.973 368.881,154.635 369.799,155.165C370.716,155.695 371.108,156.891 370.675,157.836Z" style="fill:rgb(255,195,11);fill-rule:nonzero;"/>
        </g>
        <g transform="matrix(1,0,0,1,-68.0748,-19.007)">
            <path d="M376.535,161.22C376.102,162.165 375.006,162.503 374.089,161.973C373.171,161.444 372.779,160.247 373.213,159.302C373.646,158.356 374.741,158.019 375.659,158.548C376.576,159.078 376.969,160.274 376.535,161.22Z" style="fill:white;fill-rule:nonzero;"/>
        </g>
        <g transform="matrix(1,0,0,1,-68.0748,-19.007)">
            <path d="M382.396,164.604C381.962,165.549 380.866,165.886 379.949,165.357C379.031,164.827 378.64,163.631 379.073,162.685C379.507,161.74 380.602,161.402 381.519,161.932C382.437,162.461 382.829,163.657 382.396,164.604Z" style="fill:rgb(212,235,250);fill-rule:nonzero;"/>
        </g>
        <g transform="matrix(1,0,0,1,-68.0748,-19.007)">
            <path d="M388.255,167.987C387.821,168.933 386.727,169.27 385.81,168.74C384.892,168.21 384.499,167.014 384.933,166.069C385.366,165.122 386.462,164.785 387.379,165.315C388.297,165.845 388.688,167.041 388.255,167.987Z" style="fill:rgb(255,195,11);fill-rule:nonzero;"/>
        </g>
        <g transform="matrix(1,0,0,1,-68.0748,-19.007)">
            <path d="M319.538,135.118L291.743,119.075C291.192,118.758 290.641,118.746 290.164,118.96L290.17,118.943L286.856,120.499C286.856,120.499 288.101,120.935 288.831,121.192L284.82,141.427C284.494,143.073 285.23,144.986 286.465,145.698L313.032,161.032L312.562,163.406L315.908,161.838L315.893,161.833C316.461,161.553 316.912,160.937 317.088,160.051L321.184,139.39C321.51,137.743 320.773,135.831 319.538,135.118Z" style="fill:rgb(255,160,12);fill-rule:nonzero;"/>
        </g>
        <g transform="matrix(1,0,0,1,-68.0748,-19.007)">
            <path d="M310.888,163.323L283.092,147.281C281.857,146.568 281.12,144.656 281.446,143.009L285.542,122.348C285.868,120.701 287.134,119.945 288.369,120.657L316.165,136.7C317.399,137.413 318.137,139.325 317.811,140.972L313.715,161.633C313.389,163.28 312.122,164.036 310.888,163.323Z" style="fill:rgb(255,195,11);fill-rule:nonzero;"/>
        </g>
        <g transform="matrix(1,0,0,1,-68.0748,-19.007)">
            <path d="M294.92,140.16C294.683,141.357 293.651,141.841 292.616,141.243C291.58,140.645 290.932,139.192 291.169,137.995C291.406,136.8 292.438,136.316 293.474,136.913C294.509,137.511 295.157,138.965 294.92,140.16Z" style="fill:white;fill-rule:nonzero;"/>
        </g>
        <g transform="matrix(1,0,0,1,-68.0748,-19.007)">
            <path d="M300.602,143.44C300.364,144.635 299.333,145.12 298.297,144.522C297.261,143.924 296.614,142.471 296.851,141.275C297.087,140.079 298.119,139.595 299.155,140.193C300.191,140.79 300.838,142.244 300.602,143.44Z" style="fill:white;fill-rule:nonzero;"/>
        </g>
        <g transform="matrix(1,0,0,1,-68.0748,-19.007)">
            <path d="M306.283,146.719C306.046,147.914 305.014,148.399 303.979,147.801C302.942,147.203 302.295,145.749 302.532,144.554C302.769,143.359 303.801,142.874 304.837,143.472C305.872,144.07 306.52,145.524 306.283,146.719Z" style="fill:white;fill-rule:nonzero;"/>
        </g>
        <g transform="matrix(1,0,0,1,-68.0748,-19.007)">
            <path d="M307.06,109.14L279.264,93.098C278.714,92.78 278.163,92.768 277.686,92.982L277.692,92.965L274.378,94.522C274.378,94.522 275.623,94.957 276.353,95.214L272.341,115.448C272.015,117.095 272.752,119.007 273.987,119.72L300.554,135.054L300.083,137.428L303.43,135.86L303.414,135.855C303.982,135.574 304.434,134.958 304.609,134.073L308.705,113.411C309.031,111.765 308.295,109.853 307.06,109.14Z" style="fill:rgb(85,147,206);fill-rule:nonzero;"/>
        </g>
        <g transform="matrix(1,0,0,1,-68.0748,-19.007)">
            <path d="M298.409,137.345L270.614,121.302C269.378,120.589 268.642,118.677 268.968,117.031L273.064,96.37C273.39,94.723 274.656,93.967 275.891,94.68L303.687,110.722C304.922,111.435 305.658,113.347 305.332,114.993L301.236,135.655C300.91,137.301 299.644,138.058 298.409,137.345Z" style="fill:rgb(212,235,250);fill-rule:nonzero;"/>
        </g>
        <g transform="matrix(1,0,0,1,-68.0748,-19.007)">
            <path d="M282.442,114.183C282.205,115.378 281.173,115.863 280.137,115.265C279.102,114.667 278.454,113.213 278.691,112.018C278.928,110.823 279.959,110.337 280.996,110.935C282.031,111.533 282.679,112.987 282.442,114.183Z" style="fill:white;fill-rule:nonzero;"/>
        </g>
        <g transform="matrix(1,0,0,1,-68.0748,-19.007)">
            <path d="M288.123,117.461C287.886,118.657 286.854,119.142 285.819,118.544C284.783,117.947 284.135,116.492 284.373,115.297C284.609,114.101 285.641,113.616 286.677,114.214C287.712,114.812 288.36,116.266 288.123,117.461Z" style="fill:white;fill-rule:nonzero;"/>
        </g>
        <g transform="matrix(1,0,0,1,-68.0748,-19.007)">
            <path d="M293.805,120.74C293.567,121.937 292.536,122.421 291.5,121.823C290.464,121.225 289.817,119.772 290.054,118.575C290.291,117.38 291.322,116.896 292.358,117.493C293.394,118.091 294.042,119.545 293.805,120.74Z" style="fill:white;fill-rule:nonzero;"/>
        </g>
    </g>
</svg>
