<?xml version="1.0" encoding="UTF-8" standalone="no"?><!DOCTYPE svg PUBLIC "-//W3C//DTD SVG 1.1//EN" "http://www.w3.org/Graphics/SVG/1.1/DTD/svg11.dtd"><svg width="100%" height="100%" viewBox="0 0 1476 1214" version="1.1" xmlns="http://www.w3.org/2000/svg" xmlns:xlink="http://www.w3.org/1999/xlink" xml:space="preserve" xmlns:serif="http://www.serif.com/" style="fill-rule:evenodd;clip-rule:evenodd;stroke-linejoin:round;stroke-miterlimit:2;"><path d="M1474.2,817.719l-77.796,-43.55c-17.45,-9.767 -32.796,-31.28 -38.183,-53.525l-67.371,-278.35c-7.963,-32.913 -34.425,-56.65 -53.192,-57.375c-9.396,-0.38 -16.121,4.77 -19.396,14.841l-20.296,62.379c-2.345,7.217 -6.774,12.25 -12.8,14.563c-7.266,2.796 -16.42,1.354 -25.775,-4.054l-14.045,-8.109c-16.517,-9.529 -31,-29.383 -36.9,-50.57c-8.871,-31.85 -33.517,-53.196 -51.263,-54.705c-8.791,-0.779 -15.483,3.217 -19.371,11.45l-22.275,47.2c-2.729,5.792 -7.091,9.763 -12.612,11.488c-7.042,2.212 -15.775,0.625 -24.588,-4.467l-16.079,-9.279c-17.641,-10.187 -32.862,-32.079 -37.879,-54.475l-67.321,-300.675c-7.387,-32.983 -33.762,-57.358 -52.821,-58.604c-9.337,-0.55 -16.183,4.158 -19.708,13.8l-109.333,298.758c-2.48,6.775 -6.892,11.479 -12.763,13.613c-7.212,2.629 -16.25,1.137 -25.446,-4.179l-55.291,-31.921l0.929,-1.604l55.287,31.925c8.713,5.02 17.2,6.466 23.888,4.033c5.337,-1.938 9.371,-6.263 11.65,-12.504l109.337,-298.758c3.784,-10.342 11.413,-15.655 21.571,-15.013c19.713,1.287 46.95,26.262 54.513,60.046l67.325,300.675c4.829,21.579 20.037,43.487 36.991,53.275l16.08,9.279c8.35,4.825 16.558,6.367 23.104,4.304c5.012,-1.567 8.983,-5.2 11.491,-10.504l22.271,-47.2c4.188,-8.875 11.704,-13.329 21.204,-12.513c18.367,1.559 43.813,23.438 52.9,56.059c5.684,20.421 20.167,40.3 36.034,49.458l14.046,8.113c8.862,5.112 17.445,6.512 24.187,3.925c5.483,-2.105 9.529,-6.742 11.696,-13.409l20.3,-62.379c3.504,-10.783 11.104,-16.437 21.225,-16.117c19.842,0.767 46.65,24.571 54.933,58.788l67.367,278.35c5.275,21.779 20.258,42.817 37.283,52.35l77.796,43.55l-0.904,1.617Z" style="fill:#6bcacd;fill-rule:nonzero;"/><path d="M1415.16,851.648l-77.792,-43.55c-17.454,-9.775 -32.8,-31.288 -38.184,-53.529l-67.374,-278.346c-7.963,-32.913 -34.426,-56.65 -53.188,-57.375c-9.458,-0.334 -16.121,4.771 -19.4,14.837l-20.292,62.379c-2.345,7.221 -6.775,12.255 -12.795,14.563c-7.28,2.796 -16.43,1.358 -25.784,-4.05l-14.046,-8.104c-16.266,-9.392 -31.091,-29.717 -36.9,-50.571c-8.866,-31.858 -33.512,-53.204 -51.262,-54.708c-8.784,-0.767 -15.479,3.212 -19.367,11.45l-22.279,47.2c-2.729,5.791 -7.087,9.762 -12.608,11.487c-7.046,2.213 -15.779,0.621 -24.592,-4.467l-16.075,-9.279c-17.638,-10.183 -32.863,-32.075 -37.883,-54.471l-67.317,-300.679c-7.383,-32.983 -33.767,-57.358 -52.825,-58.604c-9.321,-0.541 -16.179,4.163 -19.708,13.796l-109.334,298.762c-2.479,6.775 -6.891,11.484 -12.762,13.613c-7.204,2.621 -16.246,1.137 -25.442,-4.183l-55.296,-31.917l0.93,-1.604l55.291,31.916c8.713,5.034 17.183,6.459 23.888,4.046c5.333,-1.937 9.366,-6.262 11.65,-12.508l109.333,-298.758c3.788,-10.35 11.496,-15.684 21.571,-15.017c19.717,1.292 46.954,26.271 54.521,60.05l67.316,300.679c4.834,21.583 20.046,43.488 36.996,53.267l16.075,9.283c8.354,4.825 16.567,6.35 23.109,4.304c5.012,-1.566 8.983,-5.2 11.487,-10.508l22.275,-47.2c4.183,-8.871 11.725,-13.296 21.204,-12.513c18.367,1.563 43.813,23.442 52.896,56.063c5.683,20.421 20.167,40.296 36.033,49.467l14.046,8.1c8.863,5.116 17.459,6.504 24.192,3.929c5.483,-2.104 9.529,-6.742 11.696,-13.409l20.295,-62.379c3.509,-10.783 11.151,-16.508 21.23,-16.116c19.837,0.762 46.645,24.57 54.929,58.787l67.375,278.35c5.271,21.771 20.246,42.808 37.279,52.346l77.792,43.55l-0.904,1.621Z" style="fill:#6bcacd;fill-rule:nonzero;"/><path d="M734.121,38.285l-0.929,-1.608l59.521,-34.217l0.929,1.613l-59.521,34.212Z" style="fill:#6bcacd;fill-rule:nonzero;"/><path d="M985.212,396.498l-0.929,-1.613l60.221,-34.712l0.929,1.612l-60.221,34.713Z" style="fill:#6bcacd;fill-rule:nonzero;"/><path d="M1166.74,422.289l-0.929,-1.612l62.767,-36.017l0.929,1.613l-62.767,36.016Z" style="fill:#6bcacd;fill-rule:nonzero;"/><path d="M1474.2,817.719l-77.796,-43.55c-17.45,-9.767 -32.796,-31.28 -38.183,-53.525l-67.371,-278.35c-7.963,-32.913 -34.425,-56.65 -53.192,-57.375c-9.396,-0.38 -16.121,4.77 -19.396,14.841l-20.296,62.379c-2.345,7.217 -6.774,12.25 -12.8,14.563c-7.266,2.796 -16.42,1.354 -25.775,-4.054l-14.045,-8.109c-16.517,-9.529 -31,-29.383 -36.9,-50.57c-8.871,-31.85 -33.517,-53.196 -51.263,-54.705c-8.791,-0.779 -15.483,3.217 -19.371,11.45l-22.275,47.2c-2.729,5.792 -7.091,9.763 -12.612,11.488c-7.042,2.212 -15.775,0.625 -24.588,-4.467l-16.079,-9.279c-17.641,-10.187 -32.862,-32.079 -37.879,-54.475l-67.321,-300.675c-7.387,-32.983 -33.762,-57.358 -52.821,-58.604c-9.337,-0.55 -16.183,4.158 -19.708,13.8l-109.333,298.758c-2.48,6.775 -6.892,11.479 -12.763,13.613c-7.212,2.629 -16.25,1.137 -25.446,-4.179l-55.291,-31.921l0.929,-1.604l55.287,31.925c8.713,5.02 17.2,6.466 23.888,4.033c5.337,-1.938 9.371,-6.263 11.65,-12.504l109.337,-298.758c3.784,-10.342 11.413,-15.655 21.571,-15.013c19.713,1.287 46.95,26.262 54.513,60.046l67.325,300.675c4.829,21.579 20.037,43.487 36.991,53.275l16.08,9.279c8.35,4.825 16.558,6.367 23.104,4.304c5.012,-1.567 8.983,-5.2 11.491,-10.504l22.271,-47.2c4.188,-8.875 11.704,-13.329 21.204,-12.513c18.367,1.559 43.813,23.438 52.9,56.059c5.684,20.421 20.167,40.3 36.034,49.458l14.046,8.113c8.862,5.112 17.445,6.512 24.187,3.925c5.483,-2.105 9.529,-6.742 11.696,-13.409l20.3,-62.379c3.504,-10.783 11.104,-16.437 21.225,-16.117c19.842,0.767 46.65,24.571 54.933,58.788l67.367,278.35c5.275,21.779 20.258,42.817 37.283,52.35l77.796,43.55l-0.904,1.617Z" style="fill:#6bcacd;fill-rule:nonzero;"/><path d="M1415.16,851.648l-77.792,-43.55c-17.454,-9.775 -32.8,-31.288 -38.184,-53.529l-67.374,-278.346c-7.963,-32.913 -34.426,-56.65 -53.188,-57.375c-9.458,-0.334 -16.121,4.771 -19.4,14.837l-20.292,62.379c-2.345,7.221 -6.775,12.255 -12.795,14.563c-7.28,2.796 -16.43,1.358 -25.784,-4.05l-14.046,-8.104c-16.266,-9.392 -31.091,-29.717 -36.9,-50.571c-8.866,-31.858 -33.512,-53.204 -51.262,-54.708c-8.784,-0.767 -15.479,3.212 -19.367,11.45l-22.279,47.2c-2.729,5.791 -7.087,9.762 -12.608,11.487c-7.046,2.213 -15.779,0.621 -24.592,-4.467l-16.075,-9.279c-17.638,-10.183 -32.863,-32.075 -37.883,-54.471l-67.317,-300.679c-7.383,-32.983 -33.767,-57.358 -52.825,-58.604c-9.321,-0.541 -16.179,4.163 -19.708,13.796l-109.334,298.762c-2.479,6.775 -6.891,11.484 -12.762,13.613c-7.204,2.621 -16.246,1.137 -25.442,-4.183l-55.296,-31.917l0.93,-1.604l55.291,31.916c8.713,5.034 17.183,6.459 23.888,4.046c5.333,-1.937 9.366,-6.262 11.65,-12.508l109.333,-298.758c3.788,-10.35 11.496,-15.684 21.571,-15.017c19.717,1.292 46.954,26.271 54.521,60.05l67.316,300.679c4.834,21.583 20.046,43.488 36.996,53.267l16.075,9.283c8.354,4.825 16.567,6.35 23.109,4.304c5.012,-1.566 8.983,-5.2 11.487,-10.508l22.275,-47.2c4.183,-8.871 11.725,-13.296 21.204,-12.513c18.367,1.563 43.813,23.442 52.896,56.063c5.683,20.421 20.167,40.296 36.033,49.467l14.046,8.1c8.863,5.116 17.459,6.504 24.192,3.929c5.483,-2.104 9.529,-6.742 11.696,-13.409l20.295,-62.379c3.509,-10.783 11.151,-16.508 21.23,-16.116c19.837,0.762 46.645,24.57 54.929,58.787l67.375,278.35c5.271,21.771 20.246,42.808 37.279,52.346l77.792,43.55l-0.904,1.621Z" style="fill:#6bcacd;fill-rule:nonzero;"/><clipPath id="_clip1"><path d="M1438.33,795.519l-41.029,-22.967c-3.433,-1.925 -6.787,-4.317 -9.992,-7.088l51.021,30.055Z"/></clipPath><g clip-path="url(#_clip1)"><rect x="1387.31" y="765.464" width="51.021" height="30.054" style="fill:#808080;fill-opacity:0;"/></g><path d="M1474.65,816.91l-77.796,-43.55c-4.604,-2.579 -9.079,-6.016 -13.262,-10.087l3.72,2.191c3.205,2.771 6.559,5.163 9.992,7.088l41.029,22.967l36.317,21.391Z" style="fill:url(#_Linear2);"/><clipPath id="_clip3"><path d="M1380.42,761.402l-90.575,-53.354l-56.221,-232.267c-4.479,-18.5 -14.375,-33.962 -25.658,-44.379l10.295,-31.642c1.596,-4.9 4.004,-8.633 7.138,-11.133l4.108,-2.354l-0.025,-0.042c2.171,-0.883 4.579,-1.329 7.208,-1.329c0.317,-0 0.642,0.004 0.967,0.017c18.767,0.725 45.229,24.462 53.192,57.375l67.371,278.35c3.65,15.058 11.862,29.787 22.2,40.758Z"/></clipPath><g clip-path="url(#_clip3)"><rect x="1207.96" y="384.902" width="172.454" height="376.5" style="fill:#808080;fill-opacity:0;"/></g><path d="M1225.4,388.627c1.25,-0.996 2.612,-1.796 4.083,-2.396l0.025,0.042l-4.108,2.354Z" style="fill:url(#_Linear4);"/><path d="M1383.59,763.273l-3.175,-1.871c-10.338,-10.971 -18.55,-25.7 -22.2,-40.758l-67.371,-278.35c-7.963,-32.913 -34.425,-56.65 -53.192,-57.375c-0.325,-0.013 -0.65,-0.017 -0.967,-0.017c-2.629,-0 -5.037,0.446 -7.208,1.329c-1.471,0.6 -2.833,1.4 -4.083,2.396c-3.134,2.5 -5.542,6.233 -7.138,11.133l-10.295,31.642c-0.251,-0.229 -0.501,-0.458 -0.751,-0.688l10.167,-31.241c3.496,-10.763 10.713,-15.496 19.375,-15.496c19.679,-0 46.846,24.421 54.996,58.096l67.371,278.35c3.875,15.996 13.096,31.775 24.471,42.85Z" style="fill:url(#_Linear5);"/><path d="M1289.84,708.048l-0.875,-0.517l-56.25,-232.387c-4.396,-18.163 -14.33,-33.638 -25.634,-44.038l0.129,-0.392c0.25,0.23 0.5,0.459 0.751,0.688c11.283,10.417 21.179,25.879 25.658,44.379l56.221,232.267Z" style="fill:url(#_Linear6);"/><clipPath id="_clip7"><path d="M1118.3,510.164c-5.229,0 -11.063,-1.758 -17.017,-5.195l-2.187,-1.263l-0,-111.671c3.875,6.546 7.112,13.909 9.35,21.934c5.9,21.187 20.383,41.041 36.9,50.57l1.595,0.921l-9.77,30.029c-2.167,6.667 -6.213,11.305 -11.696,13.409c-2.208,0.846 -4.621,1.266 -7.175,1.266Z"/></clipPath><g clip-path="url(#_clip7)"><rect x="1099.09" y="392.035" width="47.846" height="118.129" style="fill:#808080;fill-opacity:0;"/></g><path d="M1146.94,465.46l-1.595,-0.921c-16.517,-9.529 -31,-29.383 -36.9,-50.57c-2.238,-8.025 -5.475,-15.388 -9.35,-21.934l-0,-1.708c4.312,7 7.875,14.883 10.245,23.396c5.788,20.787 20.288,40.675 36.467,50.012l1.425,0.825l-0.292,0.9Z" style="fill:url(#_Linear8);"/><path d="M1118.27,510.244c-5.3,-0 -11.246,-1.742 -17.454,-5.325l-1.725,-0.996l-0,-0.217l2.187,1.263c5.954,3.437 11.788,5.195 17.017,5.195c2.554,0 4.967,-0.42 7.175,-1.266c5.483,-2.104 9.529,-6.742 11.696,-13.409l9.77,-30.029l0.292,-0.9l0.588,0.338l-9.767,30.021c-3.263,10.033 -10.538,15.325 -19.779,15.325Z" style="fill:url(#_Linear9);"/><clipPath id="_clip10"><path d="M864.492,382.802l-64.65,-288.775c-4.305,-19.217 -14.979,-35.592 -27.013,-46.371l11.696,-31.954c3.342,-9.138 9.663,-13.842 18.263,-13.842c0.474,0 0.958,0.013 1.445,0.042c19.059,1.246 45.434,25.621 52.821,58.604l48.188,215.217c-14.596,11.437 -25.767,34.716 -25.767,55.016l0,49.28l-0.721,0.004c-4.929,0.021 -9.771,0.979 -14.262,2.779Z"/></clipPath><g clip-path="url(#_clip10)"><rect x="772.829" y="1.86" width="132.412" height="380.942" style="fill:#808080;fill-opacity:0;"/></g><path d="M905.242,275.723l-48.188,-215.217c-7.387,-32.983 -33.762,-57.358 -52.821,-58.604c-0.487,-0.029 -0.971,-0.042 -1.445,-0.042c-8.6,0 -14.921,4.704 -18.263,13.842l-11.696,31.954c-0.25,-0.225 -0.496,-0.441 -0.746,-0.658l11.571,-31.617c3.675,-10.042 10.692,-14.458 19.038,-14.458c20.004,-0 47.654,25.367 55.271,59.379l48.091,214.8c-0.271,0.204 -0.542,0.408 -0.812,0.621Z" style="fill:url(#_Linear11);"/><path d="M863.796,383.089l-64.863,-289.716c-4.283,-19.117 -14.891,-35.5 -26.916,-46.188l0.066,-0.187c0.25,0.217 0.496,0.433 0.746,0.658c12.034,10.779 22.708,27.154 27.013,46.371l64.65,288.775c-0.234,0.092 -0.467,0.187 -0.696,0.287Z" style="fill:url(#_Linear12);"/><path d="M625.729,316.839l-43.575,-25.666l43.729,25.246l-0.154,0.42Z" style="fill:url(#_Linear13);"/><path d="M626.283,317.164l-0.554,-0.325l0.154,-0.42l0.555,0.32l-0.155,0.425Z" style="fill:url(#_Linear14);"/><clipPath id="_clip15"><path d="M1408.51,845.802l-70.237,-39.325c-4.404,-2.463 -8.662,-5.696 -12.654,-9.508l82.891,48.833Z"/></clipPath><g clip-path="url(#_clip15)"><rect x="1325.62" y="796.969" width="82.892" height="48.833" style="fill:#808080;fill-opacity:0;"/></g><path d="M1415.62,849.985l-77.796,-43.558c-4.6,-2.575 -9.071,-6.008 -13.25,-10.075l1.05,0.617c3.992,3.812 8.25,7.045 12.654,9.508l70.237,39.325l7.105,4.183Z" style="fill:url(#_Linear16);"/><clipPath id="_clip17"><path d="M1319.7,793.481l-220.608,-129.954l-0,-67.846l188.516,111.05l11.579,47.838c3.446,14.233 10.967,28.162 20.513,38.912Zm-471.521,-277.762l-50.054,-29.484c20.442,-6.608 47.833,-16.929 47.833,-16.929c1.446,7.246 2.384,25.979 2.221,46.413Zm-100.296,-59.08l-160.983,-94.829c3.112,0.967 6.138,1.459 9.008,1.459c2.65,-0 5.163,-0.421 7.488,-1.267c5.871,-2.129 10.283,-6.838 12.762,-13.613l11.034,-30.145l9.791,5.65c1.684,0.975 3.367,1.82 5.034,2.537l164.87,97.125c-23.499,12.921 -56.962,31.5 -56.962,31.5l-2.042,1.583Z"/></clipPath><g clip-path="url(#_clip17)"><rect x="586.9" y="318.244" width="732.8" height="475.238" style="fill:#808080;fill-opacity:0;"/></g><path d="M642.017,326.431c-1.667,-0.717 -3.35,-1.562 -5.034,-2.537l-9.791,-5.65l0.162,-0.446l14.663,8.633Z" style="fill:url(#_Linear18);"/><clipPath id="_clip19"><path d="M523.492,324.456l-0.371,-0.217l0.375,0.217l-0.004,0Z"/></clipPath><g clip-path="url(#_clip19)"><rect x="523.121" y="324.239" width="0.375" height="0.217" style="fill:#808080;fill-opacity:0;"/></g><path d="M1324.57,796.352l-4.871,-2.871c-9.546,-10.75 -17.067,-24.679 -20.513,-38.912l-11.579,-47.838l1.359,0.8l11.125,45.958c3.87,16.005 13.1,31.788 24.479,42.863Zm-728.663,-433.083c-2.87,-0 -5.896,-0.492 -9.008,-1.459l-63.408,-37.354l0.004,0l54.921,31.709c6.2,3.579 12.15,5.32 17.454,5.32c8.9,0 15.987,-4.904 19.417,-14.271l10.995,-30.05l1.071,0.634l-0.162,0.446l-11.034,30.145c-2.479,6.775 -6.891,11.484 -12.762,13.613c-2.325,0.846 -4.838,1.267 -7.488,1.267Z" style="fill:url(#_Linear20);"/><clipPath id="_clip21"><path d="M1177.32,476.235c-5.225,0 -11.054,-1.758 -17.008,-5.191l-11.146,-6.438l10.058,-30.921c1.658,-5.096 4.187,-8.921 7.504,-11.408l0.008,0.012l3.638,-2.087c2.212,-0.908 4.679,-1.371 7.387,-1.371c0.284,0 0.571,0.008 0.863,0.017c8.3,0.321 18.104,5.142 27.15,13.275l-9.579,29.437c-2.167,6.667 -6.213,11.304 -11.696,13.409c-2.213,0.85 -4.625,1.266 -7.179,1.266Z"/></clipPath><g clip-path="url(#_clip21)"><rect x="1149.17" y="418.831" width="56.608" height="57.404" style="fill:#808080;fill-opacity:0;"/></g><path d="M1166.74,422.289l-0.008,-0.012c1.125,-0.846 2.342,-1.538 3.646,-2.075l-3.638,2.087Z" style="fill:url(#_Linear22);"/><path d="M1177.3,477.173c-5.296,-0 -11.246,-1.742 -17.45,-5.325l-10.975,-6.338l0.292,-0.904l11.146,6.438c5.954,3.433 11.783,5.191 17.008,5.191c2.554,0 4.966,-0.416 7.179,-1.266c5.483,-2.105 9.529,-6.742 11.696,-13.409l9.579,-29.437c0.254,0.225 0.504,0.454 0.754,0.683l-9.45,29.042c-3.262,10.033 -10.537,15.325 -19.779,15.325Z" style="fill:url(#_Linear23);"/><path d="M1148.88,465.51l-1.058,-0.612l10.529,-32.359c3.5,-10.758 10.712,-15.495 19.375,-15.495c9.062,-0 19.712,5.179 29.362,14.062l-0.554,1.7c-0.25,-0.229 -0.5,-0.458 -0.754,-0.683c-9.046,-8.133 -18.85,-12.954 -27.15,-13.275c-0.292,-0.009 -0.579,-0.017 -0.863,-0.017c-2.708,0 -5.175,0.463 -7.387,1.371c-1.304,0.537 -2.521,1.229 -3.646,2.075c-3.317,2.487 -5.846,6.312 -7.504,11.408l-10.058,30.921l-0.292,0.904Z" style="fill:url(#_Linear24);"/><clipPath id="_clip25"><path d="M654.929,327.481c-5.233,0 -11.075,-1.762 -17.021,-5.187l-10.071,-5.817l97.655,-266.85c3.345,-9.138 9.687,-13.837 18.283,-13.837c0.467,-0 0.946,0.012 1.425,0.041c7.862,0.513 16.967,4.963 25.471,12.325l-97.225,265.667c-2.279,6.241 -6.313,10.566 -11.65,12.504c-2.125,0.771 -4.429,1.154 -6.867,1.154Z"/></clipPath><g clip-path="url(#_clip25)"><rect x="627.837" y="35.79" width="142.833" height="291.692" style="fill:#808080;fill-opacity:0;"/></g><path d="M654.9,328.414c-5.304,0 -11.254,-1.741 -17.454,-5.32l-9.934,-5.734l0.325,-0.883l10.071,5.817c5.946,3.425 11.788,5.187 17.021,5.187c2.438,0 4.742,-0.383 6.867,-1.154c5.337,-1.938 9.371,-6.263 11.65,-12.504l97.225,-265.667c0.25,0.217 0.5,0.433 0.75,0.654l-97.1,265.334c-3.429,9.366 -10.517,14.27 -19.421,14.27Z" style="fill:url(#_Linear26);"/><path d="M627.512,317.36l-1.074,-0.621l98.183,-268.287c3.675,-10.042 10.692,-14.458 19.033,-14.458c8.763,-0 18.992,4.866 28.363,13.191l-0.596,1.625c-0.25,-0.221 -0.5,-0.437 -0.75,-0.654c-8.504,-7.362 -17.609,-11.812 -25.471,-12.325c-0.479,-0.029 -0.958,-0.041 -1.425,-0.041c-8.596,-0 -14.938,4.699 -18.283,13.837l-97.655,266.85l-0.325,0.883Z" style="fill:url(#_Linear27);"/><clipPath id="_clip28"><path d="M1287.61,706.731l-188.516,-111.05l-0,-89.833l1.262,0.729c6.233,3.604 12.379,5.446 17.938,5.446c2.783,-0 5.421,-0.463 7.846,-1.396c6.02,-2.308 10.45,-7.342 12.795,-14.563l9.65,-29.654l10.804,6.238c6.234,3.604 12.38,5.446 17.938,5.446c2.779,-0 5.417,-0.463 7.837,-1.392c6.026,-2.313 10.455,-7.346 12.8,-14.563l9.317,-28.629c10.788,10.234 20.292,25.171 24.534,42.713l55.795,230.508Zm-480.721,-283.175l-164.87,-97.125c4.483,1.929 8.854,2.908 12.912,2.908c2.65,0 5.171,-0.42 7.5,-1.266c5.871,-2.134 10.283,-6.838 12.763,-13.613l96.971,-264.979c11.512,10.521 21.7,26.371 25.862,44.954l64.729,289.113c-4.296,1.971 -8.225,4.733 -11.558,8.208c-7.379,7.696 -17.704,17.313 -27.654,22.692c-4.075,2.204 -9.963,5.425 -16.655,9.108Z"/></clipPath><g clip-path="url(#_clip28)"><rect x="642.017" y="49.481" width="645.592" height="657.25" style="fill:#808080;fill-opacity:0;"/></g><clipPath id="_clip29"><path d="M1177.33,478.094c-5.558,-0 -11.704,-1.842 -17.938,-5.446l-10.804,-6.238l0.292,-0.9l10.975,6.338c6.204,3.583 12.154,5.325 17.45,5.325c9.242,-0 16.517,-5.292 19.779,-15.325l9.45,-29.042c0.25,0.233 0.5,0.467 0.75,0.704l-9.317,28.629c-2.345,7.217 -6.774,12.25 -12.8,14.563c-2.42,0.929 -5.058,1.392 -7.837,1.392Zm-522.396,-148.755c-4.058,0 -8.429,-0.979 -12.912,-2.908l-14.663,-8.633l0.158,-0.438l9.934,5.734c6.2,3.579 12.15,5.32 17.454,5.32c8.904,0 15.992,-4.904 19.421,-14.27l97.1,-265.334c0.246,0.221 0.496,0.446 0.742,0.671l-96.971,264.979c-2.48,6.775 -6.892,11.479 -12.763,13.613c-2.329,0.846 -4.85,1.266 -7.5,1.266Z"/></clipPath><g clip-path="url(#_clip29)"><rect x="627.354" y="48.81" width="579.925" height="429.283" style="fill:#808080;fill-opacity:0;"/></g><clipPath id="_clip30"><path d="M1288.97,707.531l-1.359,-0.8l-55.795,-230.508c-4.242,-17.542 -13.746,-32.479 -24.534,-42.713c-0.25,-0.237 -0.5,-0.471 -0.75,-0.704l0.554,-1.7c11.304,10.4 21.238,25.875 25.634,44.038l56.25,232.387Zm-170.675,-195.508c-5.559,-0 -11.705,-1.842 -17.938,-5.446l-1.262,-0.729l-0,-1.925l1.725,0.996c6.208,3.583 12.154,5.325 17.454,5.325c9.241,-0 16.516,-5.292 19.779,-15.325l9.767,-30.021l1.058,0.612l-0.292,0.9l-9.65,29.654c-2.345,7.221 -6.775,12.255 -12.795,14.563c-2.425,0.933 -5.063,1.396 -7.846,1.396Zm-255.538,-128.475l-64.729,-289.113c-4.162,-18.583 -14.35,-34.433 -25.862,-44.954c-0.246,-0.225 -0.496,-0.45 -0.742,-0.671l0.596,-1.625c12.025,10.688 22.633,27.071 26.916,46.188l64.863,289.716c-0.35,0.146 -0.696,0.3 -1.042,0.459Zm-235.4,-65.75l-1.071,-0.634l0.155,-0.425l1.074,0.621l-0.158,0.438Z"/></clipPath><g clip-path="url(#_clip30)"><rect x="626.283" y="47.185" width="662.683" height="660.346" style="fill:#808080;fill-opacity:0;"/></g><path d="M873.054,1088.96c13.813,7.971 30.963,7.95 44.763,-0.062l298.825,-173.496c4.941,-2.875 7.891,-8.004 7.883,-13.725c-0.008,-5.721 -2.967,-10.846 -7.921,-13.704l-545.971,-315.117l-321.191,186.487c-4.946,2.871 -7.896,8.005 -7.888,13.726c0.009,5.72 2.971,10.837 7.925,13.699l523.575,302.192Zm22.329,7.704c-8.02,0 -16.037,-2.062 -23.2,-6.2l-523.575,-302.191c-5.5,-3.171 -8.787,-8.855 -8.796,-15.2c-0.008,-6.355 3.263,-12.046 8.759,-15.238l322.062,-186.992l0.434,0.255l546.408,315.37c5.496,3.171 8.783,8.855 8.792,15.209c0.008,6.346 -3.263,12.041 -8.754,15.229l-298.826,173.5c-7.183,4.171 -15.241,6.258 -23.304,6.258Z" style="fill:#6bcacd;fill-rule:nonzero;"/><path d="M934.692,948.244c-0,7.916 -6.417,14.329 -14.334,14.329c-7.912,-0 -14.329,-6.413 -14.329,-14.329c0,-7.917 6.417,-14.33 14.329,-14.33c7.917,0 14.334,6.413 14.334,14.33Z" style="fill:#282567;fill-rule:nonzero;"/><path d="M1075.83,788.148c-0,7.912 -6.417,14.325 -14.333,14.325c-7.913,-0 -14.329,-6.413 -14.329,-14.325c-0,-7.917 6.416,-14.334 14.329,-14.334c7.916,0 14.333,6.417 14.333,14.334Z" style="fill:#282567;fill-rule:nonzero;"/><path d="M1106.66,897.56c0,7.913 -6.416,14.329 -14.329,14.329c-7.916,0 -14.333,-6.416 -14.333,-14.329c-0,-7.916 6.417,-14.333 14.333,-14.333c7.913,-0 14.329,6.417 14.329,14.333Z" style="fill:#282567;fill-rule:nonzero;"/><path d="M797.029,870.548c0,7.916 -6.416,14.333 -14.333,14.333c-7.913,0 -14.329,-6.417 -14.329,-14.333c-0,-7.913 6.416,-14.329 14.329,-14.329c7.917,-0 14.333,6.416 14.333,14.329Z" style="fill:#282567;fill-rule:nonzero;"/><path d="M885.617,773.739c-0,7.913 -6.417,14.33 -14.329,14.33c-7.917,-0 -14.334,-6.417 -14.334,-14.33c0,-7.916 6.417,-14.333 14.334,-14.333c7.912,0 14.329,6.417 14.329,14.333Z" style="fill:#282567;fill-rule:nonzero;"/><path d="M793.254,868.552c0.829,-0.896 1.583,-1.733 2.279,-2.525l2.709,1.562l-1.463,0.284l-3.525,0.679Z" style="fill:url(#_Linear31);"/><path d="M1072.66,772.769l-4.791,4.041c-4.13,-1.791 -10.455,-1.383 -14.763,1.109l-112.204,48.833l15.704,9.071l112.204,-48.842c2.634,-1.517 3.892,-3.471 3.8,-5.312l0.05,0.02l0,-8.92Z" style="fill:url(#_Linear32);"/><path d="M881.912,761.869c-2.787,-3.159 -9.474,-4.409 -14.941,-2.805c-0.646,0.192 -1.246,0.421 -1.8,0.667c-0.263,-0.429 -0.575,-0.879 -0.967,-1.267c-0.996,-0.995 -3.292,-2.362 -3.292,-2.362l-0.008,8.904l0.042,-0.029c0.046,0.917 0.4,1.842 1.175,2.717l72.417,66.112l19.791,-5.825l-72.417,-66.112Z" style="fill:url(#_Linear33);"/><path d="M1091.55,897.948c-1.696,-0 -3.417,-0.225 -5.033,-0.7l-41.192,-16.738l9.05,-5.225l32.142,13.063c1.616,0.475 3.337,0.7 5.033,0.7c4.046,-0 7.942,-1.279 9.904,-3.504c0.888,-1.005 1.271,-2.08 1.205,-3.13l0.008,-0.004l-0,9.104l-0.054,-0.041c0.02,1 -0.317,2.016 -1.159,2.971c-1.962,2.225 -5.862,3.504 -9.904,3.504Z" style="fill:url(#_Linear34);"/><path d="M920.6,948.244c-0.579,-0 -1.162,-0.025 -1.75,-0.08c-2.713,-0.25 -5.033,-1.045 -6.687,-2.162c1.82,-2.304 3.445,-4.646 4.908,-6.992c0.571,0.113 1.166,0.196 1.779,0.25c0.588,0.054 1.175,0.084 1.75,0.084c0.613,-0 1.217,-0.03 1.808,-0.088l8.521,4.917c-1.65,2.437 -5.754,4.071 -10.329,4.071Z" style="fill:url(#_Linear35);"/><path d="M920.6,939.344c-0.575,-0 -1.162,-0.03 -1.75,-0.084c-0.613,-0.054 -1.208,-0.137 -1.779,-0.25c0.437,-0.7 0.858,-1.4 1.267,-2.104l4.07,2.35c-0.591,0.058 -1.195,0.088 -1.808,0.088Zm170.954,-50.296c-1.696,-0 -3.417,-0.225 -5.033,-0.7l-32.142,-13.063l15.779,-9.108l26.446,10.742c3.725,1.095 5.921,3.241 6.059,5.495c0.066,1.05 -0.317,2.125 -1.205,3.13c-1.962,2.225 -5.858,3.504 -9.904,3.504Z" style="fill:url(#_Linear36);"/><path d="M946.121,831.694c-6.35,-0 -11.492,-5.142 -11.492,-11.492l0,-133.079l22.988,-0l-0,133.079c-0,6.35 -5.15,11.492 -11.496,11.492Z" style="fill:#282567;fill-rule:nonzero;"/><path d="M884.983,529.044l-0.058,0.02c-0.271,-3.008 -2.225,-5.845 -5.967,-8.012l-2.408,-1.392c-8.929,-5.15 -24.517,-4.504 -34.825,1.446l-72.65,41.946c-5.471,3.158 -8.325,7.171 -8.492,11.017l-0.033,0.016l-0,12.654l0.021,0.009c-0.008,3.279 1.95,6.412 6,8.75l2.412,1.387c8.925,5.159 24.517,4.513 34.821,-1.437l72.654,-41.95c5.296,-3.059 8.142,-6.921 8.471,-10.65l0.054,-0.021l0,-13.783Z" style="fill:#5554a4;fill-rule:nonzero;"/><path d="M811.8,578.489l-34.738,-20.05l64.663,-37.333c0.183,-0.104 0.367,-0.208 0.55,-0.308c1.825,-1.004 3.804,-1.846 5.875,-2.525c-0.163,13.041 -0.783,26.608 -2.008,38.191c-0.084,0.784 -0.192,1.575 -0.317,2.38l-34.025,19.645Z" style="fill:url(#_Linear37);"/><path d="M922.804,643.081l-152.179,87.775c-7.542,4.354 -13.654,-0.271 -13.654,-10.321c-0,-10.054 6.112,-21.733 13.654,-26.083l174.325,-100.558l-0,6.879c-0,16.304 -9.913,35.25 -22.146,42.308Z" style="fill:#515252;fill-rule:nonzero;"/><path d="M1033.62,706.515l-3.213,-1.851l3.213,-1.858l-0,3.709Zm-0,-267.238c-18.2,-17.05 -40.463,-35.729 -43.021,-38.121c-3.8,-3.562 -15.071,-21.621 -15.071,-21.621l-96.05,0.484l0,-49.28c0,-20.3 11.171,-43.579 25.767,-55.016c0.27,-0.213 0.541,-0.417 0.812,-0.621c0.271,-0.204 0.546,-0.404 0.821,-0.596c1.008,-0.717 2.029,-1.379 3.063,-1.975l4.545,-2.625c4.292,-2.475 8.371,-3.646 12.071,-3.646c2.713,0 5.221,0.625 7.454,1.829l0.004,-0.008l153.23,86.65c-1.992,-0.9 -4.18,-1.371 -6.521,-1.371c-3.708,0 -7.796,1.175 -12.096,3.659l-4.546,2.621c-16.825,9.716 -30.462,35.779 -30.462,58.216l-0,21.421Z" style="fill:url(#_Linear38);"/><path d="M820.592,764.839c-0,0 -4.117,-10.9 4.016,-19.033c8.138,-8.133 50.942,-26.15 54.046,-28.087c3.096,-1.938 18.479,-13.267 18.479,-13.267l4.696,-10.504c0,-0 -86.904,8.471 -88.066,9.825c-1.163,1.354 -40.676,36.804 -39.513,38.35c1.158,1.55 27.237,7.871 27.237,7.871l5.034,6.895l14.071,7.95Z" style="fill:#2c2d2c;fill-rule:nonzero;"/><path d="M1068.62,357.019l-4.546,2.621c-16.825,9.716 -30.462,35.779 -30.462,58.216l-0,300.917l-108.85,62.791c-7.542,4.355 -13.65,16.03 -13.65,26.08c-0,10.058 6.108,14.679 13.65,10.325l152.179,-87.771c12.233,-7.063 22.146,-26.009 22.146,-42.313l-0,-307.837c-0,-22.434 -13.642,-32.746 -30.467,-23.029Z" style="fill:#5554a4;fill-rule:nonzero;"/><path d="M779.412,830.031c0,0 -22.42,14.383 -29.999,22.863c-7.58,8.479 -22.601,25.829 -16.417,34.095c6.175,8.267 27.041,12.888 49.462,-7.762c22.421,-20.65 16.055,-21.879 35.15,-32.113c19.092,-10.233 24.354,-21.375 22.059,-27.745c-2.296,-6.367 -11.738,-17.63 -16.884,-15.205c-5.145,2.43 -43.371,25.867 -43.371,25.867Z" style="fill:#201b57;fill-rule:nonzero;"/><path d="M888.45,890.448c-0,-0 -8.046,17.712 -12.2,23.587c-4.15,5.875 -24.258,39.767 -13.758,47.559c10.5,7.795 30.412,5.633 46.145,-11.455c15.734,-17.087 19.234,-37.883 23.113,-44.716c3.879,-6.825 13.546,-25.05 8.962,-35.567c-4.583,-10.508 -5.604,-12.325 -5.604,-12.325l-46.658,32.917Z" style="fill:#201b57;fill-rule:nonzero;"/><path d="M807.037,638.231c0,0 -66.62,65.734 -77.537,98.742c-0,-0 -4.613,17.829 8.267,31.816c12.875,13.992 40.216,59.709 40.216,59.709c0,-0 20.417,24.687 46.763,4.95c-0,-0 11.916,-19.038 4.596,-31.696c-7.325,-12.658 -26.813,-53.092 -26.813,-53.092c0,0 42.721,-29.391 63.808,-36.82c21.084,-7.421 32.334,-13.163 32.334,-13.163c-0,-0 -3.838,19.896 -19.259,39.308c-15.425,19.409 -41.25,50.588 -32.658,72.292c8.6,21.704 13.579,28.425 21.663,40.917c8.087,12.491 15.729,38.55 22.62,41.258c6.892,2.708 38.746,5.833 43.909,-14.908c5.166,-20.746 -10.863,-61.059 -18.088,-74.7c0,-0 86.159,-99.4 94.363,-110.325c8.204,-10.921 -177.525,-71.15 -204.184,-54.288Z" style="fill:#282567;fill-rule:nonzero;"/><path d="M829.342,801.752c-7.325,-12.658 -26.813,-53.092 -26.813,-53.092c0,0 42.721,-29.391 63.808,-36.82c21.084,-7.421 32.334,-13.163 32.334,-13.163c4.046,-5.579 17.129,-26.963 22.987,-43.879c-48.587,-14.234 -101.337,-24.963 -114.621,-16.567c4.709,11.638 29.476,11.538 29.476,11.538c-0,-0 9.254,22.516 15.387,25.395c6.129,2.876 20.821,-0.275 20.821,-0.275c-0,0 -2.375,3.713 -12.842,11.267c-10.471,7.558 -76.033,61.267 -76.033,61.267c-0,-0 3.733,2.129 21.191,33.683c17.455,31.558 19.709,52.342 19.709,52.342c-0,-0 11.916,-19.038 4.596,-31.696Z" style="fill:#201b57;fill-rule:nonzero;"/><path d="M976.612,673.11c-38.516,-3.675 -83.37,-4 -73.279,16.225c17.125,34.305 51.575,35.846 51.575,35.846c-0.216,12.6 -53.079,73.471 -53.079,73.471l12.321,23.958c12.317,23.954 10.771,67.567 10.771,67.567c4.754,-2.592 8.525,-6.6 10.025,-12.633c5.166,-20.746 -10.863,-61.059 -18.088,-74.7c0,-0 86.159,-99.4 94.363,-110.325c2.429,-3.238 -12.167,-10.805 -34.609,-19.409Z" style="fill:#201b57;fill-rule:nonzero;"/><path d="M739.675,463.01l10.25,-7.954c-0,0 55.233,-30.667 73.617,-40.608c9.95,-5.379 20.275,-14.996 27.654,-22.692c7.192,-7.496 17.171,-11.687 27.558,-11.733l96.771,-0.488c0,0 11.271,18.059 15.071,21.621c2.791,2.613 29.05,24.617 47.887,42.742c10.425,10.029 18,22.6 21.95,36.512c10.775,38.004 10.617,114.588 12.25,169.35c0,0 -6.671,2.6 -23.237,6.142c-16.463,3.517 -14.429,1.267 -14.429,1.267c-0,-0 -24.696,55.554 -58.192,60.921c-33.492,5.37 -78.621,-10.301 -86.675,-62.892c-0,-0 -65.304,-9.784 -83.008,-17.054c-1.638,-0.675 -2.213,-2.684 -1.15,-4.096c7.9,-10.484 37.346,-51.109 40.15,-77.584c3.237,-30.6 2.241,-75.02 -0.184,-87.158c0,0 -49.246,18.55 -64.946,21.846c0,-0 -59.95,65.879 -84.991,83.808c-0,0 8.571,-13.487 -8.654,-22.641l52.308,-89.309Z" style="fill:#46409a;fill-rule:nonzero;"/><path d="M1049.45,655.902c2.512,-0.538 4.771,-1.05 6.837,-1.538l-3.479,-6.833l-90.846,-9.617l-53.062,2.742l-18.246,17.333c1.029,5.634 2.479,10.838 4.321,15.605c0.092,0.012 22.558,3.245 32.987,1.016c10.434,-2.233 91.288,9.65 91.45,9.675c9.155,-13.146 14.83,-25.412 15.53,-26.954c-0.067,0.45 0.912,1.475 14.508,-1.429Z" style="fill:#282567;fill-rule:nonzero;"/><path d="M926.838,624.164l-0.738,-0.579c-4.379,-0.108 -32.762,-0.95 -43.496,-4.65c-11.646,-4.016 -23.975,-3.283 -24.604,-2.604c-0.629,0.679 -20.004,8.9 -21.167,12.242c-1.025,2.966 -2.883,13.25 -0.316,17.05c2.566,3.8 3.783,6.337 3.783,6.337l2.025,0.217c-0,-0 2.604,5.129 4.075,6.946c0.65,0.791 1.158,1.671 1.587,2.6c1.226,2.646 3.38,7.008 4.271,7.1c1.284,0.137 7.288,1.333 8.813,0.937c1.25,-0.325 2.367,-4.137 1.858,-5.812c-0.141,-0.459 0.088,-0.879 0.563,-0.954c2.762,-0.459 10.258,-1.405 20.625,-0.455c12.629,1.163 30.483,-7.095 32.095,-7.858l0.263,-0.071l17.808,-1.608c0.509,-0.042 0.846,-0.546 0.705,-1.033l-8.15,-27.805Z" style="fill:#fcd1c6;fill-rule:nonzero;"/><path d="M905.396,436.519c-0,-0 -15.154,55.854 0.866,113.254c0,-0 58.3,-108.763 64.621,-126.413c6.325,-17.65 8.625,-30.183 2.713,-36.52c-5.909,-6.334 -58.579,26.399 -58.579,26.399l-9.621,23.28Z" style="fill:#f2f8fc;fill-rule:nonzero;"/><path d="M920.408,524.106c0,0 11.104,-33.987 9.171,-44.958c-1.933,-10.975 -4.692,-18.817 -4.692,-18.817l10.017,-9.242l4.413,9.163c-0,-0 22.045,-16.175 23.508,-19.188c0,0 -17.754,12.18 -23.333,14c-0,0 -2.634,-4.358 -6.13,-5.845c-3.487,-1.48 -12.175,10.408 -12.175,10.408l-1.624,20.621l-8.713,48.1l3.029,7.141l6.529,-11.383Z" style="fill:#c4cbd5;fill-rule:nonzero;"/><path d="M910.658,437.152c0,-0 -2.104,21.946 -0.287,23.496c1.816,1.554 8.612,1.658 11.771,-0.113c3.158,-1.771 11.22,-11.316 11.22,-11.316c0,-0 -9.858,-17.405 -22.704,-12.067Z" style="fill:#282567;fill-rule:nonzero;"/><path d="M922.558,456.614c0,0 5.934,15.238 0.242,36.296c-5.696,21.059 -7.875,40.621 -7.875,40.621l-8.663,16.242c0,-0 -10.804,-31.779 -7.254,-63.7c1.592,-14.342 12.521,-27.034 12.521,-27.034l11.029,-2.425Z" style="fill:#282567;fill-rule:nonzero;"/><path d="M878.163,347.448c-0,-0 -2.675,13.583 -1.713,16.158c0.967,2.579 4.404,4.304 3.567,9.6c-0.838,5.296 2.22,21.121 3.8,26.396c-0,-0 -1.159,5.633 0.421,7.379c1.579,1.742 3.629,1.683 5.112,4.346c1.479,2.662 1.983,16.363 7.533,20.946c5.55,4.575 12.78,5.529 16.504,4.529c3.73,-1 7.559,-3.842 7.559,-3.842l8.358,3.484c0,-0 43.35,-12.28 41.996,-42.746l-0.029,-3.225c-0,-0 3.079,-4.296 3.971,-7.129c0.896,-2.83 8.079,-15.48 4.45,-20.942c-0,-0 16.791,-66.3 -35.021,-70.296c-51.809,-3.996 -59.613,32.308 -66.508,55.342Z" style="fill:#fcd1c6;fill-rule:nonzero;"/><path d="M971.3,393.698l-0,-0.367c-2.163,-1.296 -4.271,-2.108 -5.958,-1.812c-5.929,1.041 -4.563,-11.25 -4.563,-11.25c0,-0 -1.1,2.225 -4.129,17.945c-3.025,15.713 -35.704,34.746 -35.704,34.746l8.358,3.484c0,-0 43.35,-12.28 41.996,-42.746Z" style="fill:#e2b1a6;fill-rule:nonzero;"/><path d="M878.392,318.669c-5.067,10.754 -7.488,23.683 3.104,32.354c-0,-0 8.904,2.425 25.825,-5.438c11.412,-5.3 22.812,-2.954 29.033,-0.862c2.879,0.966 4.763,3.7 4.679,6.729l-0.25,9.442c-0.066,2.454 1.375,4.695 3.634,5.654l7.862,3.35l1.558,9.183c0.463,2.704 3.259,4.342 5.842,3.417l1.988,-0.713c-0,0 1.175,-20.425 18.025,-19.383c-0,-0 13.641,-29.5 -0.338,-56.475c-13.979,-26.979 -52.292,-25.058 -60.458,-21.996c-10.75,4.025 -9.254,3.429 -15.417,7.242c-10.762,6.654 -19.691,16.041 -25.087,27.496Z" style="fill:#ac8484;fill-rule:nonzero;"/><path d="M1016.27,526.698c-0,-0 -7.855,57.837 -11.067,74.204l-25.358,13.371l45.025,-2.75l-8.6,-84.825Z" style="fill:#282567;fill-rule:nonzero;"/><path d="M979.692,362.402c-0,-0 4.608,-9.992 5.72,-23.658c-20.945,16.595 -44.379,12.708 -44.379,12.708l-0.25,9.442c-0.066,2.454 1.375,4.695 3.634,5.654l7.862,3.35l1.558,9.183c0.463,2.704 3.259,4.342 5.842,3.413l1.988,-0.709c-0,0 1.175,-20.425 18.025,-19.383Z" style="fill:#936d6d;fill-rule:nonzero;"/><path d="M990.896,413.206c-0,0 -13.417,46.092 -16.217,54.975l-10.787,-1.146l1.941,14.584l-58.154,76.658l64.567,-74.121l-2.554,-12.992l9.804,1.038l11.4,-58.996Z" style="fill:#282567;fill-rule:nonzero;"/><path d="M933.808,663.714c0,0 136.384,-4.441 139.863,-6.92c3.483,-2.475 4.104,-37.567 3.779,-57.9c-0.229,-14.267 -0.063,-70.08 -12.237,-109.23c9.566,33.15 4.529,150.392 0.195,156.35c-4.346,5.98 -134.075,9.409 -134.075,9.409c1.4,4.875 2.475,8.291 2.475,8.291Z" style="fill:#253649;fill-rule:nonzero;"/><path d="M665.825,554.623c0,-0 -0.513,3.437 -6.438,6.804c-5.925,3.362 -21.108,10.854 -23.566,13.008c-2.454,2.154 -13.404,11.763 -13.725,13.034c-0.321,1.262 -3.604,12.15 -3.584,12.8c0.026,0.65 1.071,5.683 1.071,5.683l-3.375,16.075c0,-0 -4.275,6.233 0.371,7.929c4.646,1.7 7.292,-3.125 7.371,-3.862c-0,-0 7.037,-3.338 12.196,-7.338c5.158,-4.004 25.858,-20.658 29.371,-19.637c3.512,1.02 0.283,6.987 -1.405,8.016c-1.687,1.034 -12.662,11.754 -8.066,19.2c4.596,7.45 7.592,-4.208 10.633,-6.579c3.033,-2.375 9.588,-11.704 13.613,-12.854c4.02,-1.158 11.333,-16.163 12.287,-22.867c0.963,-6.708 5.75,-11.029 7.463,-13.204c1.716,-2.166 -3.696,-18.829 -3.696,-18.829l-20.492,-6.379l-7.187,4.666l-2.842,4.334Z" style="fill:#fcd1c6;fill-rule:nonzero;"/><g><clipPath id="_clip39"><path d="M977.442,704.239l-2.413,-1.391c-8.921,-5.154 -7.804,-14.154 2.504,-20.104l72.654,-41.946c10.305,-5.95 25.892,-6.596 34.817,-1.442l2.413,1.392c8.925,5.15 7.804,14.15 -2.505,20.1l-72.65,41.946c-10.308,5.95 -25.895,6.6 -34.82,1.445Z"/></clipPath><g clip-path="url(#_clip39)"><path d="M1055.15,466.685c-4.287,-6.771 -6.254,-1.766 -12.008,3.813c-7.763,7.542 -17.513,19.233 -22.542,34.004c-9.158,26.879 -5.871,94.067 -2.804,103.675c-0,-0 -85.404,13.983 -91.317,13.729c-5.917,-0.254 7.329,41.808 7.329,41.808c0,0 136.384,-4.441 139.863,-6.92c3.483,-2.475 4.104,-37.563 3.775,-57.9c-0.275,-17.438 0.046,-96.917 -22.296,-132.209Z" style="fill:#334659;fill-rule:nonzero;"/><path d="M933.808,663.714c0,0 136.384,-4.441 139.863,-6.92c3.483,-2.475 4.104,-37.567 3.775,-57.9c-0.225,-14.267 -0.059,-70.08 -12.233,-109.23c9.566,33.15 4.529,150.392 0.195,156.355c-4.346,5.975 -134.075,9.404 -134.075,9.404c1.4,4.875 2.475,8.291 2.475,8.291Z" style="fill:#253649;fill-rule:nonzero;"/></g></g><path d="M1093.44,648.735l-0.055,0.021c-0.275,-3.008 -2.225,-5.85 -5.97,-8.008l-2.413,-1.392c-8.925,-5.154 -24.512,-4.508 -34.817,1.442l-72.654,41.946c-5.466,3.158 -8.325,7.17 -8.491,11.012l-0.038,0.021l0,12.65l0.025,0.012c-0.008,3.28 1.954,6.413 6,8.746l2.413,1.392c8.925,5.154 24.512,4.508 34.82,-1.442l72.65,-41.946c5.301,-3.054 8.15,-6.916 8.48,-10.654l0.05,-0.021l-0,-13.779Z" style="fill:#5554a4;fill-rule:nonzero;"/><path d="M1019.71,698.494l-34.733,-20.05l65.208,-37.646c5.625,-3.25 12.834,-4.917 19.667,-4.921l0.042,-0c2.408,-0 4.767,0.204 6.996,0.625c2.925,0.546 5.625,1.458 7.908,2.737c0.067,0.038 0.138,0.075 0.204,0.117l2.413,1.392c0.016,0.008 0.033,0.021 0.05,0.029c0.004,-0 0.004,-0 0.004,0.004c0.171,0.096 0.341,0.2 0.504,0.304c0.004,0 0.013,0.004 0.017,0.009c0.008,0.004 0.016,0.012 0.029,0.016c0.008,0.009 0.016,0.013 0.029,0.021c0.004,0 0.004,0.004 0.008,0.004c3.325,2.109 5.092,4.784 5.35,7.613c0.38,4.162 -2.508,8.646 -8.496,12.1l-65.2,37.646Z" style="fill:url(#_Linear40);"/><clipPath id="_clip41"><path d="M934.238,944.648c-0.421,-1.629 -1.126,-3.15 -2.055,-4.5l4.209,-18.029l87.295,-50.4l21.642,8.791l-111.091,64.138Zm-57.301,-31.638l-78.695,-45.421l27.65,-5.325l59.637,34.421c-2.487,5.204 -6.054,12.379 -8.592,16.325Zm193.221,-46.833l-21.637,-8.796l57.533,-33.217l18.442,10.642l-54.338,31.371Zm-311.558,-21.467l-278.925,-160.987l18.383,-10.675l276.98,159.866c-4.2,2.817 -10.73,7.321 -16.438,11.796Zm367.633,-10.908l-18.437,-10.642l45.508,-26.275l18.438,10.642l-45.509,26.275Zm-648.296,-151.079l-153.904,-88.829l18.438,-10.646l153.85,88.8l-18.384,10.675Z"/></clipPath><g clip-path="url(#_clip41)"><rect x="324.033" y="583.248" width="847.708" height="361.4" style="fill:#808080;fill-opacity:0;"/></g><path d="M1124.5,834.806l-18.442,-10.642l1.742,-1.004l18.437,10.642l-1.737,1.004Zm-644.821,-151.083l-1.738,-1l18.384,-10.675l1.737,1l-18.383,10.675Z" style="fill:url(#_Linear42);"/><path d="M932.996,945.364l-2.067,-1.191c0.288,-0.421 0.5,-0.871 0.629,-1.338l0.625,-2.687c0.929,1.35 1.634,2.871 2.055,4.5l-1.242,0.716Z" style="fill:url(#_Linear43);"/><clipPath id="_clip44"><path d="M798.242,867.589l-2.709,-1.562c3.038,-3.442 4.955,-5.946 6.996,-8.167l11.796,-2.271l11.567,6.675l-27.65,5.325Z"/></clipPath><g clip-path="url(#_clip44)"><rect x="795.533" y="855.589" width="30.358" height="12" style="fill:#808080;fill-opacity:0;"/></g><clipPath id="_clip45"><path d="M1045.33,880.51l-21.642,-8.791l9.055,-5.225l21.637,8.791l-9.05,5.225Z"/></clipPath><g clip-path="url(#_clip45)"><rect x="1023.69" y="866.494" width="30.692" height="14.017" style="fill:#808080;fill-opacity:0;"/></g><clipPath id="_clip46"><path d="M930.929,944.173l-8.521,-4.917c4.592,-0.442 8.384,-2.525 9.15,-5.325l2.434,-10.425l2.4,-1.387l-4.209,18.029l-0.625,2.687c-0.129,0.467 -0.341,0.917 -0.629,1.338Z"/></clipPath><g clip-path="url(#_clip46)"><rect x="922.408" y="922.119" width="13.983" height="22.054" style="fill:#808080;fill-opacity:0;"/></g><clipPath id="_clip47"><path d="M922.408,939.256l-4.07,-2.35c3.437,-5.883 5.879,-11.692 7.787,-16.787l6.871,3.962l0.996,-0.575l-2.434,10.425c-0.766,2.8 -4.558,4.883 -9.15,5.325Zm131.971,-63.971l-21.637,-8.791l15.779,-9.113l21.637,8.796l-15.779,9.108Zm-251.85,-17.425c1.742,-1.896 3.571,-3.583 6.259,-5.466l5.537,3.195l-11.796,2.271Z"/></clipPath><g clip-path="url(#_clip47)"><rect x="802.529" y="852.394" width="267.629" height="86.863" style="fill:#808080;fill-opacity:0;"/></g><path d="M795.533,866.027l-36.933,-21.317c5.708,-4.475 12.238,-8.979 16.438,-11.796l33.75,19.48c-2.688,1.883 -4.517,3.57 -6.259,5.466c-2.041,2.221 -3.958,4.725 -6.996,8.167Z" style="fill:url(#_Linear48);"/><path d="M918.338,936.906l-41.401,-23.896c2.538,-3.946 6.105,-11.121 8.592,-16.325l40.596,23.434c-1.908,5.095 -4.35,10.904 -7.787,16.787Z" style="fill:url(#_Linear49);"/><path d="M324.033,572.606l0,21.288l608.963,351.47l238.746,-137.837l-0,-21.288l-238.746,137.842l-608.963,-351.475Z" style="fill:url(#_Linear50);"/><path d="M932.996,924.081l-6.871,-3.962l-40.596,-23.434l-59.637,-34.421l-11.567,-6.675l-5.537,-3.195l-33.75,-19.48l-276.98,-159.866l-1.737,-1l-153.85,-88.8l-18.438,-10.642l238.75,-137.842l144.567,83.442l31.004,17.896l0.225,0.129l-27.529,11.317l-34.771,34.458l-53.525,37.946l0,7.779l-0.683,0.396c-0,-0 0.225,0.258 0.683,0.575l0,0.062c0,0 0.017,-0.008 0.054,-0.025c0.742,0.509 2.055,1.146 3.95,1.146c0.967,0 2.084,-0.166 3.354,-0.596c5.425,-1.837 15.592,-8.329 20.338,-8.912c4.746,-0.579 12.587,-2.033 12.587,-2.033l-2.775,10.054c0,-0 10.384,-9.279 17.088,-12.379c6.704,-3.1 17.362,-11.33 18.671,-17.625c0.971,-4.696 7.396,-13.646 10.592,-17.888c14.749,-11.362 34.241,-26.175 38.458,-28.404c6.458,-3.408 9.454,-6.063 9.858,-6.433l22.133,12.77l34.738,20.05l10.688,6.171l11.162,6.442l47.275,27.287l49.571,28.609l-50.467,3.408l-21.066,7.55l1.55,9.292c-0,-0 12.308,4.391 24.012,4.391c2.083,0 4.15,-0.141 6.125,-0.466c12.833,-2.142 73.712,-3.363 75.829,-3.409l18.5,10.68l34.733,20.05l10.692,6.17l3.213,1.851l42.179,24.345l95.946,55.379l-18.438,10.646l-45.508,26.275l-1.742,1.004l-57.533,33.217l-15.779,9.113l-9.055,5.225l-87.295,50.4l-2.4,1.387l-0.996,0.575Z" style="fill:url(#_Linear51);"/><path d="M932.996,921.906l-607.079,-350.383l-1.884,1.083l608.963,351.475l238.746,-137.842l-1.884,-1.087l-236.862,136.754Z" style="fill:#fff;fill-rule:nonzero;"/><path d="M966.479,667.764l-8.466,-4.883c0.016,-0.004 0.033,-0.004 0.054,-0.004l8.466,4.887l-0.054,0Zm-22.062,-12.729l-10.267,-5.929l-0.679,-2.308l1.158,-0.079l11.842,8.25c-0.708,0.02 -1.388,0.045 -2.054,0.066Z" style="fill:#262263;fill-rule:nonzero;"/><path d="M934.15,649.106l-3.654,-2.108l2.975,-0.2l0.679,2.308Z" style="fill:#b796a5;fill-rule:nonzero;"/><path d="M958.013,662.881l-13.596,-7.846c0.666,-0.021 1.346,-0.046 2.054,-0.066l10.187,7.096l1.409,0.812c-0.021,-0 -0.038,-0 -0.054,0.004Z" style="fill:#212a4e;fill-rule:nonzero;"/><path d="M884.525,671.639c-11.704,0 -24.012,-4.391 -24.012,-4.391l-1.55,-9.292l21.066,-7.55l50.467,-3.408l3.654,2.108l10.267,5.929l13.596,7.846l8.466,4.883c-2.117,0.046 -62.996,1.267 -75.829,3.409c-1.975,0.325 -4.042,0.466 -6.125,0.466Z" style="fill:url(#_Linear52);"/><path d="M926.838,624.164l-0.738,-0.579c-4.379,-0.108 -32.762,-0.95 -43.496,-4.65c-11.646,-4.016 -23.975,-3.283 -24.604,-2.604c-0.629,0.679 -20.004,8.9 -21.167,12.242c-1.025,2.966 -2.883,13.25 -0.316,17.05c2.566,3.8 3.783,6.337 3.783,6.337l2.025,0.217c-0,-0 2.604,5.129 4.075,6.946c0.65,0.791 1.158,1.671 1.587,2.6c1.226,2.646 3.38,7.008 4.271,7.1c1.284,0.137 7.288,1.329 8.813,0.937c1.25,-0.325 2.367,-4.133 1.858,-5.812c-0.141,-0.459 0.088,-0.879 0.563,-0.954c2.762,-0.459 10.258,-1.405 20.625,-0.455c12.629,1.163 30.483,-7.095 32.095,-7.858l0.263,-0.071l17.808,-1.608c0.509,-0.042 0.846,-0.546 0.705,-1.033l-8.15,-27.805Z" style="fill:#fcd1c6;fill-rule:nonzero;"/><path d="M1055.15,466.685c-4.287,-6.771 -6.254,-1.766 -12.008,3.813c-7.763,7.542 -17.513,19.233 -22.542,34.004c-9.158,26.879 -5.871,94.067 -2.804,103.675c-0,-0 -85.404,13.983 -91.317,13.729c-5.917,-0.254 7.329,41.808 7.329,41.808c0,0 136.384,-4.441 139.863,-6.92c3.483,-2.475 4.104,-37.563 3.775,-57.9c-0.275,-17.438 0.046,-96.917 -22.296,-132.209Z" style="fill:#4a499e;fill-rule:nonzero;"/><path d="M933.808,663.714c0,0 136.384,-4.441 139.863,-6.92c3.483,-2.475 4.104,-37.567 3.775,-57.9c-0.225,-14.267 -0.059,-70.08 -12.233,-109.23c9.566,33.15 4.529,150.392 0.195,156.355c-4.346,5.975 -134.075,9.404 -134.075,9.404c1.4,4.875 2.475,8.291 2.475,8.291Z" style="fill:#282567;fill-rule:nonzero;"/><path d="M622.754,628.764l0,-0.062c0.017,0.012 0.033,0.025 0.054,0.037c-0.037,0.017 -0.054,0.025 -0.054,0.025Z" style="fill:url(#_Linear53);"/><path d="M754.929,545.669l-16.35,-9.438l0.075,-0.033l16.325,9.425c0,-0 -0.016,0.012 -0.05,0.046Z" style="fill:url(#_Radial54);"/><path d="M622.754,627.731l0,-7.779l53.525,-37.946l34.771,-34.458l27.529,-11.317l16.35,9.438c-0.404,0.37 -3.4,3.025 -9.858,6.433c-4.217,2.229 -23.709,17.042 -38.458,28.404c1.087,-1.442 1.799,-2.342 1.799,-2.342l-17.77,10.255l-25.734,14.862l-42.154,24.45Z" style="fill:url(#_Linear55);"/><path d="M626.758,629.885c-1.895,0 -3.208,-0.637 -3.95,-1.146c1.75,-0.75 44.209,-19 49.046,-22.166c4.938,-3.242 17.488,-12.679 17.488,-12.679c-0,-0 7.62,-5.959 17.271,-13.388c-3.196,4.242 -9.621,13.192 -10.592,17.888c-1.309,6.295 -11.967,14.525 -18.671,17.625c-6.704,3.1 -17.088,12.379 -17.088,12.379l2.775,-10.054c0,-0 -7.841,1.454 -12.587,2.033c-4.746,0.583 -14.913,7.075 -20.338,8.912c-1.27,0.43 -2.387,0.596 -3.354,0.596Zm-4.004,-1.183c-0.458,-0.317 -0.683,-0.575 -0.683,-0.575l0.683,-0.396l0,0.971Z" style="fill:url(#_Linear56);"/><path d="M622.808,628.739c-0.021,-0.012 -0.037,-0.025 -0.054,-0.037l0,-0.971l42.154,-24.45l25.734,-14.862l17.77,-10.255c0,0 -0.712,0.9 -1.799,2.342c-9.651,7.429 -17.271,13.388 -17.271,13.388c-0,-0 -12.55,9.437 -17.488,12.679c-4.837,3.166 -47.296,21.416 -49.046,22.166Z" style="fill:url(#_Linear57);"/><path d="M665.825,554.623c0,-0 -0.513,3.437 -6.438,6.804c-5.925,3.362 -21.108,10.854 -23.566,13.008c-2.454,2.154 -13.404,11.763 -13.725,13.034c-0.321,1.262 -3.604,12.15 -3.584,12.8c0.026,0.65 1.071,5.683 1.071,5.683l-3.375,16.075c0,-0 -4.275,6.233 0.371,7.929c4.646,1.7 7.292,-3.125 7.371,-3.862c-0,-0 7.037,-3.342 12.196,-7.338c5.158,-4.004 25.858,-20.658 29.371,-19.637c3.512,1.02 0.283,6.987 -1.405,8.016c-1.687,1.034 -12.662,11.754 -8.066,19.2c4.596,7.45 7.592,-4.208 10.633,-6.579c3.033,-2.375 9.588,-11.704 13.613,-12.854c4.02,-1.158 11.333,-16.163 12.287,-22.867c0.963,-6.708 5.75,-11.029 7.463,-13.2c1.716,-2.17 -3.696,-18.833 -3.696,-18.833l-20.492,-6.379l-7.187,4.666l-2.842,4.334Z" style="fill:#fcd1c6;fill-rule:nonzero;"/><path d="M850.813,442.139c-0,0 -0.751,-30.55 4.454,-53.987c-1.43,1.108 -2.804,2.287 -4.071,3.604c-7.379,7.696 -17.704,17.313 -27.654,22.692c-18.384,9.941 -73.617,40.608 -73.617,40.608l-10.25,7.954c-32.392,25.396 -68.587,80.655 -73.85,91.613c2.542,-3.388 9.05,-8.946 21.542,-2.304c17.225,9.154 9.02,22.912 9.02,22.912c25.046,-17.929 84.625,-84.079 84.625,-84.079c14.709,-3.088 58.875,-19.571 64.376,-21.633c3.529,-9.192 5.604,-18.43 5.425,-27.38Z" style="fill:#4a499e;fill-rule:nonzero;"/><path d="M540.937,650.289l11.834,6.175l118.637,-68.495c1.988,-1.146 5.454,-1 7.746,0.32l204.625,118.142c1.958,-1.096 10.883,-5.387 10.883,-5.387l-4.329,11.283l-0.021,-0.017c-0.179,0.504 -0.558,0.971 -1.208,1.346l-124.954,72.138c-1.983,1.15 -5.454,1.008 -7.742,-0.321l-209.396,-120.892c-0.941,-0.542 -1.516,-1.204 -1.754,-1.871l-0.016,0.013l-4.305,-12.434Z" style="fill:url(#_Linear58);"/><path d="M542.767,652.235l214.6,123.896c2.35,1.354 5.904,1.504 7.937,0.329l128.063,-73.933c2.033,-1.175 1.779,-3.225 -0.571,-4.588l-214.604,-123.895c-2.346,-1.355 -5.9,-1.505 -7.934,-0.33l-128.058,73.934c-2.037,1.175 -1.779,3.229 0.567,4.587Z" style="fill:url(#_Linear59);"/><path d="M542.767,650.998l214.6,123.896c2.35,1.354 5.904,1.504 7.937,0.329l128.063,-73.934c0.662,-0.387 1.062,-0.87 1.241,-1.387c0.325,0.967 -0.062,1.942 -1.241,2.625l-128.063,73.933c-2.033,1.175 -5.587,1.025 -7.937,-0.329l-214.6,-123.896c-1.579,-0.916 -2.188,-2.137 -1.813,-3.2c0.229,0.696 0.825,1.392 1.813,1.963Z" style="fill:#fff;fill-rule:nonzero;"/><path d="M821.167,719.331l-178.334,-102.958c-1.187,-0.688 -2.654,-0.688 -3.841,-0l-63.504,36.746c-0.913,0.525 -0.913,1.841 -0,2.366l178.25,102.913c1.187,0.687 2.649,0.687 3.837,-0l63.592,-36.692c0.908,-0.525 0.908,-1.846 -0,-2.375Z" style="fill:#b0b0d8;fill-rule:nonzero;"/><path d="M821.167,721.706l-0.642,0.367l-177.692,-102.592c-1.187,-0.687 -2.654,-0.687 -3.841,0l-62.867,36.375l-0.637,-0.371c-0.913,-0.525 -0.913,-1.841 -0,-2.366l63.504,-36.746c1.187,-0.688 2.654,-0.688 3.841,-0l178.334,102.958c0.908,0.529 0.908,1.85 -0,2.375Z" style="fill:#9397cb;fill-rule:nonzero;"/><path d="M634.2,625.681l164.262,94.838l8.151,-3.25l-165.526,-95.563l-6.887,3.975Z" style="fill:#282567;fill-rule:nonzero;"/><path d="M617.312,635.427l145.296,83.887l6.888,-3.975l-145.296,-83.887l-6.888,3.975Z" style="fill:#282567;fill-rule:nonzero;"/><path d="M606.312,641.777l171.075,98.771l6.884,-3.979l-171.067,-98.767l-6.892,3.975Z" style="fill:#282567;fill-rule:nonzero;"/><path d="M595.317,648.127l171.07,98.767l6.888,-3.975l-171.071,-98.767l-6.887,3.975Z" style="fill:#282567;fill-rule:nonzero;"/><path d="M584.317,654.481l171.075,98.767l6.883,-3.975l-171.071,-98.771l-6.887,3.979Z" style="fill:#282567;fill-rule:nonzero;"/><path d="M798.462,720.519l6.892,3.975l6.888,-3.975l-6.888,-3.98l-6.892,3.98Z" style="fill:#282567;fill-rule:nonzero;"/><path d="M754.254,714.494l34.213,19.75l6.887,-3.975l-34.462,-19.896l-6.638,4.121Z" style="fill:#282567;fill-rule:nonzero;"/><path d="M757.675,673.194l-48.088,-27.763c-1.875,-1.087 -1.875,-2.846 0,-3.929l32.888,-18.983c1.875,-1.088 4.925,-1.088 6.804,-0l48.088,27.758c1.875,1.087 1.875,2.846 -0,3.929l-32.884,18.988c-1.879,1.083 -4.925,1.083 -6.808,-0Z" style="fill:url(#_Linear60);"/><path d="M797.367,651.889l-48.088,-27.762c-1.879,-1.088 -4.929,-1.088 -6.804,-0l-32.888,18.979c-0.575,0.338 -0.954,0.742 -1.179,1.167c-0.496,-0.954 -0.116,-2.021 1.179,-2.771l32.888,-18.983c1.875,-1.088 4.925,-1.088 6.804,-0l48.088,27.758c1.295,0.754 1.675,1.821 1.179,2.771c-0.225,-0.425 -0.604,-0.825 -1.179,-1.159Z" style="fill:#9397cb;fill-rule:nonzero;"/><path d="M541.279,647.106l27.129,-160.946l-2.183,-0.916l3.279,-1.884l-0.008,0.021c0.637,-0.421 1.537,-0.396 2.529,0.175l216.804,125.171c1.784,1.029 3.129,3.667 2.817,5.512l-27.346,162.221c-0.142,0.846 -0.563,1.404 -1.142,1.654l0.004,0l-3.208,1.85l-0.55,-2.991l0.179,0.054l-215.487,-124.413c-1.784,-1.033 -3.129,-3.662 -2.817,-5.508Z" style="fill:url(#_Linear61);"/><path d="M787.621,613.131l3.562,-1.579c0.404,0.917 0.6,1.875 0.463,2.687l-27.346,162.221c-0.142,0.846 -0.563,1.404 -1.142,1.654l0.004,0l-3.208,1.85l-0.55,-2.991l0.183,0.054l-10.904,-6.296l38.938,-157.6Z" style="fill:url(#_Linear62);"/><path d="M540.692,654.564l216.804,125.171c1.679,0.971 3.112,0.409 3.404,-1.325l27.342,-162.225c0.316,-1.841 -1.034,-4.479 -2.813,-5.504l-216.808,-125.175c-1.671,-0.962 -3.109,-0.408 -3.4,1.325l-27.346,162.225c-0.313,1.842 1.037,4.479 2.817,5.508Z" style="fill:#46409a;fill-rule:nonzero;"/><path d="M520.504,958.931l-28.921,-16.7l6.309,-3.637l28.916,16.695l-6.304,3.642Z" style="fill:url(#_Radial63);"/><path d="M545.183,973.181l-14.458,-8.35l6.304,-3.642l14.463,8.35l-6.309,3.642Z" style="fill:url(#_Radial64);"/><path d="M514.25,972.398l-12.321,-7.117l6.308,-3.637l12.321,7.108l-6.308,3.646Z" style="fill:url(#_Radial65);"/><path d="M534.896,984.31l-14.463,-8.35l6.309,-3.637l14.454,8.346l-6.3,3.641Z" style="fill:url(#_Radial66);"/><path d="M543.971,1006.62l-56.825,-32.804l6.304,-3.642l56.829,32.808l-6.308,3.638Z" style="fill:url(#_Radial67);"/><path d="M381.804,1071.55l-56.821,-32.808l6.3,-3.638l56.83,32.808l-6.309,3.638Z" style="fill:url(#_Radial68);"/><path d="M403.658,1084.17l-14.458,-8.35l6.304,-3.638l14.463,8.346l-6.309,3.642Z" style="fill:url(#_Radial69);"/><path d="M484.683,989.469l-12.32,-7.117l6.299,-3.633l12.33,7.112l-6.309,3.638Z" style="fill:url(#_Radial70);"/><path d="M505.321,1001.38l-14.463,-8.35l6.309,-3.637l14.462,8.346l-6.308,3.641Z" style="fill:url(#_Radial71);"/><path d="M488.813,1008.93l-31.238,-18.038l6.308,-3.637l31.238,18.033l-6.308,3.642Z" style="fill:url(#_Radial72);"/><path d="M509.725,1021l-14.458,-8.35l6.304,-3.642l14.458,8.35l-6.304,3.642Z" style="fill:url(#_Radial73);"/><path d="M530.742,1033.13l-14.455,-8.346l6.3,-3.641l14.463,8.35l-6.308,3.637Z" style="fill:url(#_Radial74);"/><path d="M564.667,1052.72l-27.363,-15.796l6.304,-3.642l27.367,15.8l-6.308,3.638Z" style="fill:url(#_Radial75);"/><path d="M518.696,1060.33l-14.463,-8.35l6.309,-3.642l14.462,8.35l-6.308,3.642Z" style="fill:url(#_Radial76);"/><path d="M552.621,1079.91l-27.367,-15.8l6.308,-3.637l27.359,15.796l-6.3,3.641Z" style="fill:url(#_Radial77);"/><path d="M442.463,1016.31l-14.463,-8.35l6.308,-3.641l14.463,8.35l-6.308,3.641Z" style="fill:url(#_Radial78);"/><path d="M463.483,1028.45l-14.462,-8.346l6.308,-3.642l14.463,8.35l-6.309,3.638Z" style="fill:url(#_Radial79);"/><path d="M497.404,1048.04l-27.362,-15.8l6.308,-3.641l27.358,15.8l-6.304,3.641Z" style="fill:url(#_Radial80);"/><path d="M554.008,1063.64l-14.454,-8.35l6.3,-3.642l14.463,8.35l-6.309,3.642Z" style="fill:url(#_Radial81);"/><path d="M575.029,1075.78l-14.458,-8.35l6.304,-3.638l14.462,8.346l-6.308,3.642Z" style="fill:url(#_Radial82);"/><path d="M608.954,1095.36l-27.362,-15.796l6.304,-3.641l27.362,15.8l-6.304,3.637Z" style="fill:url(#_Radial83);"/><path d="M426.283,1097.23l-14.458,-8.346l6.304,-3.641l14.463,8.345l-6.309,3.642Z" style="fill:url(#_Radial84);"/><path d="M460.204,1116.82l-27.362,-15.796l6.308,-3.642l27.358,15.796l-6.304,3.642Z" style="fill:url(#_Radial85);"/><path d="M412.892,1033.38l-14.459,-8.35l6.304,-3.641l14.459,8.35l-6.304,3.641Z" style="fill:url(#_Radial86);"/><path d="M446.812,1052.97l-27.358,-15.796l6.3,-3.642l27.367,15.796l-6.309,3.642Z" style="fill:url(#_Radial87);"/><path d="M429.875,1116.38l-14.458,-8.35l6.304,-3.642l14.462,8.35l-6.308,3.642Z" style="fill:url(#_Radial88);"/><path d="M463.796,1135.96l-27.359,-15.795l6.305,-3.642l27.362,15.796l-6.308,3.641Z" style="fill:url(#_Radial89);"/><path d="M587.196,1031.59l-14.454,-8.35l6.3,-3.641l14.462,8.35l-6.308,3.641Z" style="fill:url(#_Radial90);"/><path d="M565.333,1018.96l-14.454,-8.35l6.3,-3.641l14.463,8.35l-6.309,3.641Z" style="fill:url(#_Radial91);"/><path d="M621.121,1051.17l-27.363,-15.8l6.304,-3.638l27.363,15.796l-6.304,3.642Z" style="fill:url(#_Radial92);"/><path d="M455.833,1006.96l-13.046,-7.533l6.309,-3.638l13.046,7.53l-6.309,3.641Z" style="fill:url(#_Radial93);"/><path d="M494.521,1029.3l-31.709,-18.313l6.309,-3.637l31.708,18.308l-6.308,3.642Z" style="fill:url(#_Radial94);"/><path d="M533.208,1051.63l-31.708,-18.304l6.304,-3.642l31.713,18.304l-6.309,3.642Z" style="fill:url(#_Radial95);"/><path d="M641.212,1062.77l-13.045,-7.534l6.308,-3.641l13.046,7.533l-6.309,3.642Z" style="fill:url(#_Radial96);"/><path d="M679.9,1085.1l-31.708,-18.304l6.308,-3.642l31.708,18.308l-6.308,3.638Z" style="fill:url(#_Radial97);"/><path d="M718.592,1107.44l-31.713,-18.313l6.304,-3.637l31.713,18.308l-6.304,3.642Z" style="fill:url(#_Radial98);"/><path d="M445.208,1034.97l-31.708,-18.305l6.3,-3.641l31.717,18.308l-6.309,3.638Z" style="fill:url(#_Radial99);"/><path d="M461.925,1044.62l-9.742,-5.621l6.309,-3.638l9.741,5.621l-6.308,3.638Z" style="fill:url(#_Radial100);"/><path d="M478.675,1054.29l-9.738,-5.625l6.305,-3.638l9.741,5.625l-6.308,3.638Z" style="fill:url(#_Radial101);"/><path d="M515.954,1068.54l-10.104,-5.833l10.108,5.833l-0.004,0Zm-23.754,-6.433l-6.512,-3.758l6.308,-3.642l6.508,3.758l-6.304,3.642Z" style="fill:url(#_Radial102);"/><path d="M516.158,1075.93l-23.958,-13.833l6.304,-3.642l7.346,4.242l10.104,5.833l6.508,3.759l-6.304,3.641Z" style="fill:url(#_Radial103);"/><path d="M580.838,1062.06l-9.738,-5.621l6.304,-3.641l9.742,5.62l-6.308,3.642Z" style="fill:url(#_Radial104);"/><path d="M618.117,1076.3l-17.45,-10.075l-6.304,3.641l-6.509,-3.758l6.3,-3.642l23.963,13.834Z" style="fill:url(#_Radial105);"/><path d="M618.321,1083.7l-23.958,-13.834l6.304,-3.641l17.45,10.075l6.512,3.758l-6.308,3.642Z" style="fill:url(#_Radial106);"/><path d="M377.858,1103.42l-31.241,-18.038l6.308,-3.637l31.242,18.033l-6.309,3.642Z" style="fill:url(#_Radial107);"/><path d="M398.771,1115.49l-14.463,-8.35l6.309,-3.638l14.458,8.346l-6.304,3.642Z" style="fill:url(#_Radial108);"/><path d="M419.792,1127.63l-14.463,-8.346l6.308,-3.642l14.459,8.35l-6.304,3.638Z" style="fill:url(#_Radial109);"/><path d="M453.708,1147.22l-27.358,-15.8l6.308,-3.642l27.359,15.8l-6.309,3.642Z" style="fill:url(#_Radial110);"/><path d="M475.408,1159.74l-14.462,-8.341l6.308,-3.642l14.463,8.346l-6.309,3.637Z" style="fill:url(#_Radial111);"/><path d="M509.333,1179.33l-27.362,-15.8l6.304,-3.642l27.362,15.8l-6.304,3.642Z" style="fill:url(#_Radial112);"/><path d="M380.954,1139.36l-14.458,-8.346l6.304,-3.641l14.462,8.35l-6.308,3.637Z" style="fill:url(#_Radial113);"/><path d="M414.879,1158.94l-27.367,-15.8l6.309,-3.642l27.366,15.8l-6.308,3.642Z" style="fill:url(#_Radial114);"/><path d="M305.429,1095.75l-14.458,-8.35l6.304,-3.638l14.462,8.346l-6.308,3.642Z" style="fill:url(#_Radial115);"/><path d="M326.45,1107.89l-14.458,-8.35l6.304,-3.641l14.462,8.35l-6.308,3.641Z" style="fill:url(#_Radial116);"/><path d="M360.371,1127.47l-27.363,-15.8l6.309,-3.638l27.362,15.796l-6.308,3.642Z" style="fill:url(#_Radial117);"/><path d="M344.879,1101.46l-13.046,-7.533l6.304,-3.642l13.051,7.533l-6.309,3.642Z" style="fill:url(#_Radial118);"/><path d="M383.567,1123.79l-31.709,-18.313l6.304,-3.637l31.713,18.304l-6.308,3.646Z" style="fill:url(#_Radial119);"/><path d="M422.254,1146.13l-31.712,-18.308l6.308,-3.642l31.708,18.308l-6.304,3.642Z" style="fill:url(#_Radial120);"/><path d="M282.6,1099.64l-31.717,-18.309l6.313,-3.641l31.712,18.312l-6.308,3.638Z" style="fill:url(#_Radial121);"/><path d="M299.317,1109.29l-9.738,-5.625l6.3,-3.638l9.742,5.625l-6.304,3.638Z" style="fill:url(#_Radial122);"/><path d="M316.067,1118.96l-9.738,-5.62l6.304,-3.638l9.742,5.621l-6.308,3.637Z" style="fill:url(#_Radial123);"/><path d="M353.346,1133.21l-3.933,-2.267l3.933,2.267Zm-23.754,-6.433l-6.509,-3.759l6.3,-3.637l6.509,3.758l-6.3,3.638Z" style="fill:url(#_Radial124);"/><path d="M353.55,1140.61l-23.958,-13.837l6.3,-3.638l0.004,-0.004l13.517,7.808l3.933,2.267l6.512,3.763l-6.308,3.641Z" style="fill:url(#_Radial125);"/><path d="M345.508,1067.67l-9.733,-5.625l6.304,-3.638l9.738,5.625l-6.309,3.638Z" style="fill:url(#_Radial126);"/><path d="M376.483,1085.56l-23.958,-13.837l6.308,-3.638l23.959,13.833l-6.309,3.642Z" style="fill:url(#_Radial127);"/><path d="M408.129,1103.83l-23.962,-13.838l6.304,-3.641l23.958,13.837l-6.3,3.642Z" style="fill:url(#_Radial128);"/><path d="M505.75,1194.33l-14.458,-8.346l6.304,-3.641l14.458,8.35l-6.304,3.637Z" style="fill:url(#_Radial129);"/><path d="M539.671,1213.92l-27.359,-15.8l6.305,-3.642l27.362,15.8l-6.308,3.642Z" style="fill:url(#_Radial130);"/><path d="M452.358,1163.51l-23.958,-13.837l6.308,-3.642l23.959,13.838l-6.309,3.641Z" style="fill:url(#_Radial131);"/><path d="M484.004,1181.78l-23.962,-13.833l6.304,-3.642l23.958,13.833l-6.3,3.642Z" style="fill:url(#_Radial132);"/><path d="M368.533,1024.85l-9.741,-5.621l6.308,-3.642l9.742,5.621l-6.309,3.642Z" style="fill:url(#_Radial133);"/><path d="M399.504,1042.73l-23.962,-13.829l6.308,-3.642l23.958,13.833l-6.304,3.638Z" style="fill:url(#_Radial134);"/><path d="M431.146,1061l-23.958,-13.829l6.308,-3.642l23.958,13.829l-6.308,3.642Z" style="fill:url(#_Radial135);"/><path d="M94.3,914.798c-4.321,-0 -8.883,1.054 -12.45,3.108l-74.967,43.288c-3.266,1.887 -5.141,4.32 -5.141,6.683c-0,1.892 1.241,3.654 3.504,4.958l25.2,14.546c5.583,3.217 15.404,2.8 21.9,-0.937l74.971,-43.288c3.266,-1.887 5.141,-4.325 5.141,-6.687c0,-1.892 -1.246,-3.646 -3.504,-4.955l-25.2,-14.55c-2.521,-1.454 -5.904,-2.166 -9.454,-2.166Zm-54.4,76.466c-3.867,0 -7.567,-0.779 -10.325,-2.375l-25.2,-14.55c-2.821,-1.629 -4.375,-3.925 -4.375,-6.462c-0,-3 2.192,-5.988 6.012,-8.188l74.967,-43.287c6.971,-4.025 17.583,-4.45 23.646,-0.942l25.2,14.55c2.821,1.625 4.375,3.921 4.375,6.459c-0,3 -2.192,5.987 -6.013,8.191l-74.97,43.284c-3.796,2.2 -8.68,3.32 -13.317,3.32Z" style="fill:#6bcacd;fill-rule:nonzero;"/><path d="M170.763,958.944c-4.321,-0 -8.888,1.054 -12.451,3.108l-74.97,43.287c-3.267,1.888 -5.142,4.321 -5.142,6.68c-0,1.891 1.246,3.654 3.508,4.962l84.021,48.504c5.583,3.229 15.413,2.809 21.9,-0.941l74.967,-43.284c3.267,-1.887 5.141,-4.325 5.141,-6.683c0,-1.892 -1.245,-3.65 -3.5,-4.958l-84.02,-48.509c-2.521,-1.454 -5.905,-2.166 -9.454,-2.166Zm4.42,110.425c-3.871,-0 -7.566,-0.784 -10.325,-2.375l-84.02,-48.509c-2.826,-1.633 -4.38,-3.925 -4.38,-6.466c0,-2.996 2.196,-5.984 6.013,-8.188l74.971,-43.283c6.975,-4.021 17.575,-4.454 23.645,-0.946l84.021,48.512c2.817,1.625 4.367,3.921 4.367,6.463c-0,2.996 -2.183,5.983 -6.004,8.187l-74.971,43.284c-3.8,2.196 -8.683,3.321 -13.317,3.321Z" style="fill:#6bcacd;fill-rule:nonzero;"/><path d="M289.367,993.469c5.887,3.391 16.245,2.958 23.087,-0.992l155.938,-90.033c3.45,-1.992 5.429,-4.567 5.429,-7.071c-0,-2.004 -1.317,-3.871 -3.709,-5.254l-159.383,-92.017c-5.887,-3.404 -16.246,-2.954 -23.087,0.992l-155.938,90.029c-3.45,1.996 -5.429,4.571 -5.429,7.071c-0,2.008 1.321,3.875 3.712,5.258l159.38,92.017Zm9.966,4c-4.058,-0 -7.941,-0.821 -10.837,-2.492l-159.379,-92.017c-2.955,-1.708 -4.584,-4.108 -4.584,-6.766c0,-3.138 2.296,-6.263 6.3,-8.575l155.938,-90.034c7.312,-4.225 18.45,-4.675 24.829,-0.991l159.383,92.02c2.954,1.705 4.58,4.105 4.58,6.759c-0,3.141 -2.296,6.266 -6.301,8.579l-155.937,90.033c-3.992,2.3 -9.121,3.484 -13.992,3.484Z" style="fill:#6bcacd;fill-rule:nonzero;"/><defs><linearGradient id="_Linear2" x1="0" y1="0" x2="1" y2="0" gradientUnits="userSpaceOnUse" gradientTransform="matrix(892.492,0,0,892.492,582.154,408.914)"><stop offset="0" style="stop-color:#6bcacd;stop-opacity:1"/><stop offset="1" style="stop-color:#6bcacd;stop-opacity:1"/></linearGradient><linearGradient id="_Linear4" x1="0" y1="0" x2="1" y2="0" gradientUnits="userSpaceOnUse" gradientTransform="matrix(892.492,0,0,892.492,582.154,408.914)"><stop offset="0" style="stop-color:#6bcacd;stop-opacity:1"/><stop offset="1" style="stop-color:#6bcacd;stop-opacity:1"/></linearGradient><linearGradient id="_Linear5" x1="0" y1="0" x2="1" y2="0" gradientUnits="userSpaceOnUse" gradientTransform="matrix(892.492,0,0,892.492,582.154,408.914)"><stop offset="0" style="stop-color:#6bcacd;stop-opacity:1"/><stop offset="1" style="stop-color:#6bcacd;stop-opacity:1"/></linearGradient><linearGradient id="_Linear6" x1="0" y1="0" x2="1" y2="0" gradientUnits="userSpaceOnUse" gradientTransform="matrix(892.492,0,0,892.492,582.154,408.914)"><stop offset="0" style="stop-color:#6bcacd;stop-opacity:1"/><stop offset="1" style="stop-color:#6bcacd;stop-opacity:1"/></linearGradient><linearGradient id="_Linear8" x1="0" y1="0" x2="1" y2="0" gradientUnits="userSpaceOnUse" gradientTransform="matrix(892.492,0,0,892.492,582.154,408.914)"><stop offset="0" style="stop-color:#6bcacd;stop-opacity:1"/><stop offset="1" style="stop-color:#6bcacd;stop-opacity:1"/></linearGradient><linearGradient id="_Linear9" x1="0" y1="0" x2="1" y2="0" gradientUnits="userSpaceOnUse" gradientTransform="matrix(892.492,0,0,892.492,582.154,408.914)"><stop offset="0" style="stop-color:#6bcacd;stop-opacity:1"/><stop offset="1" style="stop-color:#6bcacd;stop-opacity:1"/></linearGradient><linearGradient id="_Linear11" x1="0" y1="0" x2="1" y2="0" gradientUnits="userSpaceOnUse" gradientTransform="matrix(892.492,0,0,892.492,582.154,408.914)"><stop offset="0" style="stop-color:#6bcacd;stop-opacity:1"/><stop offset="1" style="stop-color:#6bcacd;stop-opacity:1"/></linearGradient><linearGradient id="_Linear12" x1="0" y1="0" x2="1" y2="0" gradientUnits="userSpaceOnUse" gradientTransform="matrix(892.492,0,0,892.492,582.154,408.914)"><stop offset="0" style="stop-color:#6bcacd;stop-opacity:1"/><stop offset="1" style="stop-color:#6bcacd;stop-opacity:1"/></linearGradient><linearGradient id="_Linear13" x1="0" y1="0" x2="1" y2="0" gradientUnits="userSpaceOnUse" gradientTransform="matrix(892.492,0,0,892.492,582.154,408.914)"><stop offset="0" style="stop-color:#6bcacd;stop-opacity:1"/><stop offset="1" style="stop-color:#6bcacd;stop-opacity:1"/></linearGradient><linearGradient id="_Linear14" x1="0" y1="0" x2="1" y2="0" gradientUnits="userSpaceOnUse" gradientTransform="matrix(892.492,0,0,892.492,582.154,408.914)"><stop offset="0" style="stop-color:#6bcacd;stop-opacity:1"/><stop offset="1" style="stop-color:#6bcacd;stop-opacity:1"/></linearGradient><linearGradient id="_Linear16" x1="0" y1="0" x2="1" y2="0" gradientUnits="userSpaceOnUse" gradientTransform="matrix(892.492,0,0,892.492,523.121,441.985)"><stop offset="0" style="stop-color:#6bcacd;stop-opacity:1"/><stop offset="1" style="stop-color:#6bcacd;stop-opacity:1"/></linearGradient><linearGradient id="_Linear18" x1="0" y1="0" x2="1" y2="0" gradientUnits="userSpaceOnUse" gradientTransform="matrix(892.492,0,0,892.492,523.121,441.985)"><stop offset="0" style="stop-color:#6bcacd;stop-opacity:1"/><stop offset="1" style="stop-color:#6bcacd;stop-opacity:1"/></linearGradient><linearGradient id="_Linear20" x1="0" y1="0" x2="1" y2="0" gradientUnits="userSpaceOnUse" gradientTransform="matrix(892.492,0,0,892.492,523.121,441.985)"><stop offset="0" style="stop-color:#6bcacd;stop-opacity:1"/><stop offset="1" style="stop-color:#6bcacd;stop-opacity:1"/></linearGradient><linearGradient id="_Linear22" x1="0" y1="0" x2="1" y2="0" gradientUnits="userSpaceOnUse" gradientTransform="matrix(892.492,0,0,892.492,523.121,441.985)"><stop offset="0" style="stop-color:#6bcacd;stop-opacity:1"/><stop offset="1" style="stop-color:#6bcacd;stop-opacity:1"/></linearGradient><linearGradient id="_Linear23" x1="0" y1="0" x2="1" y2="0" gradientUnits="userSpaceOnUse" gradientTransform="matrix(892.492,0,0,892.492,523.121,441.985)"><stop offset="0" style="stop-color:#6bcacd;stop-opacity:1"/><stop offset="1" style="stop-color:#6bcacd;stop-opacity:1"/></linearGradient><linearGradient id="_Linear24" x1="0" y1="0" x2="1" y2="0" gradientUnits="userSpaceOnUse" gradientTransform="matrix(892.492,0,0,892.492,523.121,441.985)"><stop offset="0" style="stop-color:#6bcacd;stop-opacity:1"/><stop offset="1" style="stop-color:#6bcacd;stop-opacity:1"/></linearGradient><linearGradient id="_Linear26" x1="0" y1="0" x2="1" y2="0" gradientUnits="userSpaceOnUse" gradientTransform="matrix(892.492,0,0,892.492,523.121,441.985)"><stop offset="0" style="stop-color:#6bcacd;stop-opacity:1"/><stop offset="1" style="stop-color:#6bcacd;stop-opacity:1"/></linearGradient><linearGradient id="_Linear27" x1="0" y1="0" x2="1" y2="0" gradientUnits="userSpaceOnUse" gradientTransform="matrix(892.492,0,0,892.492,523.121,441.985)"><stop offset="0" style="stop-color:#6bcacd;stop-opacity:1"/><stop offset="1" style="stop-color:#6bcacd;stop-opacity:1"/></linearGradient><linearGradient id="_Linear31" x1="0" y1="0" x2="1" y2="0" gradientUnits="userSpaceOnUse" gradientTransform="matrix(-259.589,63.3558,-63.3558,-259.589,938.962,827.469)"><stop offset="0" style="stop-color:#5963ad;stop-opacity:1"/><stop offset="0.4" style="stop-color:#6971b5;stop-opacity:1"/><stop offset="1" style="stop-color:#bebcde;stop-opacity:1"/></linearGradient><linearGradient id="_Linear32" x1="0" y1="0" x2="1" y2="0" gradientUnits="userSpaceOnUse" gradientTransform="matrix(287.381,0,0,287.381,940.9,804.298)"><stop offset="0" style="stop-color:#5963ad;stop-opacity:1"/><stop offset="0.4" style="stop-color:#6971b5;stop-opacity:1"/><stop offset="1" style="stop-color:#bebcde;stop-opacity:1"/></linearGradient><linearGradient id="_Linear33" x1="0" y1="0" x2="1" y2="0" gradientUnits="userSpaceOnUse" gradientTransform="matrix(-67.1708,-64.9292,64.9292,-67.1708,908.504,798.106)"><stop offset="0" style="stop-color:#5963ad;stop-opacity:1"/><stop offset="0.4" style="stop-color:#6971b5;stop-opacity:1"/><stop offset="1" style="stop-color:#bebcde;stop-opacity:1"/></linearGradient><linearGradient id="_Linear34" x1="0" y1="0" x2="1" y2="0" gradientUnits="userSpaceOnUse" gradientTransform="matrix(249.534,0,0,249.534,944.396,863.01)"><stop offset="0" style="stop-color:#5963ad;stop-opacity:1"/><stop offset="0.4" style="stop-color:#6971b5;stop-opacity:1"/><stop offset="1" style="stop-color:#bebcde;stop-opacity:1"/></linearGradient><linearGradient id="_Linear35" x1="0" y1="0" x2="1" y2="0" gradientUnits="userSpaceOnUse" gradientTransform="matrix(47.0292,0,0,47.0292,909.479,891.085)"><stop offset="0" style="stop-color:#5963ad;stop-opacity:1"/><stop offset="0.4" style="stop-color:#6971b5;stop-opacity:1"/><stop offset="1" style="stop-color:#bebcde;stop-opacity:1"/></linearGradient><linearGradient id="_Linear36" x1="0" y1="0" x2="1" y2="0" gradientUnits="userSpaceOnUse" gradientTransform="matrix(328.879,0,0,328.879,924.712,844.402)"><stop offset="0" style="stop-color:#c1bedf;stop-opacity:1"/><stop offset="1" style="stop-color:#e8e7f4;stop-opacity:1"/></linearGradient><linearGradient id="_Linear37" x1="0" y1="0" x2="1" y2="0" gradientUnits="userSpaceOnUse" gradientTransform="matrix(124.435,0,0,124.435,760.546,552.106)"><stop offset="0" style="stop-color:#e8e7f4;stop-opacity:1"/><stop offset="1" style="stop-color:#c1bedf;stop-opacity:1"/></linearGradient><linearGradient id="_Linear38" x1="0" y1="0" x2="1" y2="0" gradientUnits="userSpaceOnUse" gradientTransform="matrix(-118.136,304.003,-304.003,-118.136,1031.8,347.606)"><stop offset="0" style="stop-color:#bebcde;stop-opacity:1"/><stop offset="0.4" style="stop-color:#bcbadd;stop-opacity:1"/><stop offset="0.6" style="stop-color:#a1a0d0;stop-opacity:1"/><stop offset="0.9" style="stop-color:#5963ad;stop-opacity:1"/><stop offset="1" style="stop-color:#5963ad;stop-opacity:1"/></linearGradient><linearGradient id="_Linear40" x1="0" y1="0" x2="1" y2="0" gradientUnits="userSpaceOnUse" gradientTransform="matrix(124.435,0,0,124.435,969.008,671.798)"><stop offset="0" style="stop-color:#e8e7f4;stop-opacity:1"/><stop offset="1" style="stop-color:#c1bedf;stop-opacity:1"/></linearGradient><linearGradient id="_Linear42" x1="0" y1="0" x2="1" y2="0" gradientUnits="userSpaceOnUse" gradientTransform="matrix(847.708,0,0,847.708,324.037,700.71)"><stop offset="0" style="stop-color:#6bcacd;stop-opacity:1"/><stop offset="0.7" style="stop-color:#48c4de;stop-opacity:1"/><stop offset="1" style="stop-color:#4da4db;stop-opacity:1"/></linearGradient><linearGradient id="_Linear43" x1="0" y1="0" x2="1" y2="0" gradientUnits="userSpaceOnUse" gradientTransform="matrix(847.708,0,0,847.708,324.037,700.71)"><stop offset="0" style="stop-color:#337ea6;stop-opacity:1"/><stop offset="1" style="stop-color:#413f99;stop-opacity:1"/></linearGradient><linearGradient id="_Linear48" x1="0" y1="0" x2="1" y2="0" gradientUnits="userSpaceOnUse" gradientTransform="matrix(847.708,0,0,847.708,324.037,700.71)"><stop offset="0" style="stop-color:#277a9f;stop-opacity:1"/><stop offset="1" style="stop-color:#383a97;stop-opacity:1"/></linearGradient><linearGradient id="_Linear49" x1="0" y1="0" x2="1" y2="0" gradientUnits="userSpaceOnUse" gradientTransform="matrix(847.708,0,0,847.708,324.037,700.71)"><stop offset="0" style="stop-color:#277a9f;stop-opacity:1"/><stop offset="1" style="stop-color:#383a97;stop-opacity:1"/></linearGradient><linearGradient id="_Linear50" x1="0" y1="0" x2="1" y2="0" gradientUnits="userSpaceOnUse" gradientTransform="matrix(847.708,0,0,847.708,198.5,758.989)"><stop offset="0" style="stop-color:#bebcde;stop-opacity:1"/><stop offset="0.4" style="stop-color:#bcbadd;stop-opacity:1"/><stop offset="0.6" style="stop-color:#a1a0d0;stop-opacity:1"/><stop offset="0.9" style="stop-color:#5963ad;stop-opacity:1"/><stop offset="1" style="stop-color:#5963ad;stop-opacity:1"/></linearGradient><linearGradient id="_Linear51" x1="0" y1="0" x2="1" y2="0" gradientUnits="userSpaceOnUse" gradientTransform="matrix(847.708,0,0,847.708,324.037,679.423)"><stop offset="0" style="stop-color:#e8e7f4;stop-opacity:1"/><stop offset="1" style="stop-color:#c1bedf;stop-opacity:1"/></linearGradient><linearGradient id="_Linear52" x1="0" y1="0" x2="1" y2="0" gradientUnits="userSpaceOnUse" gradientTransform="matrix(847.708,0,0,847.708,324.037,679.423)"><stop offset="0" style="stop-color:#aaa8cd;stop-opacity:1"/><stop offset="1" style="stop-color:#8c89c2;stop-opacity:1"/></linearGradient><linearGradient id="_Linear53" x1="0" y1="0" x2="1" y2="0" gradientUnits="userSpaceOnUse" gradientTransform="matrix(847.708,0,0,847.708,324.037,679.423)"><stop offset="0" style="stop-color:#aaa8cd;stop-opacity:1"/><stop offset="1" style="stop-color:#8c89c2;stop-opacity:1"/></linearGradient><radialGradient id="_Radial54" cx="0" cy="0" r="1" gradientUnits="userSpaceOnUse" gradientTransform="matrix(2219.37,0,0,2217.59,-499.33,-803.906)"><stop offset="0" style="stop-color:#2c296f;stop-opacity:1"/><stop offset="1" style="stop-color:#1c1650;stop-opacity:1"/></radialGradient><linearGradient id="_Linear55" x1="0" y1="0" x2="1" y2="0" gradientUnits="userSpaceOnUse" gradientTransform="matrix(847.708,0,0,847.708,324.037,679.423)"><stop offset="0" style="stop-color:#aaa8cd;stop-opacity:1"/><stop offset="1" style="stop-color:#8c89c2;stop-opacity:1"/></linearGradient><linearGradient id="_Linear56" x1="0" y1="0" x2="1" y2="0" gradientUnits="userSpaceOnUse" gradientTransform="matrix(847.708,0,0,847.708,324.037,679.423)"><stop offset="0" style="stop-color:#72727b;stop-opacity:1"/><stop offset="1" style="stop-color:#646377;stop-opacity:1"/></linearGradient><linearGradient id="_Linear57" x1="0" y1="0" x2="1" y2="0" gradientUnits="userSpaceOnUse" gradientTransform="matrix(847.708,0,0,847.708,324.037,679.423)"><stop offset="0" style="stop-color:#5c5b69;stop-opacity:1"/><stop offset="1" style="stop-color:#514f66;stop-opacity:1"/></linearGradient><linearGradient id="_Linear58" x1="0" y1="0" x2="1" y2="0" gradientUnits="userSpaceOnUse" gradientTransform="matrix(-353.726,1.58812e-08,1.58812e-08,353.726,894.662,686.881)"><stop offset="0" style="stop-color:#5963ad;stop-opacity:1"/><stop offset="0.4" style="stop-color:#6971b5;stop-opacity:1"/><stop offset="1" style="stop-color:#bebcde;stop-opacity:1"/></linearGradient><linearGradient id="_Linear59" x1="0" y1="0" x2="1" y2="0" gradientUnits="userSpaceOnUse" gradientTransform="matrix(-353.914,1.58897e-08,1.58897e-08,353.914,775.808,675.089)"><stop offset="0" style="stop-color:#c1bedf;stop-opacity:1"/><stop offset="1" style="stop-color:#e8e7f4;stop-opacity:1"/></linearGradient><linearGradient id="_Linear60" x1="0" y1="0" x2="1" y2="0" gradientUnits="userSpaceOnUse" gradientTransform="matrix(-90.5921,4.06731e-10,4.06731e-10,90.5921,798.775,647.856)"><stop offset="0" style="stop-color:#c1bedf;stop-opacity:1"/><stop offset="1" style="stop-color:#e8e7f4;stop-opacity:1"/></linearGradient><linearGradient id="_Linear61" x1="0" y1="0" x2="1" y2="0" gradientUnits="userSpaceOnUse" gradientTransform="matrix(-250.456,1.12447e-08,1.12447e-08,250.456,791.687,631.527)"><stop offset="0" style="stop-color:#c1bedf;stop-opacity:1"/><stop offset="1" style="stop-color:#e8e7f4;stop-opacity:1"/></linearGradient><linearGradient id="_Linear62" x1="0" y1="0" x2="1" y2="0" gradientUnits="userSpaceOnUse" gradientTransform="matrix(-43.0058,1.93083e-10,1.93083e-10,43.0058,791.687,695.76)"><stop offset="0" style="stop-color:#5963ad;stop-opacity:1"/><stop offset="0.4" style="stop-color:#6971b5;stop-opacity:1"/><stop offset="1" style="stop-color:#bebcde;stop-opacity:1"/></linearGradient><radialGradient id="_Radial63" cx="0" cy="0" r="1" gradientUnits="userSpaceOnUse" gradientTransform="matrix(2219.37,0,0,2217.59,-499.33,-803.906)"><stop offset="0" style="stop-color:#3799b8;stop-opacity:1"/><stop offset="1" style="stop-color:#298ea6;stop-opacity:1"/></radialGradient><radialGradient id="_Radial64" cx="0" cy="0" r="1" gradientUnits="userSpaceOnUse" gradientTransform="matrix(2219.37,0,0,2217.59,-499.33,-803.906)"><stop offset="0" style="stop-color:#3799b8;stop-opacity:1"/><stop offset="1" style="stop-color:#298ea6;stop-opacity:1"/></radialGradient><radialGradient id="_Radial65" cx="0" cy="0" r="1" gradientUnits="userSpaceOnUse" gradientTransform="matrix(2219.37,0,0,2217.59,-499.33,-803.906)"><stop offset="0" style="stop-color:#3799b8;stop-opacity:1"/><stop offset="1" style="stop-color:#298ea6;stop-opacity:1"/></radialGradient><radialGradient id="_Radial66" cx="0" cy="0" r="1" gradientUnits="userSpaceOnUse" gradientTransform="matrix(2219.37,0,0,2217.59,-499.33,-803.906)"><stop offset="0" style="stop-color:#3799b8;stop-opacity:1"/><stop offset="1" style="stop-color:#298ea6;stop-opacity:1"/></radialGradient><radialGradient id="_Radial67" cx="0" cy="0" r="1" gradientUnits="userSpaceOnUse" gradientTransform="matrix(2219.37,0,0,2217.59,-499.33,-803.906)"><stop offset="0" style="stop-color:#3799b8;stop-opacity:1"/><stop offset="1" style="stop-color:#298ea6;stop-opacity:1"/></radialGradient><radialGradient id="_Radial68" cx="0" cy="0" r="1" gradientUnits="userSpaceOnUse" gradientTransform="matrix(2219.37,0,0,2217.59,-499.33,-803.906)"><stop offset="0" style="stop-color:#3799b8;stop-opacity:1"/><stop offset="1" style="stop-color:#298ea6;stop-opacity:1"/></radialGradient><radialGradient id="_Radial69" cx="0" cy="0" r="1" gradientUnits="userSpaceOnUse" gradientTransform="matrix(2219.37,0,0,2217.59,-499.33,-803.906)"><stop offset="0" style="stop-color:#3799b8;stop-opacity:1"/><stop offset="1" style="stop-color:#298ea6;stop-opacity:1"/></radialGradient><radialGradient id="_Radial70" cx="0" cy="0" r="1" gradientUnits="userSpaceOnUse" gradientTransform="matrix(2219.37,0,0,2217.59,-499.33,-803.906)"><stop offset="0" style="stop-color:#3799b8;stop-opacity:1"/><stop offset="1" style="stop-color:#298ea6;stop-opacity:1"/></radialGradient><radialGradient id="_Radial71" cx="0" cy="0" r="1" gradientUnits="userSpaceOnUse" gradientTransform="matrix(2219.37,0,0,2217.59,-499.33,-803.906)"><stop offset="0" style="stop-color:#3799b8;stop-opacity:1"/><stop offset="1" style="stop-color:#298ea6;stop-opacity:1"/></radialGradient><radialGradient id="_Radial72" cx="0" cy="0" r="1" gradientUnits="userSpaceOnUse" gradientTransform="matrix(2219.37,0,0,2217.59,-499.33,-803.906)"><stop offset="0" style="stop-color:#3799b8;stop-opacity:1"/><stop offset="1" style="stop-color:#298ea6;stop-opacity:1"/></radialGradient><radialGradient id="_Radial73" cx="0" cy="0" r="1" gradientUnits="userSpaceOnUse" gradientTransform="matrix(2219.37,0,0,2217.59,-499.33,-803.906)"><stop offset="0" style="stop-color:#3799b8;stop-opacity:1"/><stop offset="1" style="stop-color:#298ea6;stop-opacity:1"/></radialGradient><radialGradient id="_Radial74" cx="0" cy="0" r="1" gradientUnits="userSpaceOnUse" gradientTransform="matrix(2219.37,0,0,2217.59,-499.33,-803.906)"><stop offset="0" style="stop-color:#3799b8;stop-opacity:1"/><stop offset="1" style="stop-color:#298ea6;stop-opacity:1"/></radialGradient><radialGradient id="_Radial75" cx="0" cy="0" r="1" gradientUnits="userSpaceOnUse" gradientTransform="matrix(2219.37,0,0,2217.59,-499.33,-803.906)"><stop offset="0" style="stop-color:#3799b8;stop-opacity:1"/><stop offset="1" style="stop-color:#298ea6;stop-opacity:1"/></radialGradient><radialGradient id="_Radial76" cx="0" cy="0" r="1" gradientUnits="userSpaceOnUse" gradientTransform="matrix(2219.37,0,0,2217.59,-499.33,-803.906)"><stop offset="0" style="stop-color:#3799b8;stop-opacity:1"/><stop offset="1" style="stop-color:#298ea6;stop-opacity:1"/></radialGradient><radialGradient id="_Radial77" cx="0" cy="0" r="1" gradientUnits="userSpaceOnUse" gradientTransform="matrix(2219.37,0,0,2217.59,-499.33,-803.906)"><stop offset="0" style="stop-color:#3799b8;stop-opacity:1"/><stop offset="1" style="stop-color:#298ea6;stop-opacity:1"/></radialGradient><radialGradient id="_Radial78" cx="0" cy="0" r="1" gradientUnits="userSpaceOnUse" gradientTransform="matrix(2219.37,0,0,2217.59,-499.33,-803.906)"><stop offset="0" style="stop-color:#3799b8;stop-opacity:1"/><stop offset="1" style="stop-color:#298ea6;stop-opacity:1"/></radialGradient><radialGradient id="_Radial79" cx="0" cy="0" r="1" gradientUnits="userSpaceOnUse" gradientTransform="matrix(2219.37,0,0,2217.59,-499.33,-803.906)"><stop offset="0" style="stop-color:#3799b8;stop-opacity:1"/><stop offset="1" style="stop-color:#298ea6;stop-opacity:1"/></radialGradient><radialGradient id="_Radial80" cx="0" cy="0" r="1" gradientUnits="userSpaceOnUse" gradientTransform="matrix(2219.37,0,0,2217.59,-499.33,-803.906)"><stop offset="0" style="stop-color:#3799b8;stop-opacity:1"/><stop offset="1" style="stop-color:#298ea6;stop-opacity:1"/></radialGradient><radialGradient id="_Radial81" cx="0" cy="0" r="1" gradientUnits="userSpaceOnUse" gradientTransform="matrix(2219.37,0,0,2217.59,-499.33,-803.906)"><stop offset="0" style="stop-color:#3799b8;stop-opacity:1"/><stop offset="1" style="stop-color:#298ea6;stop-opacity:1"/></radialGradient><radialGradient id="_Radial82" cx="0" cy="0" r="1" gradientUnits="userSpaceOnUse" gradientTransform="matrix(2219.37,0,0,2217.59,-499.33,-803.906)"><stop offset="0" style="stop-color:#3799b8;stop-opacity:1"/><stop offset="1" style="stop-color:#298ea6;stop-opacity:1"/></radialGradient><radialGradient id="_Radial83" cx="0" cy="0" r="1" gradientUnits="userSpaceOnUse" gradientTransform="matrix(2219.37,0,0,2217.59,-499.33,-803.906)"><stop offset="0" style="stop-color:#3799b8;stop-opacity:1"/><stop offset="1" style="stop-color:#298ea6;stop-opacity:1"/></radialGradient><radialGradient id="_Radial84" cx="0" cy="0" r="1" gradientUnits="userSpaceOnUse" gradientTransform="matrix(2219.37,0,0,2217.59,-499.33,-803.906)"><stop offset="0" style="stop-color:#3799b8;stop-opacity:1"/><stop offset="1" style="stop-color:#298ea6;stop-opacity:1"/></radialGradient><radialGradient id="_Radial85" cx="0" cy="0" r="1" gradientUnits="userSpaceOnUse" gradientTransform="matrix(2219.37,0,0,2217.59,-499.33,-803.906)"><stop offset="0" style="stop-color:#3799b8;stop-opacity:1"/><stop offset="1" style="stop-color:#298ea6;stop-opacity:1"/></radialGradient><radialGradient id="_Radial86" cx="0" cy="0" r="1" gradientUnits="userSpaceOnUse" gradientTransform="matrix(2219.37,0,0,2217.59,-499.33,-803.906)"><stop offset="0" style="stop-color:#3799b8;stop-opacity:1"/><stop offset="1" style="stop-color:#298ea6;stop-opacity:1"/></radialGradient><radialGradient id="_Radial87" cx="0" cy="0" r="1" gradientUnits="userSpaceOnUse" gradientTransform="matrix(2219.37,0,0,2217.59,-499.33,-803.906)"><stop offset="0" style="stop-color:#3799b8;stop-opacity:1"/><stop offset="1" style="stop-color:#298ea6;stop-opacity:1"/></radialGradient><radialGradient id="_Radial88" cx="0" cy="0" r="1" gradientUnits="userSpaceOnUse" gradientTransform="matrix(2219.37,0,0,2217.59,-499.33,-803.906)"><stop offset="0" style="stop-color:#3799b8;stop-opacity:1"/><stop offset="1" style="stop-color:#298ea6;stop-opacity:1"/></radialGradient><radialGradient id="_Radial89" cx="0" cy="0" r="1" gradientUnits="userSpaceOnUse" gradientTransform="matrix(2219.37,0,0,2217.59,-499.33,-803.906)"><stop offset="0" style="stop-color:#3799b8;stop-opacity:1"/><stop offset="1" style="stop-color:#298ea6;stop-opacity:1"/></radialGradient><radialGradient id="_Radial90" cx="0" cy="0" r="1" gradientUnits="userSpaceOnUse" gradientTransform="matrix(2219.37,0,0,2217.59,-499.33,-803.906)"><stop offset="0" style="stop-color:#3799b8;stop-opacity:1"/><stop offset="1" style="stop-color:#298ea6;stop-opacity:1"/></radialGradient><radialGradient id="_Radial91" cx="0" cy="0" r="1" gradientUnits="userSpaceOnUse" gradientTransform="matrix(2219.37,0,0,2217.59,-499.33,-803.906)"><stop offset="0" style="stop-color:#3799b8;stop-opacity:1"/><stop offset="1" style="stop-color:#298ea6;stop-opacity:1"/></radialGradient><radialGradient id="_Radial92" cx="0" cy="0" r="1" gradientUnits="userSpaceOnUse" gradientTransform="matrix(2219.37,0,0,2217.59,-499.33,-803.906)"><stop offset="0" style="stop-color:#3799b8;stop-opacity:1"/><stop offset="1" style="stop-color:#298ea6;stop-opacity:1"/></radialGradient><radialGradient id="_Radial93" cx="0" cy="0" r="1" gradientUnits="userSpaceOnUse" gradientTransform="matrix(2219.37,0,0,2217.59,-499.33,-803.906)"><stop offset="0" style="stop-color:#3799b8;stop-opacity:1"/><stop offset="1" style="stop-color:#298ea6;stop-opacity:1"/></radialGradient><radialGradient id="_Radial94" cx="0" cy="0" r="1" gradientUnits="userSpaceOnUse" gradientTransform="matrix(2219.37,0,0,2217.59,-499.33,-803.906)"><stop offset="0" style="stop-color:#3799b8;stop-opacity:1"/><stop offset="1" style="stop-color:#298ea6;stop-opacity:1"/></radialGradient><radialGradient id="_Radial95" cx="0" cy="0" r="1" gradientUnits="userSpaceOnUse" gradientTransform="matrix(2219.37,0,0,2217.59,-499.33,-803.906)"><stop offset="0" style="stop-color:#3799b8;stop-opacity:1"/><stop offset="1" style="stop-color:#298ea6;stop-opacity:1"/></radialGradient><radialGradient id="_Radial96" cx="0" cy="0" r="1" gradientUnits="userSpaceOnUse" gradientTransform="matrix(2219.37,0,0,2217.59,-499.33,-803.906)"><stop offset="0" style="stop-color:#3799b8;stop-opacity:1"/><stop offset="1" style="stop-color:#298ea6;stop-opacity:1"/></radialGradient><radialGradient id="_Radial97" cx="0" cy="0" r="1" gradientUnits="userSpaceOnUse" gradientTransform="matrix(2219.37,0,0,2217.59,-499.33,-803.906)"><stop offset="0" style="stop-color:#3799b8;stop-opacity:1"/><stop offset="1" style="stop-color:#298ea6;stop-opacity:1"/></radialGradient><radialGradient id="_Radial98" cx="0" cy="0" r="1" gradientUnits="userSpaceOnUse" gradientTransform="matrix(2219.37,0,0,2217.59,-499.33,-803.906)"><stop offset="0" style="stop-color:#3799b8;stop-opacity:1"/><stop offset="1" style="stop-color:#298ea6;stop-opacity:1"/></radialGradient><radialGradient id="_Radial99" cx="0" cy="0" r="1" gradientUnits="userSpaceOnUse" gradientTransform="matrix(2219.37,0,0,2217.59,-499.33,-803.906)"><stop offset="0" style="stop-color:#3799b8;stop-opacity:1"/><stop offset="1" style="stop-color:#298ea6;stop-opacity:1"/></radialGradient><radialGradient id="_Radial100" cx="0" cy="0" r="1" gradientUnits="userSpaceOnUse" gradientTransform="matrix(2219.37,0,0,2217.59,-499.33,-803.906)"><stop offset="0" style="stop-color:#3799b8;stop-opacity:1"/><stop offset="1" style="stop-color:#298ea6;stop-opacity:1"/></radialGradient><radialGradient id="_Radial101" cx="0" cy="0" r="1" gradientUnits="userSpaceOnUse" gradientTransform="matrix(2219.37,0,0,2217.59,-499.33,-803.906)"><stop offset="0" style="stop-color:#3799b8;stop-opacity:1"/><stop offset="1" style="stop-color:#298ea6;stop-opacity:1"/></radialGradient><radialGradient id="_Radial102" cx="0" cy="0" r="1" gradientUnits="userSpaceOnUse" gradientTransform="matrix(2219.37,0,0,2217.59,-499.33,-803.906)"><stop offset="0" style="stop-color:#3799b8;stop-opacity:1"/><stop offset="1" style="stop-color:#298ea6;stop-opacity:1"/></radialGradient><radialGradient id="_Radial103" cx="0" cy="0" r="1" gradientUnits="userSpaceOnUse" gradientTransform="matrix(2219.37,0,0,2217.59,-499.33,-803.906)"><stop offset="0" style="stop-color:#3799b8;stop-opacity:1"/><stop offset="1" style="stop-color:#298ea6;stop-opacity:1"/></radialGradient><radialGradient id="_Radial104" cx="0" cy="0" r="1" gradientUnits="userSpaceOnUse" gradientTransform="matrix(2219.37,0,0,2217.59,-499.33,-803.906)"><stop offset="0" style="stop-color:#3799b8;stop-opacity:1"/><stop offset="1" style="stop-color:#298ea6;stop-opacity:1"/></radialGradient><radialGradient id="_Radial105" cx="0" cy="0" r="1" gradientUnits="userSpaceOnUse" gradientTransform="matrix(2219.37,0,0,2217.59,-499.33,-803.906)"><stop offset="0" style="stop-color:#3799b8;stop-opacity:1"/><stop offset="1" style="stop-color:#298ea6;stop-opacity:1"/></radialGradient><radialGradient id="_Radial106" cx="0" cy="0" r="1" gradientUnits="userSpaceOnUse" gradientTransform="matrix(2219.37,0,0,2217.59,-499.33,-803.906)"><stop offset="0" style="stop-color:#3799b8;stop-opacity:1"/><stop offset="1" style="stop-color:#298ea6;stop-opacity:1"/></radialGradient><radialGradient id="_Radial107" cx="0" cy="0" r="1" gradientUnits="userSpaceOnUse" gradientTransform="matrix(2219.37,0,0,2217.59,-499.33,-803.906)"><stop offset="0" style="stop-color:#3799b8;stop-opacity:1"/><stop offset="1" style="stop-color:#298ea6;stop-opacity:1"/></radialGradient><radialGradient id="_Radial108" cx="0" cy="0" r="1" gradientUnits="userSpaceOnUse" gradientTransform="matrix(2219.37,0,0,2217.59,-499.33,-803.906)"><stop offset="0" style="stop-color:#3799b8;stop-opacity:1"/><stop offset="1" style="stop-color:#298ea6;stop-opacity:1"/></radialGradient><radialGradient id="_Radial109" cx="0" cy="0" r="1" gradientUnits="userSpaceOnUse" gradientTransform="matrix(2219.37,0,0,2217.59,-499.33,-803.906)"><stop offset="0" style="stop-color:#3799b8;stop-opacity:1"/><stop offset="1" style="stop-color:#298ea6;stop-opacity:1"/></radialGradient><radialGradient id="_Radial110" cx="0" cy="0" r="1" gradientUnits="userSpaceOnUse" gradientTransform="matrix(2219.37,0,0,2217.59,-499.33,-803.906)"><stop offset="0" style="stop-color:#3799b8;stop-opacity:1"/><stop offset="1" style="stop-color:#298ea6;stop-opacity:1"/></radialGradient><radialGradient id="_Radial111" cx="0" cy="0" r="1" gradientUnits="userSpaceOnUse" gradientTransform="matrix(2219.37,0,0,2217.59,-499.33,-803.906)"><stop offset="0" style="stop-color:#3799b8;stop-opacity:1"/><stop offset="1" style="stop-color:#298ea6;stop-opacity:1"/></radialGradient><radialGradient id="_Radial112" cx="0" cy="0" r="1" gradientUnits="userSpaceOnUse" gradientTransform="matrix(2219.37,0,0,2217.59,-499.33,-803.906)"><stop offset="0" style="stop-color:#3799b8;stop-opacity:1"/><stop offset="1" style="stop-color:#298ea6;stop-opacity:1"/></radialGradient><radialGradient id="_Radial113" cx="0" cy="0" r="1" gradientUnits="userSpaceOnUse" gradientTransform="matrix(2219.37,0,0,2217.59,-499.33,-803.906)"><stop offset="0" style="stop-color:#3799b8;stop-opacity:1"/><stop offset="1" style="stop-color:#298ea6;stop-opacity:1"/></radialGradient><radialGradient id="_Radial114" cx="0" cy="0" r="1" gradientUnits="userSpaceOnUse" gradientTransform="matrix(2219.37,0,0,2217.59,-499.33,-803.906)"><stop offset="0" style="stop-color:#3799b8;stop-opacity:1"/><stop offset="1" style="stop-color:#298ea6;stop-opacity:1"/></radialGradient><radialGradient id="_Radial115" cx="0" cy="0" r="1" gradientUnits="userSpaceOnUse" gradientTransform="matrix(2219.37,0,0,2217.59,-499.33,-803.906)"><stop offset="0" style="stop-color:#3799b8;stop-opacity:1"/><stop offset="1" style="stop-color:#298ea6;stop-opacity:1"/></radialGradient><radialGradient id="_Radial116" cx="0" cy="0" r="1" gradientUnits="userSpaceOnUse" gradientTransform="matrix(2219.37,0,0,2217.59,-499.33,-803.906)"><stop offset="0" style="stop-color:#3799b8;stop-opacity:1"/><stop offset="1" style="stop-color:#298ea6;stop-opacity:1"/></radialGradient><radialGradient id="_Radial117" cx="0" cy="0" r="1" gradientUnits="userSpaceOnUse" gradientTransform="matrix(2219.37,0,0,2217.59,-499.33,-803.906)"><stop offset="0" style="stop-color:#3799b8;stop-opacity:1"/><stop offset="1" style="stop-color:#298ea6;stop-opacity:1"/></radialGradient><radialGradient id="_Radial118" cx="0" cy="0" r="1" gradientUnits="userSpaceOnUse" gradientTransform="matrix(2219.37,0,0,2217.59,-499.33,-803.906)"><stop offset="0" style="stop-color:#3799b8;stop-opacity:1"/><stop offset="1" style="stop-color:#298ea6;stop-opacity:1"/></radialGradient><radialGradient id="_Radial119" cx="0" cy="0" r="1" gradientUnits="userSpaceOnUse" gradientTransform="matrix(2219.37,0,0,2217.59,-499.33,-803.906)"><stop offset="0" style="stop-color:#3799b8;stop-opacity:1"/><stop offset="1" style="stop-color:#298ea6;stop-opacity:1"/></radialGradient><radialGradient id="_Radial120" cx="0" cy="0" r="1" gradientUnits="userSpaceOnUse" gradientTransform="matrix(2219.37,0,0,2217.59,-499.33,-803.906)"><stop offset="0" style="stop-color:#3799b8;stop-opacity:1"/><stop offset="1" style="stop-color:#298ea6;stop-opacity:1"/></radialGradient><radialGradient id="_Radial121" cx="0" cy="0" r="1" gradientUnits="userSpaceOnUse" gradientTransform="matrix(2219.37,0,0,2217.59,-499.33,-803.906)"><stop offset="0" style="stop-color:#3799b8;stop-opacity:1"/><stop offset="1" style="stop-color:#298ea6;stop-opacity:1"/></radialGradient><radialGradient id="_Radial122" cx="0" cy="0" r="1" gradientUnits="userSpaceOnUse" gradientTransform="matrix(2219.37,0,0,2217.59,-499.33,-803.906)"><stop offset="0" style="stop-color:#3799b8;stop-opacity:1"/><stop offset="1" style="stop-color:#298ea6;stop-opacity:1"/></radialGradient><radialGradient id="_Radial123" cx="0" cy="0" r="1" gradientUnits="userSpaceOnUse" gradientTransform="matrix(2219.37,0,0,2217.59,-499.33,-803.906)"><stop offset="0" style="stop-color:#3799b8;stop-opacity:1"/><stop offset="1" style="stop-color:#298ea6;stop-opacity:1"/></radialGradient><radialGradient id="_Radial124" cx="0" cy="0" r="1" gradientUnits="userSpaceOnUse" gradientTransform="matrix(2219.37,0,0,2217.59,-499.33,-803.906)"><stop offset="0" style="stop-color:#3799b8;stop-opacity:1"/><stop offset="1" style="stop-color:#298ea6;stop-opacity:1"/></radialGradient><radialGradient id="_Radial125" cx="0" cy="0" r="1" gradientUnits="userSpaceOnUse" gradientTransform="matrix(2219.37,0,0,2217.59,-499.33,-803.906)"><stop offset="0" style="stop-color:#3799b8;stop-opacity:1"/><stop offset="1" style="stop-color:#298ea6;stop-opacity:1"/></radialGradient><radialGradient id="_Radial126" cx="0" cy="0" r="1" gradientUnits="userSpaceOnUse" gradientTransform="matrix(2219.37,0,0,2217.59,-499.33,-803.906)"><stop offset="0" style="stop-color:#3799b8;stop-opacity:1"/><stop offset="1" style="stop-color:#298ea6;stop-opacity:1"/></radialGradient><radialGradient id="_Radial127" cx="0" cy="0" r="1" gradientUnits="userSpaceOnUse" gradientTransform="matrix(2219.37,0,0,2217.59,-499.33,-803.906)"><stop offset="0" style="stop-color:#3799b8;stop-opacity:1"/><stop offset="1" style="stop-color:#298ea6;stop-opacity:1"/></radialGradient><radialGradient id="_Radial128" cx="0" cy="0" r="1" gradientUnits="userSpaceOnUse" gradientTransform="matrix(2219.37,0,0,2217.59,-499.33,-803.906)"><stop offset="0" style="stop-color:#3799b8;stop-opacity:1"/><stop offset="1" style="stop-color:#298ea6;stop-opacity:1"/></radialGradient><radialGradient id="_Radial129" cx="0" cy="0" r="1" gradientUnits="userSpaceOnUse" gradientTransform="matrix(2219.37,0,0,2217.59,-499.33,-803.906)"><stop offset="0" style="stop-color:#3799b8;stop-opacity:1"/><stop offset="1" style="stop-color:#298ea6;stop-opacity:1"/></radialGradient><radialGradient id="_Radial130" cx="0" cy="0" r="1" gradientUnits="userSpaceOnUse" gradientTransform="matrix(2219.37,0,0,2217.59,-499.33,-803.906)"><stop offset="0" style="stop-color:#3799b8;stop-opacity:1"/><stop offset="1" style="stop-color:#298ea6;stop-opacity:1"/></radialGradient><radialGradient id="_Radial131" cx="0" cy="0" r="1" gradientUnits="userSpaceOnUse" gradientTransform="matrix(2219.37,0,0,2217.59,-499.33,-803.906)"><stop offset="0" style="stop-color:#3799b8;stop-opacity:1"/><stop offset="1" style="stop-color:#298ea6;stop-opacity:1"/></radialGradient><radialGradient id="_Radial132" cx="0" cy="0" r="1" gradientUnits="userSpaceOnUse" gradientTransform="matrix(2219.37,0,0,2217.59,-499.33,-803.906)"><stop offset="0" style="stop-color:#3799b8;stop-opacity:1"/><stop offset="1" style="stop-color:#298ea6;stop-opacity:1"/></radialGradient><radialGradient id="_Radial133" cx="0" cy="0" r="1" gradientUnits="userSpaceOnUse" gradientTransform="matrix(2219.37,0,0,2217.59,-499.33,-803.906)"><stop offset="0" style="stop-color:#3799b8;stop-opacity:1"/><stop offset="1" style="stop-color:#298ea6;stop-opacity:1"/></radialGradient><radialGradient id="_Radial134" cx="0" cy="0" r="1" gradientUnits="userSpaceOnUse" gradientTransform="matrix(2219.37,0,0,2217.59,-499.33,-803.906)"><stop offset="0" style="stop-color:#3799b8;stop-opacity:1"/><stop offset="1" style="stop-color:#298ea6;stop-opacity:1"/></radialGradient><radialGradient id="_Radial135" cx="0" cy="0" r="1" gradientUnits="userSpaceOnUse" gradientTransform="matrix(2219.37,0,0,2217.59,-499.33,-803.906)"><stop offset="0" style="stop-color:#3799b8;stop-opacity:1"/><stop offset="1" style="stop-color:#298ea6;stop-opacity:1"/></radialGradient></defs></svg>